<mxfile host="app.diagrams.net" modified="2021-01-17T12:30:16.832Z" agent="5.0 (Macintosh; Intel Mac OS X 10_13_6) AppleWebKit/537.36 (KHTML, like Gecko) Chrome/87.0.4280.141 Safari/537.36" etag="KMbJBgrKh34C3wNppGjK" version="14.2.3" type="github">
  <diagram id="llfRjVhpYQk1pcsOZ_1C" name="Page-1">
    <mxGraphModel dx="946" dy="524" grid="1" gridSize="10" guides="1" tooltips="1" connect="1" arrows="1" fold="1" page="1" pageScale="1" pageWidth="583" pageHeight="827" math="0" shadow="0">
      <root>
        <mxCell id="0" />
        <mxCell id="1" parent="0" />
        <mxCell id="mrAVVWmBJjdgPhhAWUY1-36" value="" style="rounded=0;whiteSpace=wrap;html=1;fillColor=#f5f5f5;strokeColor=#666666;fontColor=#333333;" parent="1" vertex="1">
          <mxGeometry x="344" y="490" width="220" height="110" as="geometry" />
        </mxCell>
        <mxCell id="mrAVVWmBJjdgPhhAWUY1-38" value="召回服务&lt;br&gt;(天津)" style="rounded=1;whiteSpace=wrap;html=1;fillColor=#fad9d5;strokeColor=#ae4132;" parent="1" vertex="1">
          <mxGeometry x="414" y="500" width="80" height="40" as="geometry" />
        </mxCell>
        <mxCell id="mrAVVWmBJjdgPhhAWUY1-41" value="召回服务&lt;br&gt;(南京)" style="rounded=1;whiteSpace=wrap;html=1;fillColor=#fad9d5;strokeColor=#ae4132;" parent="1" vertex="1">
          <mxGeometry x="354" y="550" width="80" height="40" as="geometry" />
        </mxCell>
        <mxCell id="mrAVVWmBJjdgPhhAWUY1-99" value="" style="edgeStyle=none;rounded=0;orthogonalLoop=1;jettySize=auto;html=1;fontColor=#000000;" parent="1" edge="1">
          <mxGeometry relative="1" as="geometry">
            <mxPoint x="452" y="600" as="sourcePoint" />
            <mxPoint x="452" y="647" as="targetPoint" />
          </mxGeometry>
        </mxCell>
        <mxCell id="mrAVVWmBJjdgPhhAWUY1-42" value="召回服务&lt;br&gt;(广州)" style="rounded=1;whiteSpace=wrap;html=1;fillColor=#fad9d5;strokeColor=#ae4132;" parent="1" vertex="1">
          <mxGeometry x="464" y="550" width="80" height="40" as="geometry" />
        </mxCell>
        <mxCell id="mrAVVWmBJjdgPhhAWUY1-66" value="" style="rounded=0;whiteSpace=wrap;html=1;fillColor=#f5f5f5;strokeColor=#666666;fontColor=#333333;" parent="1" vertex="1">
          <mxGeometry x="294" y="649" width="320" height="71" as="geometry" />
        </mxCell>
        <mxCell id="mrAVVWmBJjdgPhhAWUY1-70" value="" style="shape=image;verticalLabelPosition=bottom;labelBackgroundColor=#ffffff;verticalAlign=top;aspect=fixed;imageAspect=0;image=data:image/png,iVBORw0KGgoAAAANSUhEUgAAAgAAAAIACAYAAAD0eNT6AABaJklEQVR42u2dB5QkZbXH52HO7ynsssvudOXq6Zmu2mUJCyqLShARRZ6gKKggYgDBgPIQBFHBiIgoSnKhu2cjm3OczTmH7p7Nkc05h5n7zv1mF2fZMN3T1d1VX/1/59zzjue8w/ZUffXd+93v3v+tqAAAAAAAAAAAAAAAAAAAAAAAAAAAAAAAAAAAAAAAAAAAAAAAAAAAAAAAAAAAAAAAAAAAAAAAAAAAAAAAAAAAAAAAAAAAAAAAAAAAAAAAAAAAAAAAAAAAAAAAAAAAAAAAAAAAAAAAAAAAAAAAAAAAAAAAAAAAAAAAAAAAAAAAAAAAAAAAAAAAAAAAAAAAAAAAAAAAAAAAAAAAAAAAAAAAAAAAAAAAAAAAAAAAAAAAAAAAAAAAAAAAAAAAAAAAAAAAAAAAAAAAAAAAAIGGKirOWxKLfXBRPP4/6UujH1vZRfvI6kjkvVRR8V94OgAAAEAwnft/pS+OtsvGrc9kO1k/yDj2X7Ku1S8dt2dm4+aarGvuy7o2ndHi5rF03N6WjVtLso41OuPar6Sd6CMZx/7fTNy26daKd+AJAwAAAD6AT/AZx74p61i/zcatUcKBn83BF2jpuH0w61jTsq7516xr3ZbpbLfHGwAAAABKwJJY7KNpJ3pLxrH/Lk7qRXL2uZtZn3Wtf2Zd6+ZllxkfxhsCAAAAPIDv67OdrEszrv2rjGvPSLt2Q/md/jmuEFx7XCZuP5hxbQVvDwAAAMgDLsird80bM679ctY1N/nW4bdo1lyuIVjSOWbgrQIAAABnYIHjfCDbyb4149q9zlmoF+BgIOPYDy2v1jvibQMAAAg167p2eB9X2Gcdu48osJPO6Z+hkNC1G7Nxsy7rWN/m9kOsAgAAAKFgTpcu76rvZH4uHbeTcp708woGDmVcu2fWsT6LFkMAAADSwb359Y55edaxnk/H7a1hdvrnKCDcmHHt37HeAFYMAACAQFMfN7WsYz2ejZvL4OTzMMeaVu+a30FbIQAAgMDA99rsvNKuPRnOvHDhoYxrJzKufTW3Q2J1AQAA8BV8f51x7Ov5PpvvteG8i1IvsDLj2o8uixsdsOIAAACUlfrOZlXGsX/P99dw0iULBBrSrj2CWyaXGcZ7sAoBAACUhNVu5L8zjv09VuWDQy53rYC5PePYz6adaA1WJgAAAM/hFH/ajV6Xda0eSPH7tl5gZsaN3ovCQQAAAAXDErY8ZS/t2uvhZIPSTmgdyDpW96xjfYLbL7GKAQAA5ETGtj+Ucey7M649CQ416GZmM679s0U1NW2xsgEAAJyGEOqJm1eJk6Nr7ofjlE5k6FgmbvdnBUYoDgIAAKjgljJuLcs61nI4ytDUCmzIOtZvso6l4gsAAIAwOX3DeA+3kHErGbeUwSmG1zKOPSbrWF9BOyEAAEhMvWt2yrrW37KuuQPOD/a2WoEdaCcEAACJWBKLfTTrWvdlXHsenBwsp6wA6zvErXu4GBRfEAAABAjWjE93il57Qpb3MJwarJVZgf0Z134lHY92RTshAAD4mIxrKxnX/lXWsdbCecE81hZYknWtH2W7WOfjSwMAAB+wOhJ5b71jfpWLudKu3QhnBStyVuBIxrV71Xcyr8F0QgAAKAPLHKNzxrH/nonbu+CUYGXSFlidce3H6l3zInyRAABQRLigL+1G78/E7flBdRqrbrqOsp1jcJ6STSfMutaQbCfri3Xdur0TXyoAAHiAbAV96+/7Dh3bvIm2v/gPWnnDp+FA5csKvJl1raeXVRs6vl4AAGgFSztXRbKO9UQ2bq6RykF0itKBWTNI0NhI+6dPpY0/+xHVXxqH85QvGBifjkdv5zoVfNEAAHAOhEKfY30l61ijZS7oW/O1L9PbOb57F+1MdqdVX7oxNA6Sr0NW33ZzKESGsq71HESGAADgbWRrLIc3yDAp9O0dNZzOxsGF82nT44/Qsis6y+f0v3QjbfvHc3S4Piv+1tVfvil8IkOO9e0lsdgH8eUDAELJyi7aRzKO/b2sY84OY3p41eevpcbjx+lcNOzfT7ve6C0yBnx1ENQrj9W3fkHUPBxZteLUQGfu7DC3E+7LOPZL9a55GUSGAADSwxtdulO0W8a1E+m4fTDsd8Q7e6YoV/jEvOX3v6HlV10WCKe/5vZbaPsrL9KRtWvO+jdtfPgnqBNoCgYWZRz7h9zlgl0CACAVmc52+7QTfQQjd0+15Z+6khoOHKB8aDxyhPYMH0Lr7vkGZTtX+cvp33Eb7XjtVTq6cUOLf8ex7dup/pIarINT2wkPZx0zlXHtq5EVAAAEljldurwr61o3c390Om4fxwZ/ZuP78NZydN1a2va3Z2jFZz5Rnt/fuYrWfutrtDP1Oh3b9GZev52vBPD+z9lBsCzrWg8vqqlpi90EABCM037ctjOO/Yesa23GRt6yLevaiY5t20YF0XCc9tWNow0PfI/qLy6yyFDnGK379p20q1eKjm3b2urfu+K6bnj/uQUCxzJxu382bt1At1a8AzsMAMBXLHCcD2Rc+1tp156MTTt/2/ybx8kr2Clvf/lftPLz13r2++q7VNP6794lChKP79xR8G/cO3Y03nvrOgjW8bCrJV1ildh1AABlg+8ouYI561gvZl1zLzbowhzskTWryWsOzJxOb/7fT6j+Mif/33RJDa2/717aPeANOr57t6e/a913von3XlitQGPatUeknegtfNWG3QgAUBLSl0Y/lonbD2ZdczE2Y+9s40/up2JxfM8e2lmbaLHnngOFDQ9+n/YMGUgN+/YW5bccWbUyuC2N/gwGtmQd649pJ2phdwIAFOO0f17ajV6Xjtu9eRwqNt7iVNGzAFCxObR4IW168pe07MqLm2oQLndp409/SHtHDM27I6E1cCsj3nfRrggmZl3rjnVdO7wPuxYAoCD4rlFKPX6fGlfUl4qGgwfpwIxp1HDoUEn/zWUfvwTvutiBAI/Idqzn6zuZLnYxAEDuTj8We3cmbn8565ojZdbj96txNb+s7OrTE++41FcEcXtWxo3em7HtD2F3AwCckWWdjFjGtZ9Jx+1t2DjLq5VPDQ1SBgBh0/33mdrg/oxrv1LvmJdDZAgAwKf9D/JgkqxjTcMG6R/b3a+PdM4/3Lr/vgsGFmcc+wFIDwMQMoQefzzalU8DPJAEm6H/bMW1V1Hj4UNSBQAbf/5jvFtfSg9btZAeBkBysl2s87Ou9eNs3FqCzc//xoN0ZIGVDqH773MTczqsh5fEYhditwRAjtP+f9r34uZRbHQBkgj++CV0fPcuKQIA6P4HqmjweMaxB9R3Mj8H6WEAAsjyar1j1rEeR/tecDUB1n7zdjq0ZFHwvT/r/l97Fd5pMK8I1mdc+8mlnasi2FUB8DGifc+x/zft2sPRvhfQDoAvflaclo9uWC9N+n/vmFF4txJID3NbMLcH8z6D3RYAn1Df2azKutaf03F7Kzar4NnyT11JW/7wWzlO+9D9D8MVwVaWHuapn9h9ASjPaf+DGce+O+uYU7EpBfB+/3JXDOnZP3mCSJHLypFVK6D7L7v0sGPdCelhAIqMmL7nmJdnXPtltO8F0DrHaN29d9HuwQNKornvBxqPHKG9o4bT+vu+Q/UXx7AG5M0K7M449t8hPQyAx5xo3/sRpu8Fs5hv9a1fpB2vvUrHtm6hMHNs21ba0f1loXSItSFzO6E5m6WHl11mfBi7NwCtO+2fV9/JvCbj2r0wfS+AQj7XdaOtf/0zHV6+jMAZJhIuWUSbn3qSll91GdaLrBa3DmQd69/pztErIDIEQA4sixsdso71y2zcXI1NJHh9+5ue+AUdmDWDqLERXj6XK4KjR2nv6BG0/r57cUUgdzCwhLOY6UujH8MuD0Az5nTp8q561/xSxrGHpV27ARtGcKy+SzVteOB74p678fBhePQC1QJ3vPYKrb4FVwQSzyA4knWtHlnH+jRnObH7g9CSdqJWxrH/kHbtLdgYAibSc+dttKtXShqlPt9dESxdTJuf/jWuCOTWFliRdqKPpC+OtoM3AGE57b+/3jG/kXHtSdgEAibS8/lrads/n6cj69bCQ5f0imAkrb//u7gikFh6OO3YA9NO9PN13bq9E14CyHfaj0cvTrv2C+m4vQcffYBEerp1FcVqBxcugDcu9xXB9u204/V/0+r//TzWprzBwIasY/0m61gqvAYINKvdyH9nO1k/yLj2PHzcAbrXv8yljT/7Ee2bMJ4ajx+H5/XlFcES2vI7viK4HGtWVulhxxqdda3blhnGe+BNQCAQYj1x86qMayfSrn0IH3OA7vXvvoN2D3iDGvbvg4cNyhXBsWO0d+xoUYjJBZlYy1JmBbZlXPuZZZ2MGDwM8CWLamraZl3r51nXrMdHG9CT/8UxWvGZjwvhnvXfu5vefPTntPUvfxAiPnuGDKT906bQ4fqMqFanhgZ4X59xfMd22pn4N62+9QtYz/KKDE3NuPZdCxznA/A6oLyn/Vsr3sEzszNxu382bh7DBxomWd8qWn71FeI+et2936I3H3mItvz590LpjqV+90+ZRIczS4X6H64RSg8/ex6wxDUcWK9SthPuzcatf2U625dAZAiUFC5Q4UIVUbCCjxGWS7Bw1eVCAnfdPd+gjQ//hLb88Sna/sqL4sph/6Q60fZ2bNObouodeNdBcGTNatr6zO9p2RWdsQ5lvSJw7AVZ17pvUTz+P/BOoChwIUrWsb6Scewx+OhgxaxFWPaJS2nVFz8rahI2PvSgKHbb/tILtLtfb9pXN44OLVpARzduCLXwEKf7D2fTInja9UZv0Z656cnHhKIgX+GIkz+mEIatcPBQOm4n052i3ZAVAJ6w1K2qzjj2s1nH3I6PDOa7YOHKLrTqputo7be+Rht/+sOmlsX5cwPr2BsOHhSndpZT3jNssLhS4VT+xoceoLV3foVWXn811V9Sg3cPa0F62FzGNVlcmwUvBvJiSSz2waxjfTvrWtPxMcGCZis/9xn/ZQcajtOxzZtE9mLfuNG0s2eKtj73DL352MOihmLVzZ8TwQzeH8zjQOAY12hxrRbXbMG7gTMX9HH7nmtelnHtl7OuuQ8fDyzItu2Fv5UuHb97Nx1eVi8KH7mmYfuL/6DNv31CtOatuf0W0VmR7QwVP1jZrwjWZ1z71xnXVuDxwMnT/kczjv1A1jUX4SOBySNm5NDR9euK5vQPzJhKK2+8Rvw7eN6wQIoMOdZXIDIUztP+eTyNiqdSpV37MD4KmIzG+vnFgovt8IxhEugKbOcar7QTrYFnlJxMZ7t9Jm7/Iu3aK7H4YWGwfXVjPXf+RzesF62NeL6ltYxr06wai0ZFDfpHx3Y02lYp41h4Nt493xnZuHVPxrY/BG8pCTxdKuPYN2VdcxBPncJCh4WqIPCGT3teELj1L3/Esy2hLYpbNDFm0kDLpH6mQf0tgx654Hxhv76wDfVQO9KcGhPPyjuRof1Z13w13Tl6BdoJA8oJsZ7fZuPmRixoWKgLAv/xnHfiOkeOQF2vRKf9mTUWjYw2Of3m1jwAaG7Pd2hHIy2V0sgKeCkylM449k9XOFobeFWfA7EeGOwsBYHr1noSALDMMZ5p8Wxh3KYJ4rRvnOb4WwoATtqTbS+glNKRZlUbeKYethNmXasf2gl9CBdwCLEe19yBxQqDnaEg8L7veBIArPn6rXie3p8yaUaNRSNs86xO/5QAwDx3ANDcnrvoQhpuKrQUz9m798US8I712/q4qcH7QqwHBgtGQeD4MQU5f55XgOfonS1wLKqrss552i80ADhpT7RtQwmlA82o1vHsvc0MjM+49tfXde3wPnjlUon1OPZLEOspodzsFZ1pxbVXCX16nn63+itfEifBtd+8ndZ9+05ad+9dYsgNy9GuueM2WvPVL9HqL99Eq26+QUi3Lvv4Jaga901B4KFWBwCbHn8Ez7HwHnSaXm3RcDs/p19oANDcnmnfjoaaCi1BrYCXWYHdadd+IROPdkHhIMR6/G2dq4RDZwfOGuustb7j1RdpD4+xnT5VDFnhVi9WeGMJV2+qxxqpYd9eOrrpTaEad2D2TNozfKiY387T2t78v5+KYGLl56+l+ouhGle0gsDnn22d2t+ePbTschfPsLWn/bhF46ssGmC23vF7FQCctMfbXkCvRTrQtBiyAh4HeQszcfvBbBfrfHjvAsR6Mq79qaxj1UKsp3W2rGsnWnvnbbTpyV/SjtdeERrs7HwLOQWWZIzr8eN0ZO0a2j95Iu3skaQtv/8NrfvON8VIXbzXAgsCL43TkVYUBO54/d94fnnaUsemaQWe9osZADS3P7W/kAYbEVocR1bAw+uBo1nXeoMLB7kdHV49R7GetBN9JO3aK7CI8nD2V15M6797F217/i+0d9RwMVGNT92ywQNl9k2so+0v/5M2/uR+WvHpK/H+8y0I/ME9eT/3VZ+/Fs8uR5tfY9G4KpP6W6anjr+5eR0AnLTH2lxAr0YuoikxTbQi4n16Fgy8mXHsP9R3Nqvg5SHWU7Atv/oKkb7fmXqdDi1d4l2qPoBwsMNDaPiOeiUcVU62d+zonJ/v/qmT8cxaOu27Taf9oXbxnH4pAoDm9od2F9IAI0KL4hAZ8lxx0LG+vyge/x+I9UCsJ+d7+zVf+zJt++fzdGjxQilP914GBDtTr4mMCKe8sX7OUBB4/dU5XwXxVD88szPbvBqLxvJpvwROv9QBwFtZgQvOp5crL6IJVTqyAt4qDh7JOnafUF0RQKwnP6e/9u47aFffXnR8x3Z49taMoT94kPaOGSWuCzC57m0FgX97pmXd/zc3YpTv22yJY9PUapOGWqV1+uUKAJrb79q1pf56pShqxFrw9oog61pP8aFYSse/1K2qFmI9jrkdL/zcxq12O7q/TMc2vQkP7mUwsH8f7R7YTxQUoi3xREEg14qcS/f/uWfwTZ6Q5p1TY5fltO+nAOCkPdrmAnqxsj2Nj6JWwOMOgsZM3B6ajVs3cCF8oJ3+Asf5QMax78461jS83BY24y7VtPGhB+ng3Nnw1CW6JuDugmVXdgl3QeD37j57N8bRo7T8U1eG/rQ/pdqkIVb5nb6fAoDm9vSFbaivXknzMZDI8zkELHbHWfNAifVkOtuXZB3rxaxr7sWLbKF6/4rO4pR1bMtmeOVyZAUOHBCthiuu6xbegsDRI8/4bPYMGxzO075j0+wai8ZETaG77yfH78cA4D9ZgfPpnx3b01hbE/LG2N89ywqsT7vR+30dCHBFI//ItGMvwEvLZUCLS1v+9Ds6vnMHvLAftAeOHBGFg2E88a64/mpqOHR6QeDaO78Squew2LFpUsyiwT51+n4PAJrbby9sQ720SpqLrICXdQJrMp3sr/lGaVBI88bNT2ZcO5F27UN4SblJ6775yEM48fu4aHDbC38LXfcAZ6Gaw2qQvFbD8LfPrrZodNTwxd2+LAHASfvFBefTPzq2o9E2xhR7mBGYXFY9gWWXGR/OutZ9mbi9FC8kPy127qkGAagRWLWC1n7jq+HJSF1SQ0dWr/qP7v+Tj0n99y5ybJpYZdEgKzhOP4gBQHP7dds21EOtpNnICnjTQuhaPyppNoDH7mZd659Z19yPF5CfbfrVo2dMswI/3ws00s5kd1GgGYqCwO/e1ZQF2bdXyEjLWMk/q9qikVEzkE4/6AFAc3u+QzsaaSEr4MEQot5Fn0SY6WRfKVoT8MBbdbLa1bsWzjTA8OAiVl4MR0HgCKEuKddp36KJMTOwp30ZA4CT9mTbCyipdqRZ1Qb8ReuvBMYVJQio72Rek3HtiXjIrdXn70IH58yCB5UAnmLI45ClLwi8rhutuuk6GTZFmllt0QgJTvsyBwDN7bmLLqThliJaL+E/8jTHTHma6k+79gg82AKc/+UunL9k8CAiruPA+vavLYxbNKHKpIESOv3m9gsJA4CT9kTbC+h1pQNNR1YgvyuuuP2Fglv5uH8/7doNeKCFSPjGxChbIGEmYN3a0Ivj+K9v36IZEp/2wxYANLdn2rejoSZnBVArkEMWYGrr7/kd+3oM5fGopeovf4CnlBiepBeWFjk/24K4TXUxkwZaRmgcf9gCgJP2eJsLqLvSgabFdKz9c8kI2/aH8h7Fm3Wt5/AAvTG+J2ZRGSA3G3/2I6z3Mt3tT6+2aLhths7phzkAaG5/an8hDTIjtBgDiU6zmVV6dV5a/VnXGoIH553tGT4U3jEMVwEb1mOgUAltftyi8VGTBoTY6SMAeNuY4jYX0KuRi2hyFQYSnWxz7adFa3Jy/ktisXezohA2F+9s+VWXiwEqIBysu/curPsi2lLHpmnVFg2z4fDD0AVQSNHgYEMJ/ffC8ytqK00tpwCgSdAHm4ynYj9PPgavGCJ4tDDWvfc2L27RuCqLBlhw9MgAnN3+etGFNAxtg2/ZMNPILQDIuPan8MC8tx2vvQqvGCIOLpiHde/haX9qDKd9BAC5CQfNRIvgKcYKlylVyy0AQI9/aceqAkl1AbZtw7r3yPmPqzIDNYwHAUBp7W8XNUkHL8X3cvoUy7hFvXU9twCAq/7Tcfs4HlwxCgCHwCuGqRBw4wasew+NU7lTYhYNCXmFfy72aAicPoYH5RY89zc04fxzCgDq46aGB1cc2/7SC/CKIeLArBlY98WqA6ixaCyyAqELADA+OI+AOW7TAEN/y/nnFAAM1vWL8fCKYxsfegBeMUTsTL2GdV/sE45r09Rqi4YiKyB1APDbC9tQb60jzcXdfs6S12/opzr/nAKA2kgkOr8GD7Aok/8uc+j47t3wjCFh9a1fwLovpRZAjdVUK2AhGJAhAHi0zfn0z47taaytURqV/LmL/VSb1FM73fnnHACMthFlFct4fjyQn0OLFmC9l1kfYLiNACCI9vSFbaiv3pHm424/b6GfMbZJtWdw/HkFAPwfWAgZxSKJAV0mqsOBxDQ00JqvfRnr3RfzACwaXxU+hcBH21wQsNP+BfRiZXuqg2pfq2ti+un6WR1/XgEA/z/213Whq42H671tePAHcJISs+PVF7HOfTojYERIsgKPtQ1GAPC7dm2pv14pAjWs09ad+sdFjXOe+lsVALANt3AVUDRRoFdfhKeUkP3TplD9pXGscT8XSDkW1VVZUk8J9HMA8NgF59MrlRfRxCodp/2CxH1M6pvDqb/VAQCCgCJapyjt6l0LjykRB+fPpWVdO2FtByUr4Ng0o9qikTYCgFLYH9u1pYFGhBbFcbdfaIX/MCs/x9/qAIBtiKmj57IY1rlKtIoBCXr+Z0ylZR+/BGs6sFkBmyZIlBXwSwDwyzYX0L95Il8Mp30vilvHRg3q0QrHX1AAwMY9hfNxT1MUe/Oxh6nxyBF40aDe+b/2KtVfHMNaluROdWa1RaMCrivwaNs2ZXX8f25/IQ02IkKGFuuq8DU5qcqkXlrrHX/BAQAbRx78Q/BSvLc1t99CR1atgDcNEMd376KNP/sR1q+ktsixaWKVRYMCqCtQjgDg8bYX0GuRDjQ1hmtjrxw/S1/30fWCHb8nAcBJG2zqImWGl+SxUNClcdr2z+ep8dgxeFefs2foIFp+9RVYtyHZiGfVBCsrUMoA4C88dtfksbs47Xu13qbFzDMq+fkiABDZAE2juipEesWwVV+6kfZPqoOX9SGH67O0/nt3Y52GeLLa5JhJg61wBwBPtG1DCaUDzajWsS68cvw88rqqOI7f8wCgeW3AjGpcCxTD1n7jq2KgDCg/R9aspo0//7Eo3MTahPFmPbvGotFCetiPQkDFCQCe69CORpgKxu56fOKfXJV/S58vAoCTNsjUaR4KPopi6759J+2rG0vU2AhPXGIOLV5Ibz7yEIr8YOceU1xt0hAfBQKPeRgAPNn2AqpVO9JsDOLxfJDVhKhJvUvg+IseAIj/OOsGmAZUnYpkKz/3GVFxfnzPHnjmIsI1GHuGDaY1d9yGdQfL6yQ3p8b2xZjiQgMAHrv7fIf2NApjd72/RnJsGmd7U9XvqwDgrX9EaxIQQiBQrKmCLm386Q9p79jR1Hj0KDy2V0I+c2bR5t88TsuvuhzrDFZwVmCqyAqYgQoAfnNhG+qpdaQ5GMRTFAEfFp3qoZbe8Zc0AHh7IMBjOrEAimPLPnEpbXriF7RvYh01Hj4EL54PDQ10cN4c2vqXP9LK66/GeoIVxebG7aYxxT4NAPi0/w8xdlelDE773r//GouGmobwhym1vFbSAKD51cBQS6e5iCqLnBlwaP33v007axN0dN1aOPgz9e7v3EF7hgykjQ//RExmxLqBlfLOl8cUDy1BO+Evc5gG+NsL21JvrRL7cpFsesyigYZedqff3BKVlWrJA4BTigUNnWbEEGWWwlZc1004ul29UnS4PhPKIsKj69fRnsEDaNOTv6RVN98gZjBgbcDKbayqKrICRboiOFsA8Is2F9C/Oran8VFNzELAu/B4vsSJiv43dH85/pPWMxJRyhoANG8f5AeFRVjC64KPX0Lr7vkGbfnT74RT5J72xuPH5WnVW7eW9o4eSduef5bW3/9dWvGZT+C9w3yv785jiod5nBV4ewDwdLu29IYYu4vTfrEK+8ZHjbIU9gUyADhpvXRNVERCM7p86oOrb/2iKCrc+tc/0+7+fenAnFl0bMtm38rvHlq0QCjxsWoit+itvfM2WnZlF7xPWKCNi6bHV5k0wKMA4NE2F9BLlRfRhKiGQTzFyuTU2DTSKm9hX6ADgOZ1AiMsA1oCfgoOLqmhFddfLdrhNvzoPtr81JO0/aUXaFffXrR3xFDaP3kiHVwwj46sXC4ChoZ9e6nh0KGWswoNx6nx8GFq2L+fjm3bRkdWrxL99vunTaG9o0fQ7n59aEf3l2nLH5+ijQ89SGu/9TVa+flradnlLt4LLBRpZM4KDG9lVmCYbdBAo5IW4rRfNJvFHR6mHginH4gAoLlx4cT0ahNRa5CtU5Tqu1QLp81XD8u6dhIBBZT0YF6srdC0jjkW1XFWoIVaAa4l4JoCdFwVV+dhSsykfnrwHH+gAoCTxlOQWClpKVpTYLDQ2fJPXiqudzb98v9ox6sv0r5xo8XETL6uCl1WwLFpRnVTH3lzx89ZAs4WLEUtVVE1Hfh+v7emBdbxBzIA+M/gIZ1G2YaonMWChMEkuma6OEarbrqONjzwPdr6lz+I6x/WZuB2zTPBRZ5h7+TgSaw8JnZBHOun2J0aQbrflzYAePvMAbQRwmABO81fdZkYbrXp8Udox79fon3jx9CRVSvzGn19fMd2Wt6tK54nrKg2s9oSI+9TEjl+aQKAk8aTkyZWGSI9g0ULg/ngNN+lmlZ94Xra8OD3hboid5QcnD+Xju/a6UkHCP938Zxhxbpi4THPb+hyOn7pAoDm1wMjcT0Ag5XwNH85rf3m7UKCmrs19tWNE50cxdSU2D2oP549zHNb5Ng0NmpQT01uxy9tAHDa9QC6B2Awb07zN99AGx78AW199k+0e8AbouWTdRhKzbFNb4pOErwXmFc2p8aiYZYRCqcfmgDglO4BXA/AYC2f5rt1FToLm371KO147RXaN2E8HVmz2lcKkevu/RbeFcyTNr5pMZMGGHroHH+oAoC3rgdYXMiGuBAMgk6rbv6cEHMSao+D+tPBhfPp+O7dvpd33tkzhXcI86CNz6TeengdfygDgOY2wDBE9IfrAZis4jjLP3Ulrb3r67Tpycdox2uvihHRR9auEcqLgZztsHYN1B9hrbZ5NfK18SEAKHT2gKbTuKhBi9BDCwvqaf5LN9KGH99PW597hnYPHkAHFy6g43v2yDXGsaGB1t75FbxzWN7GbeKDTJz2EQC0MHtgmGnQnGroZcP8d5pf8ekrae3dd4gxxjsT/6b9k+rEtMOgnubzhZX/sBZguRorIU6oMkV7OBw9AoC8rN9bo4lRKwAr4WmeJzHeciNt/Mn9tO1vz4gRzTzpsGHvHgozPKaanw3WCKwl4wmKo22k+REAePFwNE0spgUoGoR5eZr/zMdp3d130OZf/5J2JrvT/skT6Kg4zTcQOBVWBuTx1Fg7sHPZyWl8tXDqCACKcT0w2DTEXRKKBmE5neYvc2j1/35eDKrZ9vyztGfIQDHimEckg9zhZ4f1BDuzWp9Fk6rkV+tDAOAzTQEexwlNAVjTaf4TtO7bd9Lm3zxOO1Ov0f7JE+no+nU4zXsAX3/wcCCsNdgpan1xi8bYJvXS4I8QAJRTU8AyhIIUPsoQnOa/fBNtfOgB2vb3v9KeoYPo0JJF1LB/H7x0sVL/hw/Tqi9+FusP9pbNrma1Pp1q4fgRAPjJ+us6TYmZlMZHGuzT/DWfpHX3fIM2P/Ur2pl6nfZPmURHN6wnamyERy4xW/74FNYkTOypvLf2N5DmRwDgd00BXROpqYXQFPC1sab9xocepG3/eI72DBtMh5Yupob9++F1fcKBWTMo27kKazXkQ3nG2QbS/AgAglk0OEQMIsL1gB+Nq/A5lX9s8yZ4W7/p/ezfTytv+DTWaVjT/DyUxzTgRxAAyGF9dY0mRE1agqyA/+72L44JBb0DM6bC8/oEHkKEtRm+oTxTq5DmRwAgc9Gg1jSIaC6KBv15LfDFz4oqfrTplQ9WN+RaDKzHcNjiuEXjeCgP0vxls4SmtUEAUPJBRLqIeKEp4D9b1rWTGJ5zOJuGRy4hPImQWyqxBuW3udUWDbcg2lN2iyhbqKLivxAAlL1oEFkBP3YFrL3zNiHg03j0KDx0kdn48x9jzUme5ufpqwOQ5veNJRXlhYqWQACAosGw2/Krr6Ctz/6Jjm7cAE9dBPaOHIZ1JqktcSwaHzWotwbH77PT/9GehqEjAPBd0aCOokG/WucYrb//u0K7H9oA3nBs2zZaftXlWFuypflrOM1vIM3vV1O0JypyAQEAlAZhp9vKG6+hHd1fpuO7d8GLFwAHVFhP8ti0ak7zo43P385fGVvXrds7EQAETWkQ8wd8KRP85qM/F7r1ID929++LNSRFmt+m8VzNj6E8QbAF3SOR/67IFQQAfhpPrNMY20DRoE9tze23CKfWePgQvHsLHH1zIy27sgvWTYBtXo1FIy1dZCuxPwfB1Lm1lnV+RT50j0QuxIPDeGJYHkWDn7yUtvzxaTqydg08/VngCYpYKwGs5neaqvkHopo/aGn/oa/Y9ocq8oX7BJOqthoP0b/jiSdUGRhP7MuiwSpad+9dtG/8GIwHbgYPWsL6CFiaP26LfaYPRHuCWPD3VJ+KindUtJakqj6KB+n/rMBwFA36d/7A9VfT9pdeoGPbt4fa+R9ZvYrqL3OxJgKV5jeEkin22eAJ/aQi2g0VhZJo2/YDqYiyFg81IEWDhk6Tq7hoEMGA74oGL6kRojcH58wK4aSfBlrz9VuxDgKQ5p8eM2kQ0vxBvu8f0KLMbz7UatonWDwADzZIRYMajbZNWoCiQV/a6i/fRLt696CGAwdC4f+3v/xPvHek+WFFPvUnNe32FiV+WxUEqOrXE6rWiAcdPBtk6jS92hTRPTY7n80fuLILbX7qSTq8Yrm0zp9nK3D2A+/bfzY/jjR/4If6CL+s/qt3hw4frSgmSVW9IxFRjuGhB7VoUBM9u4uRFfDn/IG77xDSuI3Hj0vj/BuPHRPZDrxjf2nzz6hGml8Sm/66pl1SUSpqVfWalKrtwoMPdtHgMNOg2Zg/4M+iwc98grb94zk6tmVz4AOArc89g3fqE1vqWEJqvA9Ee2Q49a/hdP8TFRXnVZSaRGWlmlCUOXgRwbd+hkaTqgxaig3Sf0WDF8dow4/vpwMzpgbS+R9cOF/MUMC79EGa3+Y0Pxy/BI5/Z0pRHuoeiby3opz0icXenVS0p1Oq1oAXI8f8gVG2ITYLbJr+s1Vf/KzooW/YtzcYRf+HDtGqm67DuyujsVgY1/9gf5PA8UeUfdzTn5eUbylIquqlyYi2EC9JHmOlL1b8gtKgD4sGu3aiTU8+Jgrr/Mzmp3+N91WWNL9NE6sMMVkUe5kUtj+pqr/PW8a3lLzYpcu7kqr6ExGl4IVJY700ncbZJi1CVsCfRYN33kZ7hgykxqNHfeX8D8yYJpQQ8Z5KZ9zuO4qr+bFvydLSd7iPpv3d147/tGxAZWW7lKK9inZByYoGNY2GmgbNqjax2fpx/sDVV9DWv/6Zjm7cUP7U//59QvkQ76VEaf5qS8wGwT4ly6FLo7qo+R95d8eakHHtuzKt0fIvFwlFcROqOhwvVD7j1CKnGJdCadCH8wditP7+79L+yROIGhvLEgBseuxhvIciW9q1aVKViTS/ZHNdJp1LwTVuHci4diLrWJ+mclT+t6plUFG6pSLaJLxgCYsGNY1G2AbNxfwBX9rKG6+hHd1fpuO7d5XM+e+rGyeuJvD8i2MLHVuMBO8J0R5p7A1dpyn5TnaNm2syrv1YvWte5PsggGUJE6p6bTKiTMYLl9MGGDpN5egVm7T/Wgkvc+jNxx6mQ4sWFNX5H9+1k1Z8+ko88yLYrGqLhpiG0O/AfiNJobVp0MwCdVjScft41rXeyLj21UWR//U6EEhG9KtTijIWC0DS+ytdozG2KU4q2Lj9Z2tuv4V29+9LjYcPeR4AbHzoATxjL9P8ji2GerFOB/YWeYxrqYoxtTXj2vMyneyv1XXr9k7/Xw3oepekqvVBsaC8SoNDTJ1momjQn0WDn7yUtvzxaTqydo0nzn/P8CF4rh4Zd9yMjXKaH/f78lyX6mIwWykORmnXXplx7Lt9HQgsicU+mHWsby+IW/NHQ6FK+uKWuqpmVa0wHxUNVtH6795F+8aPEeN6W8OxrVtEQIHnWZjxqXAYqvmla6Ouixpi0mLp15SZzbrWzb65GuAfku1kXZpx7Jeyrrnv7aMo+UH1RiAgdVZguGXQXMwf8Of8geuvpu0vvUDHtm/PKwBY/4N78PwKGMrDBWD9MZRHLnl1UdjnEyG1uDWqPm5qZXP8c7p0eT+f9rOuNRcfBIytv6GJ+800Wgn9VzR4SQ1tfPgndHDu7Bad/66+vfDMWmFLHIvGRw1xQsR+II8N9qtWStw6UO+a3ylpNmBppyoz49jPZuL2rtb8aJ5UN9TCByK76MWYqCFUzOAY/Gc8xndX7x7UcODAac7/6Ib1tOzKi/Gc8rB5NbZonUU1v1yZzZFWQGaoOFb3JbHYu4vq+NPx6MVZ1+ybdu1Gz3pfuSgGi03y6Fmn6fn2w8JKM3/gyi60+akn6cjK5U3ev7GR1t71dTybHNP8M6pNGoSspnSHF87iLAlYFjPj2MOWGcZ7PHf8Wcf6BN83FG3IBdSvwlE0+JYUJrICvpw/cPcdtOlXj+JZ5DiUpw/2K+nGp/P9fjrYQenL3p34naiVcewBpYyoZwphDHxY8hcN6kXpmYXBiqbWF7eIO5uQsZTL2N9INQvFsT5bkONfdpnx4axrPZeNm8fKOQFLtBFigUpfVYuiQZiv1fpqoNYno9z5KNug+RIeQjKuPbHVzp+lB1mP2E/pNlwPyG+sgc4BH4oGYf5p4zPRtSSZ9RbaJeXq3y/ZQKlG1uPJt5f/vIxj/8HPHySuB0JSNGjoorgqA4EhWIltsWOjjU/SmSbT/NK/XwKbW21W5ez813Xt8D4ePBCUP24B7uJQNAiDeWjc6sUtX7hylKjWSGuqNQqjQNkw1Y7nKubzrrRrjwtkNe6J7oF+SNPJXzRYpEEbsHAbz7QYjP1DsutEXcxcWBTSDCIHPLWVOSoEimI/SQp1WFwIhTqyKw2iaBDmwTS+mCnmteObkqyND3uDOCzlFADUx81Pyjpxi8fX4qOQX2lwIYoGYbne78ctGmeb2BukG8MrWRtfATa7xhKH4JwCgKxrDZE5yp9ahSreMFwPsE43xhPDzi7Ta9EIC2188o3hRdfQqXMo7LfEqVoMAOjWineUs8+/pHciNaaYVocNQP7xxBOiJi3F9QDsRNcQ7vflMm4Hn1hlivZwrPHmB16LBhj/GTndYgCQdSw1jJO6eDRxH6QApRf54MEs83A6CGX/Pt/v830wvgV5bJCp0wyeJwLHf0atnLfPo2gxAOgXNbqG+aFN5yEe0BSQ3gYaOk0NUf9veDdBHsNron9fpkA+SNP4yljzdqZr7hYDgISm1eD+BJLDoVEA0zRRALYIJwgJ9flNcSeMdS7LVZ5GE1itD9/quQv+qq2zBrw5BQBjbAMP8hTJYQOtQSGwYaYhPh6s+yDX9Vg0jOt6NKxnmbJ10zA2PJexvyLbda61n1MAwKdenIjOoilgYnPBICKYHwv7cHUnVxcPd2jMhchXzhnrgTkUtuYUADRpJBuIuM52v+LYNA664KFQDuNs2MI41rxfTzxcx9EP2TmJdDx0cYpdjOA752+AO5x65HgozTkASJ0otMBDPndl8bRqM6fICxbs0wiLiszE9YBfppoJqe8+cPxSDeVBUW5+xhLo+Qa/eQUAJ4MAvJTcREVGctEgsgJSG9eCsPNJY82XpR6Hi8CQeZPHxFCeGoh15atcydcjrTrM5BsAiOIoS8eGl4fqEgtSoGhQ9usBTXSJQHK4NK18TVduWHeyyHWPi5q0CFdreavY8vVIIdNuWxUAnCyMQntgnkWD1ZYInqA0KPf1wBBojhctmOb5HRjvLcvALk3IsOMwmf9V85SY6YlQXasDgJMCDPwC8VJaUzRoip5zbAQyTx3ThdocugcKdPzxJseP6zQJAmRNE22ZGNndOptR7e1Y+4ICgP9MWTLQJoiiQRjmjhch1W/ixC/TN4Cscescf8wqysA6TwIA8YJVTdx1o0AQRYOws18PcJETTj8tF/eJu01kyKTQ0JgismBY162Vou9fxHkVngUAze91ZmGDK1BpEEWDYVAzmx7Dd3K6Tj+K++Rok4WKZkGZ4RINqvI8ADhpXAg1vwYvE0qDsJbGlk4OeeaM25jG2Ej1y1DNjzR/4XoWfUs4hbZoAcBJG2VjQXhRNMgno964HpB4CJFOdSGbX84HBNYVQVdM8LUwpkAqO5B6FkUPAE6mhEYiEPAsNTQIRYNS6wmMkXwaISsoDoFOf+BtqKXjurfAg91Yu7xtrSUJABAIFOH0hPHEKBgMWCvfBJHehOMPeoA6FvMwCh7UM9InejAlDQBOlXw0hBPDgvCmaLAUBSOw8gmmcJ3A0gBmrPi0PxziV5C8holsid8yX4nKSrUsAUDzYsFZqBb1xGbXWCKwwoYlp3GLKL9fVhn0c9Egj2zlqYm9cdoPvA0xDahaFmg81Ki/T69te0YiSlkDgP+ccpqmP2HBeFNVzX3UfXRsYPIWDTYV2PohGMicON3wlRQm8slSh2LQQvTuF1bYx3uwzzu4fBMAvLWx6VwNbYieYCwkD4QkYhYNRtGg9Bs2F2RxirYU8zkyJ4SrWPiLT4ioQ0GaH9ZkCwNWm+W7AKB5upNPOPNRZepZ4QlH9VBXC0E/tq7RYNOgcbZJ02KWqLVpbYsWD+Dh8ays5jYmaogOFKhVSlbNf2J4FVRcW29crDssgJotvg0AmhtvZjNRJ+DRCElLFJT1R1YglEItLM3K3xNvVtyDz105oyxDBNsjbENMqxxoGuI0CGEeibNGKsZXF5wJc2wRYAd5lksgAoDTUlS4HvCmWKvaohEQYoHBQqU8OSlkglNFu9+XoN4lUAHAKUUqUfSiejlnnVXoUMAFg8laza+LLCrS/AXc7zu2yJrIlBkLZADwloiBdrJNBRkBr1JaM6tNqLTBYJK0jbLDWoA0f2H3+9WmKLKVcSZLoAOA5tbPwPWA19EuD/boiYIvGCxgaX6NJkaR5i+002VKzCrqKF4EAMW8HsDi96ho0KapVWagC11gsDDYYJHmN0UmD3tX669DWUMlLCJW0gUAzbXUT957YWF7Y/OEhjX6vmEw/6T5m+arIM1f4N5WY4kumLDtbdIGAG/vHpiIylcPq2CbRGAw2AUGK49xwe4EkeaH4y9UKI3bXkPbDhqGAKB57yv3PENcyEMJ2JMFMtiUYbCiGwsxTYc2f8FtfE0HGKynUAUAp9yX8YcUQ1uMZ7Ot4xaN47szKA3CYJ5fZ3J6el4N9pnCZXpNCFwhAHhbKq3KEMUf+Ei8yQoEXR0LBvODibkoUZMWY28qbAxvtSXkjpGlRABw9mIaVaORli5GmeKj8cZYg54lZqEdD4PlbgMMnabFoM1faPcSS573M7CeEAC04gOcgusBT+/cJlUZQqsBHx0MdmYbbhpiqAz2jAKuIqFfggDAK+PhKeNsQ9xv4+PyxmZXB3NqFgxWlD1G18TUxkWQNS9sXzkxjQ9rCgFAUSSHudIdksPe2eK4FSrBDRjsFOVSXRcjltO43y+o3mgqJpsiACi1pgCmaXn7EU+PmTQI8wdgITAxuwRp/sIODw4fHgzqhTQ/AoByFg1ygdt8XA94VzRYY6NNByblXsFDeRZiryhsfHmNRcMxvhwBgB/FObj1DR+pR0WD7okKXlwPwAJsrJSJoTyFG++tA5AhRAAQhL5dTk0tRqTvaXHPcAsfPyw4xtKyQmQMjr+goTysgdAHan0IAIKo3MUVqbNRNOjxvR82BJh/v3nWEZmH+/0Ch/LYoRzKgwBA1mpfQ2sqGsTH7V3RYDWKBmH+aRVG1q/Ab9pp+qahHooAQN4HfWIQEcZ2elk0CG1vWPm6gdDGV2CaP24LGfY+0AQpY4Gq2hYBQFmKBjHRy9OiwZgpNmWsL1hx2/h0MQET311hEuEjLZYIx3oqpyUiyjaqqPgvBAAoGpTG5lSbNMyCIhjMw1OS1tTyi+xdoXofliiQxJrySQCgai9VtAQCABQNBldp0IDSIKygAL2OJ4VCpreAOSAWTRDFu/gOfeb8jycVxUYA4MuiQQNFg56OJzbFtQvWFywXY2nZqZjGV5BxtmQkJoH61pKK9nRFLiAAgNIgxhPDwmA8Mx5ZuMJsRsyiwQi2/e38I8rkF7t0eRcCgCAVDVbjROLleOKJVSgahDVdv4lAG/37BX5PBvWFRkcQLP16++jHKnIFAYCP7iQ1ncZFTTHzGhuPN9cDXNE9FIVJIe3fN2kxvqWC2nBHQbQnOBZRFnePRC6syIeUokTw8Pxnwyy0I3lpi+IWjeUJYzjFyN+/X4X+/UJsZrVJgxE0B8sUZVxtZeX/VOTLExUV56VUbRMeon83tIkYT+yZpTFjXE59fkMX99O4Rivs2qwvrs0CaOpfc77zPxNcMYiH6PdeZV0oDUKL3MvxoybGj0qQKZuLwr6Cqvl5lDHUNgPZ6rczpWm3VBQKpw4SEW0zHmowbIBhoI3J08lkTYOIoCkQrMI+CPcUkua3RJofwW9gbVTSMDpUeEWtolyfUrUGPNhgFTrxvfYibISeagpgaIlP521oGo2zoaxZiKQ20vyBt11JVb2nRYnfVgUBqvp9POAAnoi0ph7nmUiFejq2VOiZY335oDtGozrUwRSY5sdQLQnEfVJ5V/nnXQ+gqj9IqFojHngwra+mCWlOlujE5ufRRDOWOsVgk5Iby8tOQkV/QWl+Hm6ENH/QhX20hSlFuaqiVCQi+s0pVduPhx/sAScjLZ3moGjQM+OZ5pAcLkEQq+uiUwM1Lq3rcmGpcYhgSVDkx3V5ivKdPhUV76goNclKI5ZS1aV4ERJon5+cbY4N0qPrgaZxpzhZeT0n44QiJk78edtCx6YxUUPUSWAtBd3xK/uSqvqrPrHYByvKyYvt2r0/FdGex0uRpYhKpzG2QQtRROVR94BNdZhI6InWBRdfwvHnbywWNgTV/LJo+B9OqupzCU1rU+EnUhH9U6mIshwvSZ42Km4Bmg7hFE+7B/ojEMgz1a+JVD/WUJ5pfseiyTFTTBbFOpJjP2YthkXVxtGsY/ep72R+rq5bt3f6Kgjo3aHD+1Kq+iRHKXhpEhVacYV11BC98NhcCzeuucDsgZaL+yZDx6JVctZjuJof0y6lqdPijOwZZ7/EzTezjvXbrGOpvgoEEpWValLV+uAFyheFDrd0mo2iQc/uZEdjNPFpHSpT4PjzNh5hzIqHtbjfl+MqVm3Sb8llUFXatRszcXto1rE+SxUV5/kmEKiN6FckFGUKXqiExVgnTmgoGvRCY90SGZZeId68ee7CtBgCy3yr+TlY6odrJan0LCZUGaJ2qFVXjXF7acax714Si73bF0EAqxElVfXGpKrOwwuWU3lttJiljg3Zi3tb7mnvE6INnetMMNEy3zS/TWNtM9QBo4xtrV7qWaRde33Wte7zVyAQ0b6UULX5eOFy2kDTEIVu2KQLNz4ND5BUT4DvNXlo1Xx0muRdO4LBVPK1Xxd1z4ybq+sd86tFkQVuZSBw3khLe7ivpm7DApA0jaXrNF7MH8Cm7c2mL0cgwK18E6qgQJlv9wgP9RoAcSn5Ml8lrKXKuPbETNy2y+b4l8RiH8261o/Trp15q3ClpkmGEgtCXhta4oUuq/FwG64TCNqQFi5mYkEkFI62ZvqkQb1RICpVEfUIu3yZr7RrH8449gMlzQZk4nY849ovp+P2wbP9MH4g/GCQ2pJbyGUShrV4ciKcU20Kp+pXRTf+jrkina8x0jjt560gOQJpfqmsl88mVGZcu9e6rh3eV9T7/qxjfTobt0ble8oZix5WyftadTGnfR5OhJ4EAzNPBAO9tfJvcuy4eBbCUrybvN8jPzeMmJZPxEoU9vlxzTn2GM+DAHb86U7Ra7OOOdULFSsMq5C8aNA4Ie8KJ+CJE5kXt0QLEd8vFnusKwfpLC87scoQ/y7eYevaP8UUSexz0u1rMwIwryLj2gkPU/3RLtm4Od7rTW1GtUWDUScgfe/rONsUKmZwDJ5F+GLGO8vosjIc19pw/UC+qeWeJ3r0h5mGuJPmgG0hrnEKMn4v3AUBASiJ7vc1TXRoBG2yasaxbyrI8acvjX4s49qvsBpRMX8o1wlw6rgHFpvUH9FQ9IUXPVOwJG4L3Ya51ZZ41hxk84llpvjfFs2tscQwKIg8eWszxWEG9/uy6aCMCfLhxTGnttr517vml9Jxe2tJq2PjNtWxWApEMKQXxuCWsSU4bcIkGMqD60z59qeJVcGvdxEywrb9oXxb+t6dcex/lPvHc+HMIBTOSF80yEVuKBqEBUqtz7GFljsKmuWyQQG5388rM1WlV+fs/Fd20T6SdawJ/mqdsdFGGJLimqkoGoT52ObWmEK4CXuRXMYdLvMkrFHivbSfFq3JyfkvcJwPZFx7hn/FM2xRBY3rAfn7ascKpUFkBWD+KLhskm7GiGe57vd1UZy8WOJ9hosWaytNLacAIOtYtUH5w3A9EI6iQW5F4+IqOCJYWQ4caOOTb9KpodFkMZhH/n2Fu3tyCgDqXfPGoCprNbXcYGGjaBAGK9y4Q2I0OpIklC3XRRdMWNYx/63iIJVLAJBx7UlBF91g0RJE62EpGoSjgnlrs6stkXHC/b5c+8Vo2xTaDGGbLdL7hC9sMQDgNoFi9/mX8r6O5VO5HxcfgNw2wITSIKzwIqkpMUuIIeGbksf6nGzjC2HGkP/m/kazq9SWAoAFTrRGVkUuTuX1xAcRDqVBXA/A8sgY8vTF3sgYytVJZBo0PWZJ1caXr47O20dLtxgAjDKVq6T+2F1bDG3ohyhfeuMpdRhPDDunTK8NmV4Zx/CGXUuEa1fOJEjVYgCQ0LSahSG5I2HnMAx9vCEZT2xgch2s6X6/xhIy1PjuJcr86TrVRU1ajMyfuPY+myhVTgEA912HSskrbom0cS90D8jd66tq4hpoPooGw9m/X22elhKFBbz2B1NGT6lh4VkF5wpscwoAOCUWRuEVfoCsPgeRjxDIfJq60I/I4MQgtz6/a4uWUXQEyWWswMhKjFjj/2mB75fDGs8pADgpxRrqBxq3RIsZ+n8lrxDWNFEABk0B+VqfOJOJrJ5cqqDjojyND+u7+aF1XDT366ycA4CTmsihVwCLNymA9cUJQv7ioQDO+Ia9bZQ4ZoXIp9an6zQlxmp9WN+nivvk75fyCgDY+BSM+5WmO8QZQhwEgUAY7hW5HxzrPmiFfSjolSkg5wLtOdVI85+pwp+fTauea74BABsrYoVBKznnF+A0FVtg/Cc0BWBlngOCwTzSpfl5b12I4V9nFPXha61CrqVbFQA0DU3QaT7So6cWGDmWSE1BOSwEmgKmIU6ZWPf+MP7u3sC1HIbyhOSen7VrvKhnaXUAcFJLmV8SXsqZRy3yHTJSkPLfR07m+0is+TIE3E0bISr6ZRrKY0CsqwVpai/Xe0EBwEljbX3MZz/72NA6bFLypyp1TaTjcD1QmlY+/qZ6o6JfDj0OTvNHDXGVivV9Zsc/rUgZLk8CgJPZAK6OxwvDICJcD+B6oFh3nuOjqLWRS5ET2bNz+YypVcW92vIsAGheGzCzGptfS1WbY230JMtuPHWLP2B0DxQ+r4MdP74XOYw7p7hlDd/F2U/8fLVeilZzzwOA5tcCmMuOokFYU/fA+KgBXfJWfB+c6ufrFawjOWS3Uc1/7kCXs+ilnEJZtADgZO/mcBMvHUWDsOaTyebje2ixuG9ilYE7fgms74k0/1IEv2dXqXTsss2eKWoA0NxGIPrLuWiQo0AUDcptg01clZ3pxC9OQHD8UqT5eX0jzX/uq+CRdnnl5UsWADSXE4Z+AJQGYf8phJoa8lbapY4lrkiQ6g+2cSE4p/kX4KB3Tpt7cvy0DwLdkgcAJ1OhQzG9KS+lQW4xQ/Wz3EOIJkbDJXzCJyB2GD2wrgOe5m9au0jzt6xSOdBn9V6Jykq15AHAKWNYDZ1mxBAx5no3yqdFzDCXuSdaF9O8lkgcCHCL5DC0w0pyjYUR2i1pVkyu8q9KZc9IRClrANA8Fdok/YhFk2saCeOJ5S8YnCfJdRlvhFOq0PEiQ5p/FBeyosOrxcK+8QEYP+2bAKC5ohpXRC7GPVLO44m5YrovCqcknkZoiMxPEINj7m4ZhUA1+FdUui72maXQ5m9x/HSQDma+CwBOOQFZBs1DIJCzeASLawxBalVqyVTeXPyuMshFvnz66YtOluCn+U9c0SLNf25r2nuDt959GwA0Ny6cmA7lqJxtkVAahHKa7EWDrJ/OwUDGJ1dSnLnDRD4Z0vxaU5ofh68chvOYYiBYYA8VQQgAmqehJohqUyzMfIZIDMS9q/SDiIZbutiMFsZLs7a41YtrdljoC4Em0vxh02rhDJcMehWBCgBOK0RBhJqzcTHZSLRchUN6WNdpmKVTXdSgGdWmaCNtbQqX2xL5O5sWs0R3Aqc54fDlskGmLlrUkOZv4WorLl/hdSADgLcvXrQR5jdRbVIVUrVhPeFxQSFrcIy0mkRb+BphjG3SGNsQxXrDrSYnz4OMeiFYlDfNryLNn6uxouFgSQXZAh8ANNec5vTVEkSxuReu+EiRCgaDlaZ2hK9Rl8Sx/7WkuTI5Jv9BSZoAoPn1wEhEtnkWDZ6808KJDwaTMs1/opAa+10Le2HIVFelCwBOux5A90BeRYPTY6Z4btg0YbDgi0nxnTXGsuemVzHMCl8LtdQBwCndA7geyFvQYrRtijne2ExhsCDtdxrVYb/LuUsqzNLqoQgAmhe+CHlVXA/krWXdD0WDMJivjdt9uVsDGc9c2vhM0S0TenGxMAUAb5dX5egPH0t+aTLu+67FZguD+WdmhGUIISbsUTm0QkOWGgHAKSIqJ6avLUJVbB4RtCVSjH3QPQCDlW3f4sLdxRDtadG4TRx1TQgAWoykeUTpHFTK5vdxVZs0GPMHYLCSWH9dp6nIXOakdzKhysQ8CgQA+Vu/t0YTI7rO1RaK+QPhaZ+BwUp2ONE0IdA0B2n+nCSqWeAKaX4EAIU/HE0Ti2kBigbzko5lTfr+iLxhsMLS/LomhnotQjV/ztP4UJ+EAKAo1wOc5p6BCtu8J8Rx1wU+ShgszwxkzBRqdNhHzn3YgKw5AoCSawrUVZnosc2naDBuC5nmvjrWDwx2NuMZDbOrkW3MZdz5GIw7RwBQdk0B3MvlLbzBgzWGoiIXBmvagFVNDGRaiANFi8bBEU+5xOwSBAC+q8zle+80PtL8igajhrjnxBqChc24Op3T10uxF7QoRCZqigwcGhAABKBoh1NTC6EpkOcHbgkVM6whmOw22NBpJuaT5DSUZ5xtIM2PACCYRYNDxCAiXA/kpdQVP6HUhY8eJtl14SgLE0pzSvPzUB7oiiAAkCfVh/nb+Yt4WDQRIh6wgFtvUTCMoTy51AZNrUKaHwGAzKcArWkQETS789sYuL+Xq6PRSggLig0QQ3mQ5m/JFsctGsdDeZDxK5slNK0NAoAybBAc8WKDyK/1Zyxaf2B+lxJHgN+yPki1RcMR1JffIsoWqqj4LwQAZS8axKaR9wxvtBLCfKIWyt/wInzDuX23SPP7xpKK8kJFSyAAQNGgf8d72qK4CkWDsHLU9qCNL7fJoTy1sDdmhPjt9H+0p2HoCAB82B+MokEUDcL8aQNPSoKjsK9FGXAeYIQ0v09N0Z6oyAUEAFAaDFrR4BC0EcE8ztDxtzgP32KLNq2a0/z4/vzt/JWxdd26vRMBQNCUBnHqyK9oEEqDsILu93UaZ5uiWh3f1LnS/DaN52p+ZOCCYAu6RyL/XZErCAD8tSGNsQ0UDbZCaRDFR7BcjafLTa4yxbQ5fEPnqsFh4S5dZCuxboJg6txayzq/Ih966npHPDj/pSQxnhjjiWHe2iATMr0tXrM5TdX8kO4OXNp/6Cu2/aGKfOE+wZSqbsBD9KfxeOIJUBvLO2XJhZZ9kLKEqZooVsP9fssjvXmf6YOOmyAW/D3Vp6LiHRWtJamqv8KD9H9WYDiKBvM+zfCJbzCKBkPZv881IosQOOeQ5kerbVCFflIR7YaKQkkaxoeRBQhQ0aCBO8x8bUHcEvUVPbHRyZ0x0zTRMor+/XMHxtNjJg1Cmj/I9/0DWpT5zSsIiOhXJ1TtOB5ssE45o21TODdsbLkXDXLw9AauB6QLiqHPjzR/GE79SU27vUWJ31YFAYr2TTzk4BY4TecCJ6Q8cx9NWt00mrQWG2Jgja93ZkFh85w2H2O4A28JVWtMqeq/enfo8NGKYsJBADIBQS4a1ETPLnqb89AUcGzRD45BRAGph9E0Gm6isK8l0awZ1UjzS2LTX9e0SypKRVJRrkup2i48+GAXDfLpdjZOR3ldD4i55bge8Kd6prjygk5GS7LZ6ICR5tS/htP9T1RUnFdRaniQAAsL4EUE3/oZPNjEQGFUXpoCJrTOfWKcmRkXRStsi2l+m9P8cPwSOP6dKUV5qHsk8t6KctInFnt3SlF+l1K1BrwYOeYPjLINsVlg08zNFotpZ3w9gI211MYT5vg0uxSO/6zGYmGDMDpbDscfUfZxT39eUr6lIKEolyciyiK8JHlsIKqmMe/cx618PIo3jXV3ljS/TROrDEzHlMf2J1X193nL+JaSF7t0eVdS0X4mohS8MInSq00DURYhK5CzsRjTcIgLFUX1cjKC0nNqWYzian6sFVla+vakFO23vnb8pxUIVla2SynKv5vaEvASZaqsHipaqkxstjlPJLTF3TS6Bwo/8bM2Axz/WdL81RbULOVK9W9LKdpjvkv153kt4CZVbSReqHzGqUVOMS6F0mAeEwlN6oeUbH53/LouUv1w/GdeU/xskOaX6sS/NqnoP3yxXbv3V8hCraJ0S0aUyXjBcrZd8XS9uei3ztlYlGYIirJaLO6bGGUpa6yXt9tCx4ZktWSWVJQlCUX/Bl+jV8gIyxImVPXahKJMwQuX07j4bSoKs3Jvy6qxxX0t2ghPFakSxX1w/GcJHLFepHL8qjahVtM+VxTZXr8GAjxTIKUoY7EAJC0a1DUaY5vipIKNO5c2QtQJ8NyFKSjuOz3N7zTNpWCdDuwt8kj2JhWlH3fOVYSZWl3vklS1PigWlFdpkFPdM1E0mFvrltvUusWn4DC1ms7AfIozFI9aYlRxT2hLyGQHUhHteRbQqwCnKgomFe3v4gFhkUjbvlVXZUKpLUc9Ab5KkblgkFsk50KC+ozto8NQzS9ZRb+2Oamqj77ePvoxePtzwA+IH1RK1TZh4cibFWD5XGz+ud/7DrV0Ke59OQjEEKozB3xTYpYYV4w9QqqK/sUJTbtruGG8B949D/iBcUVkQtXmYyHJa/2Npt7uNFoJc0oJc51A74BlBXqIgI+vgSyk+d9mS4SEtAEJafkK+0bysLzQFPYVu2AwqaoDUScg9yCXMVFDqJjBMeSSFTBFCt2vQ11YMIpFabioD1c+p9u8Glu0zqKaXyrhniMpRXs1oWk18NzFmzz4bCqi7MWCk9cGmzpNj1moBs+pQtyi6dVNEwnL3UHQ84RKJKeyl8Txbs6U5udix0FI88t12o8oW5Oq+qseqtoWXroEvGLbH2KlpEREWYYFKLf0a13UFGlSOJDcHAwXkHFKmZ1MsU+XnH0YbDTd6c+uQcDW0lCePlDrk064J6Wq3y77ON6w8kRFxXmpiHZDSlVHYEHKXjSoC+cGh5JfQMDqjFxjMdo2aKBpiKCqNc+fe/S5nZO1Hbg7AaOic1Dri1viuffENyxZD786HPf7fhs+pCg2txFiCqHcxm1xKBosPDBY5Ng0L27RrBpLzIrna4RpJ/4vazbwiZ6dPN/f42SfZ31GDdT6JBTuOZhU1X++HolUwdv6mD6a9pGUoj2QiijLsXDlNb5v5tMVigZh/mnjM9HGJ5/j35hS1UfQv4/rAZhfiwahJAcro4Qz2vikFO6ZmdS026UdzBMqcSFVtZKq+hy6B1A0CIN5MsQpbtFIyxAaB/j2pDntH0+qas9kJNIVXlPW7gFV/UFK1dJY8JIXDZoGigZhnhvXRwxGml82x78jpSi/SxpGB3jJsIgLadpnWFwopWoN+AhkVhpE0SDMg2l8MVN0QuCbksnUpbWKfu+L7dq9H14xrOJCkYiSVNXfp1R1Oz4I+ZUGF6JoEJbr/T5LL9umGG2Nb0iq+/0htap6Ddr4wFv07tDhfamI9q2Uqs7FRyL39QBL1GI8MezsMr0WjbDQxieZTO8+HsNbq2kmvB049/VAJNI1oSi1qYhyFB+P3OOJJ0RNWorrAZi437dwvy+faM/KZET7EbeHw7uBvGBtZzGaOKKsx8ckr/XQNDGYZR6uB0LZv8/3+/0MfAdSmaKMSyrKF/pUVLwDngwURF23bu9MadotvKjwccltAw2dpsZMqN9Jr89viRkG6N+Xyg6lItrLKVWNw2uBopCsNGKQHJbfemuaKABbBHEhCfX5Td+OUYa1wiLK+qSm/R/U+kDpAgHD+HBKVe+DpoD8Nsw0aHY1rgeCbDwUaRgX9mlYzxKl+acmFeU2qPWBshYNpiL6p1KK9gYrSeHDxCAimL8K+waZOO1LdNo/mlS1xOuadgm8D/BbVqBDSlV/nYhom/GxyjyIiMfisqYAHKwvC/scW9Rx9INwj0y9+5tTivZE90jkQnga4Gv6xGLvro1oX01GlMn4eOXWFBhq6uKUCcfrA8U+16ZJVaZo78T6lOXEr82qVdWv854KzwICRw9VdVKq+q+Uqu3HBy2vsUwsO580HHEZKvptmlCFiXwSifYcYx2WhKJcDg8C5MgKaNpHUor2QErVsvjIZb4e0Gi0DcnhUrXyjROjeLHuZLBkRNmaVNXf9OjYsT08BpC2aJAHEaVUtT8GEcl9PTDE1GkWJIc9tyWOTWOjBvXEOpNlKM/chKJ/o3sk8l54CBAaeup6R454UTQoefcATySMoXugYMcfb3L86OGXYgQvd0z1TmnaxzGUB6BoEEWDoegeYAcGcaHWpPpNnPjlOO1vTyra09wxhZ0fABQNhvJ6YLil05waZARaKu5jud6euOOXwRYkNO0unrqKXR6AHIoGk4r+w4SqZbB5yD17YHoMgcDpOv0o7pPAGlggLaUoVyHND0AriwahNCi/9T2hMhjmIUSL4xaNsZHql+B+f0dSVX//uqZVYgcHwCNe62BelFLVJ1OqtgkbjaxDiHSqqzJF+jssjn9+jU0jWacf7z/o/fuLkqp6z4vt2r0fuzUARYKHX9Sq6q1JVZuAjUdePYExkk8jZAXFIdDpD36aX1UHJCP61UjzA1Bieuh6NcYTo2AwSK18E6pMceWB9xto25VUtT8lKitV7MIAlJlXbPtDSVX9QVJRlmBzktP6G5qoE1gatOE8J077HMggzR/4Nr6lqYj2vUTbth/ArguAzxBKg6r6yYSq9mJNbWxY8hkL4Qy3DKEy6Oeiwbk1lpia2Bun/aAX9TWmVG0QK5gizQ9AQODRmSlFeywVUdZjI5O1aFCjUbY/ggH+92fVWGIWAibySTGCd3dC0f5cW2lq2E0BCCh13bq9MxHRb05GtDHY2OQuHBxqNU0lXFCCYUTs8OfVWDSxyqQhpkE98A5ksTSn+fvEYh/E7gmARCQVxU6p6rMc3WOjk9t66RoNNg0aZ5s0LWbR/LjV6nkEPIBnbo1JU2ImjYkaNMjQockvWZo/GdEG16rqNUjzAyA5XMTDPbsJVZuPDTBkgYGmUT9dF8HBMNMQPfgjbYNGWYa4ThhhGzTM0mmgadAbug5hHpktouxJKtpfehqGjl0RgJAhigYjka6piJZMRJQj2BRhsFBYNqWq93H3EHZBAEBFb8O4IKVoDydVbTU2SBhMPksqyrBERP/sExUV52HHAwCcRp+KinckVfVGsVk0tQBh84TBgivRuy+lqn97XVUt7G4AgJzhFqCkqv6B53hjM4XBAnW/vzylaA8kDePD2MkAAK2meyTy3oSifyOlajOwucJgvrZRnMFDmh8A4H1WQNe7JBXtlYSqHcRmC4P5wg4kFeWF1yORKuxQAIASXA9U/k8yov0oEVGWYQOGwcpQ1CcKdtWf8reIHQkAUHI41cgCIjwWtGk8KDZmGKzIjn9CMqJ9iQt2sQMBAHxBT13vmFTV3yQi2mZs1DCYh04/ohxOKdqrCUVxsdMAAHxLn1js3SlF/0pC1SZi84bBCpLp3ZhU1V+wTgd2FgBAoEipapwLlJr6kbGhw2A52vTaiPbVF7t0eRd2EQBAoOF+5KSq/iClqkuxucNgZxTtOZZQlNpaVb0MOwYAQDp4/kCtonRLqlof3vCw8cPg+JVtXDvTo2PH9tghAAChgDe8pKI9zveccASwENqChKbdxUJb2A0AAKGE7zmTqvrlhKqOh1OASV7U15hU1YGpiP4pzobh6wcAgBOwmhkPL+FZ5XAYMIm0+femVPVZnq+BrxwAAM5Bn1jsg0lF+24ioiyCA4EFeATvCgzlAQCAVsBp0qSqfjKlKD1SEeUonAosGKl+dXxSUb4AtT4AAPCA7pHIhSlFeywVUdbDycB8WM1/JKmq3VORSCd8rQAAUATqunV7J2uhpxRlLBwPzAcyvVuTqvorDlDxdQIAQImojUSiSVV9DkWDsDKc+BclVfVutPEBAEAZQdEgrGSmKEOTmvYZtPEBAICPOFk0mFDVXlAahHnYv3+QZ1okFcXGVwYAAD4nWVnZDkqDsEKn8aVU9ZHeHTp8FF8UAAAEjJNKgylVrYNTg+Xo+OcnVfUOHm2NLwgAACQgoWk1nMpNqdp+ODrY6YV92pBkRL8a9/sAACApYjyxov8wpWpZOL7Q26GUqv6LO0rwZQAAQEgQ44lV9ZqUqg5IqVoDnGHI+vcV7fHehnEBvgQAAAgxKUWJpBTldylV3Q4HKbVlU4ryHfTvAwAAOAV2DElF+2ZCUebAWUp14p/M+vxPVFSch1UOAADgrPD1QEJRLk9FtCQGEQW2mr8xpar9k5FIV6xoAAAAedNDVdvyICJoCgRnME9C1V56XVUtrF4AAAAFw5oCtap6ayqiTYKj9WUb3+6koj2NwTwAAACKBo99TUW0l5vayOB8y+z4N6cU7WFu78TKBAAAUBJebx/9WErRfp6KKGvhjEtc2Kdqq2tV9fu9O3R4H1YiAACAslDXrds7U5p2S1LVJsA5F9kiWj13avCVDFYeAAAA35BQFDelaK8mI8phOGxPLV0b0b7ap6LiHVhlAAAAfAurzCVV9RfoHvDgxK9pt8PxAwAACBScqk6p6tdSEWU2HHo+ffzqSk718/UKVhEAAIDAwuJCKU37eErR3sDsgXMX9yVV9R7c8QMAAJCO2kpTS6nq3zCauJnjV5QVCU27C44fAACA9PTu0OGjSVV9lKfThdj5L+DiPqT6AQAAhI4X27V7f0pV7+P0d4iK+0bXKsr1fDWCFQAAACDU8CmYT8OyFgwmVO0gKyj2UFUHbxsAAAB4G3wqrtW0TyRUtVciohyTwPFnkqr6E77ywNsFAAAAcqBHx47tuU4gpWqrgpXiV/ayIFJKUa5Cmh8AAABoJU9UVJxXqyjdUoryb55859dRvClVHZBS9K9wXQPeGgAAAOAhww3jPSlV/bw4YUeULWVt3+MOhoiWTKrql1+x7Q/h7QAAAAClygzoepeUqj6SVLWRIvVe3Pv8HYmINiSlKA/xv8v/Pt4CAAAAUGZYM7+HrlezjG5C0f6cUtURiYiyrCk9n+cdvqotaFIuVH+dVJTbehqGjvt8AAAAIGCZgtfbRz+WrDRitRH9iqSiXJdU1RuTivKFWk37XK2qXpNU1UsTum70icU+iCcGAAAAAAAAAAAAAAAAAAAAAAAAAAAAAAAAAAAAAAAAAAAAAAAAAAAAAAAAAAAAAAAAAAAAAAAAAAAAAAAAAAAAAAAAAAAAAAAAAAAAAAAAAAAAAAAAAAAAAAAAAAAAAAAAAAAAAAAAAAAAAAAAAAAAAAAAAAAAAAAAAAAAAAAAAAAAAAAAAAAAAAAAAAAAAAAAAAAAAAAAAAAAAAAAAAAAAAAAAAAAAAAAAAAAAAAAAAAAAAAAAAAAAAAAAAAAAAAAAAAQKP4fxljUH1mrU0AAAAAASUVORK5CYII=;" parent="1" vertex="1">
          <mxGeometry x="305.5" y="649" width="61" height="61" as="geometry" />
        </mxCell>
        <mxCell id="mrAVVWmBJjdgPhhAWUY1-71" value="天津" style="text;html=1;strokeColor=none;fillColor=none;align=center;verticalAlign=middle;whiteSpace=wrap;rounded=0;fontColor=#000000;" parent="1" vertex="1">
          <mxGeometry x="337" y="700" width="40" height="20" as="geometry" />
        </mxCell>
        <mxCell id="mrAVVWmBJjdgPhhAWUY1-74" value="上海" style="text;html=1;strokeColor=none;fillColor=none;align=center;verticalAlign=middle;whiteSpace=wrap;rounded=0;fontColor=#000000;" parent="1" vertex="1">
          <mxGeometry x="460" y="696.5" width="40" height="20" as="geometry" />
        </mxCell>
        <mxCell id="mrAVVWmBJjdgPhhAWUY1-75" value="广州" style="text;html=1;strokeColor=none;fillColor=none;align=center;verticalAlign=middle;whiteSpace=wrap;rounded=0;fontColor=#000000;" parent="1" vertex="1">
          <mxGeometry x="568" y="696.5" width="40" height="20" as="geometry" />
        </mxCell>
        <mxCell id="mrAVVWmBJjdgPhhAWUY1-105" value="曝光数据" style="text;html=1;strokeColor=none;fillColor=none;align=center;verticalAlign=middle;whiteSpace=wrap;rounded=0;fontColor=#000000;" parent="1" vertex="1">
          <mxGeometry x="236" y="669.5" width="55.5" height="20" as="geometry" />
        </mxCell>
        <mxCell id="mrAVVWmBJjdgPhhAWUY1-109" value="" style="edgeStyle=none;rounded=0;orthogonalLoop=1;jettySize=auto;html=1;fontColor=#000000;" parent="1" source="mrAVVWmBJjdgPhhAWUY1-107" edge="1">
          <mxGeometry relative="1" as="geometry">
            <mxPoint x="455" y="490" as="targetPoint" />
          </mxGeometry>
        </mxCell>
        <mxCell id="mrAVVWmBJjdgPhhAWUY1-110" value="..." style="edgeLabel;html=1;align=center;verticalAlign=middle;resizable=0;points=[];fontColor=#000000;" parent="mrAVVWmBJjdgPhhAWUY1-109" vertex="1" connectable="0">
          <mxGeometry x="-0.2674" y="-3" relative="1" as="geometry">
            <mxPoint x="2" as="offset" />
          </mxGeometry>
        </mxCell>
        <mxCell id="HRStIC6tjPnbJ2IDVPFx-11" style="edgeStyle=orthogonalEdgeStyle;rounded=0;orthogonalLoop=1;jettySize=auto;html=1;exitX=1;exitY=0.5;exitDx=0;exitDy=0;entryX=0;entryY=0.5;entryDx=0;entryDy=0;" edge="1" parent="1" source="mrAVVWmBJjdgPhhAWUY1-107" target="mrAVVWmBJjdgPhhAWUY1-115">
          <mxGeometry relative="1" as="geometry" />
        </mxCell>
        <mxCell id="mrAVVWmBJjdgPhhAWUY1-107" value="用户" style="ellipse;whiteSpace=wrap;html=1;fillColor=#f8cecc;strokeColor=#b85450;" parent="1" vertex="1">
          <mxGeometry x="411.37" y="400" width="86.25" height="30" as="geometry" />
        </mxCell>
        <mxCell id="mrAVVWmBJjdgPhhAWUY1-112" value="其他模块(省略)" style="text;html=1;align=center;verticalAlign=middle;resizable=0;points=[];autosize=1;fontColor=#000000;" parent="1" vertex="1">
          <mxGeometry x="353" y="450" width="100" height="20" as="geometry" />
        </mxCell>
        <mxCell id="mrAVVWmBJjdgPhhAWUY1-130" value="" style="edgeStyle=none;rounded=0;orthogonalLoop=1;jettySize=auto;html=1;fontColor=#000000;exitX=0;exitY=0.5;exitDx=0;exitDy=0;" parent="1" edge="1" source="mrAVVWmBJjdgPhhAWUY1-113">
          <mxGeometry relative="1" as="geometry">
            <mxPoint x="691.5" y="676.25" as="sourcePoint" />
            <mxPoint x="614" y="682" as="targetPoint" />
          </mxGeometry>
        </mxCell>
        <mxCell id="mrAVVWmBJjdgPhhAWUY1-113" value="" style="rounded=0;whiteSpace=wrap;html=1;fillColor=#f5f5f5;strokeColor=#666666;fontColor=#333333;" parent="1" vertex="1">
          <mxGeometry x="687.5" y="649" width="135" height="60.5" as="geometry" />
        </mxCell>
        <mxCell id="mrAVVWmBJjdgPhhAWUY1-123" value="" style="edgeStyle=orthogonalEdgeStyle;rounded=0;orthogonalLoop=1;jettySize=auto;html=1;fontColor=#000000;" parent="1" source="mrAVVWmBJjdgPhhAWUY1-115" target="mrAVVWmBJjdgPhhAWUY1-119" edge="1">
          <mxGeometry relative="1" as="geometry" />
        </mxCell>
        <mxCell id="mrAVVWmBJjdgPhhAWUY1-115" value="埋点上报中心" style="rounded=1;whiteSpace=wrap;html=1;fillColor=#dae8fc;strokeColor=#6c8ebf;" parent="1" vertex="1">
          <mxGeometry x="715" y="395" width="80" height="40" as="geometry" />
        </mxCell>
        <mxCell id="mrAVVWmBJjdgPhhAWUY1-117" value="埋点数据上报" style="text;html=1;align=center;verticalAlign=middle;resizable=0;points=[];autosize=1;fontColor=#000000;" parent="1" vertex="1">
          <mxGeometry x="568" y="420" width="90" height="20" as="geometry" />
        </mxCell>
        <mxCell id="mrAVVWmBJjdgPhhAWUY1-124" value="" style="rounded=0;orthogonalLoop=1;jettySize=auto;html=1;fontColor=#000000;exitX=0.5;exitY=1;exitDx=0;exitDy=0;exitPerimeter=0;" parent="1" source="mrAVVWmBJjdgPhhAWUY1-119" target="mrAVVWmBJjdgPhhAWUY1-113" edge="1">
          <mxGeometry relative="1" as="geometry" />
        </mxCell>
        <mxCell id="mrAVVWmBJjdgPhhAWUY1-126" value="" style="edgeStyle=none;rounded=0;orthogonalLoop=1;jettySize=auto;html=1;fontColor=#000000;" parent="1" source="mrAVVWmBJjdgPhhAWUY1-119" target="mrAVVWmBJjdgPhhAWUY1-125" edge="1">
          <mxGeometry relative="1" as="geometry" />
        </mxCell>
        <mxCell id="mrAVVWmBJjdgPhhAWUY1-119" value="消息队列" style="shape=cylinder3;whiteSpace=wrap;html=1;boundedLbl=1;backgroundOutline=1;size=15;fillColor=#fff2cc;strokeColor=#d6b656;" parent="1" vertex="1">
          <mxGeometry x="740" y="510" width="30" height="80" as="geometry" />
        </mxCell>
        <mxCell id="mrAVVWmBJjdgPhhAWUY1-120" value="实时处理" style="text;html=1;strokeColor=none;fillColor=none;align=center;verticalAlign=middle;whiteSpace=wrap;rounded=0;fontColor=#000000;" parent="1" vertex="1">
          <mxGeometry x="687.5" y="649" width="60" height="20" as="geometry" />
        </mxCell>
        <mxCell id="mrAVVWmBJjdgPhhAWUY1-121" style="edgeStyle=orthogonalEdgeStyle;rounded=0;orthogonalLoop=1;jettySize=auto;html=1;exitX=0.5;exitY=1;exitDx=0;exitDy=0;fontColor=#000000;" parent="1" source="mrAVVWmBJjdgPhhAWUY1-120" target="mrAVVWmBJjdgPhhAWUY1-120" edge="1">
          <mxGeometry relative="1" as="geometry" />
        </mxCell>
        <mxCell id="mrAVVWmBJjdgPhhAWUY1-122" value="实时曝光数据收集" style="rounded=1;whiteSpace=wrap;html=1;fillColor=#fad9d5;strokeColor=#ae4132;" parent="1" vertex="1">
          <mxGeometry x="697.5" y="669" width="115" height="33" as="geometry" />
        </mxCell>
        <mxCell id="mrAVVWmBJjdgPhhAWUY1-136" style="edgeStyle=orthogonalEdgeStyle;rounded=0;orthogonalLoop=1;jettySize=auto;html=1;fontColor=#000000;exitX=0.5;exitY=1;exitDx=0;exitDy=0;entryX=1;entryY=0.5;entryDx=0;entryDy=0;" parent="1" edge="1" target="mrAVVWmBJjdgPhhAWUY1-129" source="mrAVVWmBJjdgPhhAWUY1-125">
          <mxGeometry relative="1" as="geometry">
            <mxPoint x="590" y="870" as="targetPoint" />
            <mxPoint x="850" y="580" as="sourcePoint" />
            <Array as="points">
              <mxPoint x="850" y="760" />
            </Array>
          </mxGeometry>
        </mxCell>
        <mxCell id="mrAVVWmBJjdgPhhAWUY1-125" value="TDW" style="rounded=0;whiteSpace=wrap;html=1;fontColor=#ffffff;fillColor=#008a00;strokeColor=#005700;" parent="1" vertex="1">
          <mxGeometry x="810" y="530" width="80" height="40" as="geometry" />
        </mxCell>
        <mxCell id="HRStIC6tjPnbJ2IDVPFx-10" value="" style="edgeStyle=orthogonalEdgeStyle;rounded=0;orthogonalLoop=1;jettySize=auto;html=1;" edge="1" parent="1" source="mrAVVWmBJjdgPhhAWUY1-129">
          <mxGeometry relative="1" as="geometry">
            <mxPoint x="454" y="720" as="targetPoint" />
          </mxGeometry>
        </mxCell>
        <mxCell id="mrAVVWmBJjdgPhhAWUY1-129" value="历史曝光数据处理" style="rounded=1;whiteSpace=wrap;html=1;fillColor=#bac8d3;strokeColor=#23445d;" parent="1" vertex="1">
          <mxGeometry x="393.87" y="745" width="120" height="30" as="geometry" />
        </mxCell>
        <mxCell id="mrAVVWmBJjdgPhhAWUY1-132" value="写入实时曝光数据" style="text;html=1;strokeColor=none;fillColor=none;align=center;verticalAlign=middle;whiteSpace=wrap;rounded=0;fontColor=#000000;rotation=0;" parent="1" vertex="1">
          <mxGeometry x="630" y="649" width="40" height="20" as="geometry" />
        </mxCell>
        <mxCell id="mrAVVWmBJjdgPhhAWUY1-145" value="服务层" style="text;html=1;strokeColor=none;fillColor=none;align=center;verticalAlign=middle;whiteSpace=wrap;rounded=0;fontColor=#000000;" parent="1" vertex="1">
          <mxGeometry x="280" y="520" width="40" height="20" as="geometry" />
        </mxCell>
        <mxCell id="mrAVVWmBJjdgPhhAWUY1-148" value="离线" style="text;html=1;strokeColor=none;fillColor=none;align=center;verticalAlign=middle;whiteSpace=wrap;rounded=0;fontColor=#000000;" parent="1" vertex="1">
          <mxGeometry x="243.75" y="745" width="40" height="20" as="geometry" />
        </mxCell>
        <mxCell id="mrAVVWmBJjdgPhhAWUY1-149" value="" style="endArrow=none;dashed=1;html=1;fontColor=#000000;strokeWidth=2;" parent="1" edge="1">
          <mxGeometry width="50" height="50" relative="1" as="geometry">
            <mxPoint x="240" y="736" as="sourcePoint" />
            <mxPoint x="880" y="736" as="targetPoint" />
          </mxGeometry>
        </mxCell>
        <mxCell id="HRStIC6tjPnbJ2IDVPFx-1" value="" style="shape=image;verticalLabelPosition=bottom;labelBackgroundColor=#ffffff;verticalAlign=top;aspect=fixed;imageAspect=0;image=data:image/png,iVBORw0KGgoAAAANSUhEUgAAAgAAAAIACAYAAAD0eNT6AABaJklEQVR42u2dB5QkZbXH52HO7ynsssvudOXq6Zmu2mUJCyqLShARRZ6gKKggYgDBgPIQBFHBiIgoSnKhu2cjm3OczTmH7p7Nkc05h5n7zv1mF2fZMN3T1d1VX/1/59zzjue8w/ZUffXd+93v3v+tqAAAAAAAAAAAAAAAAAAAAAAAAAAAAAAAAAAAAAAAAAAAAAAAAAAAAAAAAAAAAAAAAAAAAAAAAAAAAAAAAAAAAAAAAAAAAAAAAAAAAAAAAAAAAAAAAAAAAAAAAAAAAAAAAAAAAAAAAAAAAAAAAAAAAAAAAAAAAAAAAAAAAAAAAAAAAAAAAAAAAAAAAAAAAAAAAAAAAAAAAAAAAAAAAAAAAAAAAAAAAAAAAAAAAAAAAAAAAAAAAAAAAAAAAAAAAAAAAAAAAAAAAAAAAIGGKirOWxKLfXBRPP4/6UujH1vZRfvI6kjkvVRR8V94OgAAAEAwnft/pS+OtsvGrc9kO1k/yDj2X7Ku1S8dt2dm4+aarGvuy7o2ndHi5rF03N6WjVtLso41OuPar6Sd6CMZx/7fTNy26daKd+AJAwAAAD6AT/AZx74p61i/zcatUcKBn83BF2jpuH0w61jTsq7516xr3ZbpbLfHGwAAAABKwJJY7KNpJ3pLxrH/Lk7qRXL2uZtZn3Wtf2Zd6+ZllxkfxhsCAAAAPIDv67OdrEszrv2rjGvPSLt2Q/md/jmuEFx7XCZuP5hxbQVvDwAAAMgDLsird80bM679ctY1N/nW4bdo1lyuIVjSOWbgrQIAAABnYIHjfCDbyb4149q9zlmoF+BgIOPYDy2v1jvibQMAAAg167p2eB9X2Gcdu48osJPO6Z+hkNC1G7Nxsy7rWN/m9kOsAgAAAKFgTpcu76rvZH4uHbeTcp708woGDmVcu2fWsT6LFkMAAADSwb359Y55edaxnk/H7a1hdvrnKCDcmHHt37HeAFYMAACAQFMfN7WsYz2ejZvL4OTzMMeaVu+a30FbIQAAgMDA99rsvNKuPRnOvHDhoYxrJzKufTW3Q2J1AQAA8BV8f51x7Ov5PpvvteG8i1IvsDLj2o8uixsdsOIAAACUlfrOZlXGsX/P99dw0iULBBrSrj2CWyaXGcZ7sAoBAACUhNVu5L8zjv09VuWDQy53rYC5PePYz6adaA1WJgAAAM/hFH/ajV6Xda0eSPH7tl5gZsaN3ovCQQAAAAXDErY8ZS/t2uvhZIPSTmgdyDpW96xjfYLbL7GKAQAA5ETGtj+Ucey7M649CQ416GZmM679s0U1NW2xsgEAAJyGEOqJm1eJk6Nr7ofjlE5k6FgmbvdnBUYoDgIAAKjgljJuLcs61nI4ytDUCmzIOtZvso6l4gsAAIAwOX3DeA+3kHErGbeUwSmG1zKOPSbrWF9BOyEAAEhMvWt2yrrW37KuuQPOD/a2WoEdaCcEAACJWBKLfTTrWvdlXHsenBwsp6wA6zvErXu4GBRfEAAABAjWjE93il57Qpb3MJwarJVZgf0Z134lHY92RTshAAD4mIxrKxnX/lXWsdbCecE81hZYknWtH2W7WOfjSwMAAB+wOhJ5b71jfpWLudKu3QhnBStyVuBIxrV71Xcyr8F0QgAAKAPLHKNzxrH/nonbu+CUYGXSFlidce3H6l3zInyRAABQRLigL+1G78/E7flBdRqrbrqOsp1jcJ6STSfMutaQbCfri3Xdur0TXyoAAHiAbAV96+/7Dh3bvIm2v/gPWnnDp+FA5csKvJl1raeXVRs6vl4AAGgFSztXRbKO9UQ2bq6RykF0itKBWTNI0NhI+6dPpY0/+xHVXxqH85QvGBifjkdv5zoVfNEAAHAOhEKfY30l61ijZS7oW/O1L9PbOb57F+1MdqdVX7oxNA6Sr0NW33ZzKESGsq71HESGAADgbWRrLIc3yDAp9O0dNZzOxsGF82nT44/Qsis6y+f0v3QjbfvHc3S4Piv+1tVfvil8IkOO9e0lsdgH8eUDAELJyi7aRzKO/b2sY84OY3p41eevpcbjx+lcNOzfT7ve6C0yBnx1ENQrj9W3fkHUPBxZteLUQGfu7DC3E+7LOPZL9a55GUSGAADSwxtdulO0W8a1E+m4fTDsd8Q7e6YoV/jEvOX3v6HlV10WCKe/5vZbaPsrL9KRtWvO+jdtfPgnqBNoCgYWZRz7h9zlgl0CACAVmc52+7QTfQQjd0+15Z+6khoOHKB8aDxyhPYMH0Lr7vkGZTtX+cvp33Eb7XjtVTq6cUOLf8ex7dup/pIarINT2wkPZx0zlXHtq5EVAAAEljldurwr61o3c390Om4fxwZ/ZuP78NZydN1a2va3Z2jFZz5Rnt/fuYrWfutrtDP1Oh3b9GZev52vBPD+z9lBsCzrWg8vqqlpi90EABCM037ctjOO/Yesa23GRt6yLevaiY5t20YF0XCc9tWNow0PfI/qLy6yyFDnGK379p20q1eKjm3b2urfu+K6bnj/uQUCxzJxu382bt1At1a8AzsMAMBXLHCcD2Rc+1tp156MTTt/2/ybx8kr2Clvf/lftPLz13r2++q7VNP6794lChKP79xR8G/cO3Y03nvrOgjW8bCrJV1ildh1AABlg+8ouYI561gvZl1zLzbowhzskTWryWsOzJxOb/7fT6j+Mif/33RJDa2/717aPeANOr57t6e/a913von3XlitQGPatUeknegtfNWG3QgAUBLSl0Y/lonbD2ZdczE2Y+9s40/up2JxfM8e2lmbaLHnngOFDQ9+n/YMGUgN+/YW5bccWbUyuC2N/gwGtmQd649pJ2phdwIAFOO0f17ajV6Xjtu9eRwqNt7iVNGzAFCxObR4IW168pe07MqLm2oQLndp409/SHtHDM27I6E1cCsj3nfRrggmZl3rjnVdO7wPuxYAoCD4rlFKPX6fGlfUl4qGgwfpwIxp1HDoUEn/zWUfvwTvutiBAI/Idqzn6zuZLnYxAEDuTj8We3cmbn8565ojZdbj96txNb+s7OrTE++41FcEcXtWxo3em7HtD2F3AwCckWWdjFjGtZ9Jx+1t2DjLq5VPDQ1SBgBh0/33mdrg/oxrv1LvmJdDZAgAwKf9D/JgkqxjTcMG6R/b3a+PdM4/3Lr/vgsGFmcc+wFIDwMQMoQefzzalU8DPJAEm6H/bMW1V1Hj4UNSBQAbf/5jvFtfSg9btZAeBkBysl2s87Ou9eNs3FqCzc//xoN0ZIGVDqH773MTczqsh5fEYhditwRAjtP+f9r34uZRbHQBkgj++CV0fPcuKQIA6P4HqmjweMaxB9R3Mj8H6WEAAsjyar1j1rEeR/tecDUB1n7zdjq0ZFHwvT/r/l97Fd5pMK8I1mdc+8mlnasi2FUB8DGifc+x/zft2sPRvhfQDoAvflaclo9uWC9N+n/vmFF4txJID3NbMLcH8z6D3RYAn1Df2azKutaf03F7Kzar4NnyT11JW/7wWzlO+9D9D8MVwVaWHuapn9h9ASjPaf+DGce+O+uYU7EpBfB+/3JXDOnZP3mCSJHLypFVK6D7L7v0sGPdCelhAIqMmL7nmJdnXPtltO8F0DrHaN29d9HuwQNKornvBxqPHKG9o4bT+vu+Q/UXx7AG5M0K7M449t8hPQyAx5xo3/sRpu8Fs5hv9a1fpB2vvUrHtm6hMHNs21ba0f1loXSItSFzO6E5m6WHl11mfBi7NwCtO+2fV9/JvCbj2r0wfS+AQj7XdaOtf/0zHV6+jMAZJhIuWUSbn3qSll91GdaLrBa3DmQd69/pztErIDIEQA4sixsdso71y2zcXI1NJHh9+5ue+AUdmDWDqLERXj6XK4KjR2nv6BG0/r57cUUgdzCwhLOY6UujH8MuD0Az5nTp8q561/xSxrGHpV27ARtGcKy+SzVteOB74p678fBhePQC1QJ3vPYKrb4FVwQSzyA4knWtHlnH+jRnObH7g9CSdqJWxrH/kHbtLdgYAibSc+dttKtXShqlPt9dESxdTJuf/jWuCOTWFliRdqKPpC+OtoM3AGE57b+/3jG/kXHtSdgEAibS8/lrads/n6cj69bCQ5f0imAkrb//u7gikFh6OO3YA9NO9PN13bq9E14CyHfaj0cvTrv2C+m4vQcffYBEerp1FcVqBxcugDcu9xXB9u204/V/0+r//TzWprzBwIasY/0m61gqvAYINKvdyH9nO1k/yLj2PHzcAbrXv8yljT/7Ee2bMJ4ajx+H5/XlFcES2vI7viK4HGtWVulhxxqdda3blhnGe+BNQCAQYj1x86qMayfSrn0IH3OA7vXvvoN2D3iDGvbvg4cNyhXBsWO0d+xoUYjJBZlYy1JmBbZlXPuZZZ2MGDwM8CWLamraZl3r51nXrMdHG9CT/8UxWvGZjwvhnvXfu5vefPTntPUvfxAiPnuGDKT906bQ4fqMqFanhgZ4X59xfMd22pn4N62+9QtYz/KKDE3NuPZdCxznA/A6oLyn/Vsr3sEzszNxu382bh7DBxomWd8qWn71FeI+et2936I3H3mItvz590LpjqV+90+ZRIczS4X6H64RSg8/ex6wxDUcWK9SthPuzcatf2U625dAZAiUFC5Q4UIVUbCCjxGWS7Bw1eVCAnfdPd+gjQ//hLb88Sna/sqL4sph/6Q60fZ2bNObouodeNdBcGTNatr6zO9p2RWdsQ5lvSJw7AVZ17pvUTz+P/BOoChwIUrWsb6Scewx+OhgxaxFWPaJS2nVFz8rahI2PvSgKHbb/tILtLtfb9pXN44OLVpARzduCLXwEKf7D2fTInja9UZv0Z656cnHhKIgX+GIkz+mEIatcPBQOm4n052i3ZAVAJ6w1K2qzjj2s1nH3I6PDOa7YOHKLrTqputo7be+Rht/+sOmlsX5cwPr2BsOHhSndpZT3jNssLhS4VT+xoceoLV3foVWXn811V9Sg3cPa0F62FzGNVlcmwUvBvJiSSz2waxjfTvrWtPxMcGCZis/9xn/ZQcajtOxzZtE9mLfuNG0s2eKtj73DL352MOihmLVzZ8TwQzeH8zjQOAY12hxrRbXbMG7gTMX9HH7nmtelnHtl7OuuQ8fDyzItu2Fv5UuHb97Nx1eVi8KH7mmYfuL/6DNv31CtOatuf0W0VmR7QwVP1jZrwjWZ1z71xnXVuDxwMnT/kczjv1A1jUX4SOBySNm5NDR9euK5vQPzJhKK2+8Rvw7eN6wQIoMOdZXIDIUztP+eTyNiqdSpV37MD4KmIzG+vnFgovt8IxhEugKbOcar7QTrYFnlJxMZ7t9Jm7/Iu3aK7H4YWGwfXVjPXf+RzesF62NeL6ltYxr06wai0ZFDfpHx3Y02lYp41h4Nt493xnZuHVPxrY/BG8pCTxdKuPYN2VdcxBPncJCh4WqIPCGT3teELj1L3/Esy2hLYpbNDFm0kDLpH6mQf0tgx654Hxhv76wDfVQO9KcGhPPyjuRof1Z13w13Tl6BdoJA8oJsZ7fZuPmRixoWKgLAv/xnHfiOkeOQF2vRKf9mTUWjYw2Of3m1jwAaG7Pd2hHIy2V0sgKeCkylM449k9XOFobeFWfA7EeGOwsBYHr1noSALDMMZ5p8Wxh3KYJ4rRvnOb4WwoATtqTbS+glNKRZlUbeKYethNmXasf2gl9CBdwCLEe19yBxQqDnaEg8L7veBIArPn6rXie3p8yaUaNRSNs86xO/5QAwDx3ANDcnrvoQhpuKrQUz9m798US8I712/q4qcH7QqwHBgtGQeD4MQU5f55XgOfonS1wLKqrss552i80ADhpT7RtQwmlA82o1vHsvc0MjM+49tfXde3wPnjlUon1OPZLEOspodzsFZ1pxbVXCX16nn63+itfEifBtd+8ndZ9+05ad+9dYsgNy9GuueM2WvPVL9HqL99Eq26+QUi3Lvv4Jaga901B4KFWBwCbHn8Ez7HwHnSaXm3RcDs/p19oANDcnmnfjoaaCi1BrYCXWYHdadd+IROPdkHhIMR6/G2dq4RDZwfOGuustb7j1RdpD4+xnT5VDFnhVi9WeGMJV2+qxxqpYd9eOrrpTaEad2D2TNozfKiY387T2t78v5+KYGLl56+l+ouhGle0gsDnn22d2t+ePbTschfPsLWn/bhF46ssGmC23vF7FQCctMfbXkCvRTrQtBiyAh4HeQszcfvBbBfrfHjvAsR6Mq79qaxj1UKsp3W2rGsnWnvnbbTpyV/SjtdeERrs7HwLOQWWZIzr8eN0ZO0a2j95Iu3skaQtv/8NrfvON8VIXbzXAgsCL43TkVYUBO54/d94fnnaUsemaQWe9osZADS3P7W/kAYbEVocR1bAw+uBo1nXeoMLB7kdHV49R7GetBN9JO3aK7CI8nD2V15M6797F217/i+0d9RwMVGNT92ywQNl9k2so+0v/5M2/uR+WvHpK/H+8y0I/ME9eT/3VZ+/Fs8uR5tfY9G4KpP6W6anjr+5eR0AnLTH2lxAr0YuoikxTbQi4n16Fgy8mXHsP9R3Nqvg5SHWU7Atv/oKkb7fmXqdDi1d4l2qPoBwsMNDaPiOeiUcVU62d+zonJ/v/qmT8cxaOu27Taf9oXbxnH4pAoDm9od2F9IAI0KL4hAZ8lxx0LG+vyge/x+I9UCsJ+d7+zVf+zJt++fzdGjxQilP914GBDtTr4mMCKe8sX7OUBB4/dU5XwXxVD88szPbvBqLxvJpvwROv9QBwFtZgQvOp5crL6IJVTqyAt4qDh7JOnafUF0RQKwnP6e/9u47aFffXnR8x3Z49taMoT94kPaOGSWuCzC57m0FgX97pmXd/zc3YpTv22yJY9PUapOGWqV1+uUKAJrb79q1pf56pShqxFrw9oog61pP8aFYSse/1K2qFmI9jrkdL/zcxq12O7q/TMc2vQkP7mUwsH8f7R7YTxQUoi3xREEg14qcS/f/uWfwTZ6Q5p1TY5fltO+nAOCkPdrmAnqxsj2Nj6JWwOMOgsZM3B6ajVs3cCF8oJ3+Asf5QMax78461jS83BY24y7VtPGhB+ng3Nnw1CW6JuDugmVXdgl3QeD37j57N8bRo7T8U1eG/rQ/pdqkIVb5nb6fAoDm9vSFbaivXknzMZDI8zkELHbHWfNAifVkOtuXZB3rxaxr7sWLbKF6/4rO4pR1bMtmeOVyZAUOHBCthiuu6xbegsDRI8/4bPYMGxzO075j0+wai8ZETaG77yfH78cA4D9ZgfPpnx3b01hbE/LG2N89ywqsT7vR+30dCHBFI//ItGMvwEvLZUCLS1v+9Ds6vnMHvLAftAeOHBGFg2E88a64/mpqOHR6QeDaO78Squew2LFpUsyiwT51+n4PAJrbby9sQ720SpqLrICXdQJrMp3sr/lGaVBI88bNT2ZcO5F27UN4SblJ6775yEM48fu4aHDbC38LXfcAZ6Gaw2qQvFbD8LfPrrZodNTwxd2+LAHASfvFBefTPzq2o9E2xhR7mBGYXFY9gWWXGR/OutZ9mbi9FC8kPy127qkGAagRWLWC1n7jq+HJSF1SQ0dWr/qP7v+Tj0n99y5ybJpYZdEgKzhOP4gBQHP7dds21EOtpNnICnjTQuhaPyppNoDH7mZd659Z19yPF5CfbfrVo2dMswI/3ws00s5kd1GgGYqCwO/e1ZQF2bdXyEjLWMk/q9qikVEzkE4/6AFAc3u+QzsaaSEr4MEQot5Fn0SY6WRfKVoT8MBbdbLa1bsWzjTA8OAiVl4MR0HgCKEuKddp36KJMTOwp30ZA4CT9mTbCyipdqRZ1Qb8ReuvBMYVJQio72Rek3HtiXjIrdXn70IH58yCB5UAnmLI45ClLwi8rhutuuk6GTZFmllt0QgJTvsyBwDN7bmLLqThliJaL+E/8jTHTHma6k+79gg82AKc/+UunL9k8CAiruPA+vavLYxbNKHKpIESOv3m9gsJA4CT9kTbC+h1pQNNR1YgvyuuuP2Fglv5uH8/7doNeKCFSPjGxChbIGEmYN3a0Ivj+K9v36IZEp/2wxYANLdn2rejoSZnBVArkEMWYGrr7/kd+3oM5fGopeovf4CnlBiepBeWFjk/24K4TXUxkwZaRmgcf9gCgJP2eJsLqLvSgabFdKz9c8kI2/aH8h7Fm3Wt5/AAvTG+J2ZRGSA3G3/2I6z3Mt3tT6+2aLhths7phzkAaG5/an8hDTIjtBgDiU6zmVV6dV5a/VnXGoIH553tGT4U3jEMVwEb1mOgUAltftyi8VGTBoTY6SMAeNuY4jYX0KuRi2hyFQYSnWxz7adFa3Jy/ktisXezohA2F+9s+VWXiwEqIBysu/curPsi2lLHpmnVFg2z4fDD0AVQSNHgYEMJ/ffC8ytqK00tpwCgSdAHm4ynYj9PPgavGCJ4tDDWvfc2L27RuCqLBlhw9MgAnN3+etGFNAxtg2/ZMNPILQDIuPan8MC8tx2vvQqvGCIOLpiHde/haX9qDKd9BAC5CQfNRIvgKcYKlylVyy0AQI9/aceqAkl1AbZtw7r3yPmPqzIDNYwHAUBp7W8XNUkHL8X3cvoUy7hFvXU9twCAq/7Tcfs4HlwxCgCHwCuGqRBw4wasew+NU7lTYhYNCXmFfy72aAicPoYH5RY89zc04fxzCgDq46aGB1cc2/7SC/CKIeLArBlY98WqA6ixaCyyAqELADA+OI+AOW7TAEN/y/nnFAAM1vWL8fCKYxsfegBeMUTsTL2GdV/sE45r09Rqi4YiKyB1APDbC9tQb60jzcXdfs6S12/opzr/nAKA2kgkOr8GD7Aok/8uc+j47t3wjCFh9a1fwLovpRZAjdVUK2AhGJAhAHi0zfn0z47taaytURqV/LmL/VSb1FM73fnnHACMthFlFct4fjyQn0OLFmC9l1kfYLiNACCI9vSFbaiv3pHm424/b6GfMbZJtWdw/HkFAPwfWAgZxSKJAV0mqsOBxDQ00JqvfRnr3RfzACwaXxU+hcBH21wQsNP+BfRiZXuqg2pfq2ti+un6WR1/XgEA/z/213Whq42H671tePAHcJISs+PVF7HOfTojYERIsgKPtQ1GAPC7dm2pv14pAjWs09ad+sdFjXOe+lsVALANt3AVUDRRoFdfhKeUkP3TplD9pXGscT8XSDkW1VVZUk8J9HMA8NgF59MrlRfRxCodp/2CxH1M6pvDqb/VAQCCgCJapyjt6l0LjykRB+fPpWVdO2FtByUr4Ng0o9qikTYCgFLYH9u1pYFGhBbFcbdfaIX/MCs/x9/qAIBtiKmj57IY1rlKtIoBCXr+Z0ylZR+/BGs6sFkBmyZIlBXwSwDwyzYX0L95Il8Mp30vilvHRg3q0QrHX1AAwMY9hfNxT1MUe/Oxh6nxyBF40aDe+b/2KtVfHMNaluROdWa1RaMCrivwaNs2ZXX8f25/IQ02IkKGFuuq8DU5qcqkXlrrHX/BAQAbRx78Q/BSvLc1t99CR1atgDcNEMd376KNP/sR1q+ktsixaWKVRYMCqCtQjgDg8bYX0GuRDjQ1hmtjrxw/S1/30fWCHb8nAcBJG2zqImWGl+SxUNClcdr2z+ep8dgxeFefs2foIFp+9RVYtyHZiGfVBCsrUMoA4C88dtfksbs47Xu13qbFzDMq+fkiABDZAE2juipEesWwVV+6kfZPqoOX9SGH67O0/nt3Y52GeLLa5JhJg61wBwBPtG1DCaUDzajWsS68cvw88rqqOI7f8wCgeW3AjGpcCxTD1n7jq2KgDCg/R9aspo0//7Eo3MTahPFmPbvGotFCetiPQkDFCQCe69CORpgKxu56fOKfXJV/S58vAoCTNsjUaR4KPopi6759J+2rG0vU2AhPXGIOLV5Ibz7yEIr8YOceU1xt0hAfBQKPeRgAPNn2AqpVO9JsDOLxfJDVhKhJvUvg+IseAIj/OOsGmAZUnYpkKz/3GVFxfnzPHnjmIsI1GHuGDaY1d9yGdQfL6yQ3p8b2xZjiQgMAHrv7fIf2NApjd72/RnJsGmd7U9XvqwDgrX9EaxIQQiBQrKmCLm386Q9p79jR1Hj0KDy2V0I+c2bR5t88TsuvuhzrDFZwVmCqyAqYgQoAfnNhG+qpdaQ5GMRTFAEfFp3qoZbe8Zc0AHh7IMBjOrEAimPLPnEpbXriF7RvYh01Hj4EL54PDQ10cN4c2vqXP9LK66/GeoIVxebG7aYxxT4NAPi0/w8xdlelDE773r//GouGmobwhym1vFbSAKD51cBQS6e5iCqLnBlwaP33v007axN0dN1aOPgz9e7v3EF7hgykjQ//RExmxLqBlfLOl8cUDy1BO+Evc5gG+NsL21JvrRL7cpFsesyigYZedqff3BKVlWrJA4BTigUNnWbEEGWWwlZc1004ul29UnS4PhPKIsKj69fRnsEDaNOTv6RVN98gZjBgbcDKbayqKrICRboiOFsA8Is2F9C/Oran8VFNzELAu/B4vsSJiv43dH85/pPWMxJRyhoANG8f5AeFRVjC64KPX0Lr7vkGbfnT74RT5J72xuPH5WnVW7eW9o4eSduef5bW3/9dWvGZT+C9w3yv785jiod5nBV4ewDwdLu29IYYu4vTfrEK+8ZHjbIU9gUyADhpvXRNVERCM7p86oOrb/2iKCrc+tc/0+7+fenAnFl0bMtm38rvHlq0QCjxsWoit+itvfM2WnZlF7xPWKCNi6bHV5k0wKMA4NE2F9BLlRfRhKiGQTzFyuTU2DTSKm9hX6ADgOZ1AiMsA1oCfgoOLqmhFddfLdrhNvzoPtr81JO0/aUXaFffXrR3xFDaP3kiHVwwj46sXC4ChoZ9e6nh0KGWswoNx6nx8GFq2L+fjm3bRkdWrxL99vunTaG9o0fQ7n59aEf3l2nLH5+ijQ89SGu/9TVa+flradnlLt4LLBRpZM4KDG9lVmCYbdBAo5IW4rRfNJvFHR6mHginH4gAoLlx4cT0ahNRa5CtU5Tqu1QLp81XD8u6dhIBBZT0YF6srdC0jjkW1XFWoIVaAa4l4JoCdFwVV+dhSsykfnrwHH+gAoCTxlOQWClpKVpTYLDQ2fJPXiqudzb98v9ox6sv0r5xo8XETL6uCl1WwLFpRnVTH3lzx89ZAs4WLEUtVVE1Hfh+v7emBdbxBzIA+M/gIZ1G2YaonMWChMEkuma6OEarbrqONjzwPdr6lz+I6x/WZuB2zTPBRZ5h7+TgSaw8JnZBHOun2J0aQbrflzYAePvMAbQRwmABO81fdZkYbrXp8Udox79fon3jx9CRVSvzGn19fMd2Wt6tK54nrKg2s9oSI+9TEjl+aQKAk8aTkyZWGSI9g0ULg/ngNN+lmlZ94Xra8OD3hboid5QcnD+Xju/a6UkHCP938Zxhxbpi4THPb+hyOn7pAoDm1wMjcT0Ag5XwNH85rf3m7UKCmrs19tWNE50cxdSU2D2oP549zHNb5Ng0NmpQT01uxy9tAHDa9QC6B2Awb07zN99AGx78AW199k+0e8AbouWTdRhKzbFNb4pOErwXmFc2p8aiYZYRCqcfmgDglO4BXA/AYC2f5rt1FToLm371KO147RXaN2E8HVmz2lcKkevu/RbeFcyTNr5pMZMGGHroHH+oAoC3rgdYXMiGuBAMgk6rbv6cEHMSao+D+tPBhfPp+O7dvpd33tkzhXcI86CNz6TeengdfygDgOY2wDBE9IfrAZis4jjLP3Ulrb3r67Tpycdox2uvihHRR9auEcqLgZztsHYN1B9hrbZ5NfK18SEAKHT2gKbTuKhBi9BDCwvqaf5LN9KGH99PW597hnYPHkAHFy6g43v2yDXGsaGB1t75FbxzWN7GbeKDTJz2EQC0MHtgmGnQnGroZcP8d5pf8ekrae3dd4gxxjsT/6b9k+rEtMOgnubzhZX/sBZguRorIU6oMkV7OBw9AoC8rN9bo4lRKwAr4WmeJzHeciNt/Mn9tO1vz4gRzTzpsGHvHgozPKaanw3WCKwl4wmKo22k+REAePFwNE0spgUoGoR5eZr/zMdp3d130OZf/5J2JrvT/skT6Kg4zTcQOBVWBuTx1Fg7sHPZyWl8tXDqCACKcT0w2DTEXRKKBmE5neYvc2j1/35eDKrZ9vyztGfIQDHimEckg9zhZ4f1BDuzWp9Fk6rkV+tDAOAzTQEexwlNAVjTaf4TtO7bd9Lm3zxOO1Ov0f7JE+no+nU4zXsAX3/wcCCsNdgpan1xi8bYJvXS4I8QAJRTU8AyhIIUPsoQnOa/fBNtfOgB2vb3v9KeoYPo0JJF1LB/H7x0sVL/hw/Tqi9+FusP9pbNrma1Pp1q4fgRAPjJ+us6TYmZlMZHGuzT/DWfpHX3fIM2P/Ur2pl6nfZPmURHN6wnamyERy4xW/74FNYkTOypvLf2N5DmRwDgd00BXROpqYXQFPC1sab9xocepG3/eI72DBtMh5Yupob9++F1fcKBWTMo27kKazXkQ3nG2QbS/AgAglk0OEQMIsL1gB+Nq/A5lX9s8yZ4W7/p/ezfTytv+DTWaVjT/DyUxzTgRxAAyGF9dY0mRE1agqyA/+72L44JBb0DM6bC8/oEHkKEtRm+oTxTq5DmRwAgc9Gg1jSIaC6KBv15LfDFz4oqfrTplQ9WN+RaDKzHcNjiuEXjeCgP0vxls4SmtUEAUPJBRLqIeKEp4D9b1rWTGJ5zOJuGRy4hPImQWyqxBuW3udUWDbcg2lN2iyhbqKLivxAAlL1oEFkBP3YFrL3zNiHg03j0KDx0kdn48x9jzUme5ufpqwOQ5veNJRXlhYqWQACAosGw2/Krr6Ctz/6Jjm7cAE9dBPaOHIZ1JqktcSwaHzWotwbH77PT/9GehqEjAPBd0aCOokG/WucYrb//u0K7H9oA3nBs2zZaftXlWFuypflrOM1vIM3vV1O0JypyAQEAlAZhp9vKG6+hHd1fpuO7d8GLFwAHVFhP8ti0ak7zo43P385fGVvXrds7EQAETWkQ8wd8KRP85qM/F7r1ID929++LNSRFmt+m8VzNj6E8QbAF3SOR/67IFQQAfhpPrNMY20DRoE9tze23CKfWePgQvHsLHH1zIy27sgvWTYBtXo1FIy1dZCuxPwfB1Lm1lnV+RT50j0QuxIPDeGJYHkWDn7yUtvzxaTqydg08/VngCYpYKwGs5neaqvkHopo/aGn/oa/Y9ocq8oX7BJOqthoP0b/jiSdUGRhP7MuiwSpad+9dtG/8GIwHbgYPWsL6CFiaP26LfaYPRHuCWPD3VJ+KindUtJakqj6KB+n/rMBwFA36d/7A9VfT9pdeoGPbt4fa+R9ZvYrqL3OxJgKV5jeEkin22eAJ/aQi2g0VhZJo2/YDqYiyFg81IEWDhk6Tq7hoEMGA74oGL6kRojcH58wK4aSfBlrz9VuxDgKQ5p8eM2kQ0vxBvu8f0KLMbz7UatonWDwADzZIRYMajbZNWoCiQV/a6i/fRLt696CGAwdC4f+3v/xPvHek+WFFPvUnNe32FiV+WxUEqOrXE6rWiAcdPBtk6jS92hTRPTY7n80fuLILbX7qSTq8Yrm0zp9nK3D2A+/bfzY/jjR/4If6CL+s/qt3hw4frSgmSVW9IxFRjuGhB7VoUBM9u4uRFfDn/IG77xDSuI3Hj0vj/BuPHRPZDrxjf2nzz6hGml8Sm/66pl1SUSpqVfWalKrtwoMPdtHgMNOg2Zg/4M+iwc98grb94zk6tmVz4AOArc89g3fqE1vqWEJqvA9Ee2Q49a/hdP8TFRXnVZSaRGWlmlCUOXgRwbd+hkaTqgxaig3Sf0WDF8dow4/vpwMzpgbS+R9cOF/MUMC79EGa3+Y0Pxy/BI5/Z0pRHuoeiby3opz0icXenVS0p1Oq1oAXI8f8gVG2ITYLbJr+s1Vf/KzooW/YtzcYRf+HDtGqm67DuyujsVgY1/9gf5PA8UeUfdzTn5eUbylIquqlyYi2EC9JHmOlL1b8gtKgD4sGu3aiTU8+Jgrr/Mzmp3+N91WWNL9NE6sMMVkUe5kUtj+pqr/PW8a3lLzYpcu7kqr6ExGl4IVJY700ncbZJi1CVsCfRYN33kZ7hgykxqNHfeX8D8yYJpQQ8Z5KZ9zuO4qr+bFvydLSd7iPpv3d147/tGxAZWW7lKK9inZByYoGNY2GmgbNqjax2fpx/sDVV9DWv/6Zjm7cUP7U//59QvkQ76VEaf5qS8wGwT4ly6FLo7qo+R95d8eakHHtuzKt0fIvFwlFcROqOhwvVD7j1CKnGJdCadCH8wditP7+79L+yROIGhvLEgBseuxhvIciW9q1aVKViTS/ZHNdJp1LwTVuHci4diLrWJ+mclT+t6plUFG6pSLaJLxgCYsGNY1G2AbNxfwBX9rKG6+hHd1fpuO7d5XM+e+rGyeuJvD8i2MLHVuMBO8J0R5p7A1dpyn5TnaNm2syrv1YvWte5PsggGUJE6p6bTKiTMYLl9MGGDpN5egVm7T/Wgkvc+jNxx6mQ4sWFNX5H9+1k1Z8+ko88yLYrGqLhpiG0O/AfiNJobVp0MwCdVjScft41rXeyLj21UWR//U6EEhG9KtTijIWC0DS+ytdozG2KU4q2Lj9Z2tuv4V29+9LjYcPeR4AbHzoATxjL9P8ji2GerFOB/YWeYxrqYoxtTXj2vMyneyv1XXr9k7/Xw3oepekqvVBsaC8SoNDTJ1momjQn0WDn7yUtvzxaTqydo0nzn/P8CF4rh4Zd9yMjXKaH/f78lyX6mIwWykORmnXXplx7Lt9HQgsicU+mHWsby+IW/NHQ6FK+uKWuqpmVa0wHxUNVtH6795F+8aPEeN6W8OxrVtEQIHnWZjxqXAYqvmla6Ouixpi0mLp15SZzbrWzb65GuAfku1kXZpx7Jeyrrnv7aMo+UH1RiAgdVZguGXQXMwf8Of8geuvpu0vvUDHtm/PKwBY/4N78PwKGMrDBWD9MZRHLnl1UdjnEyG1uDWqPm5qZXP8c7p0eT+f9rOuNRcfBIytv6GJ+800Wgn9VzR4SQ1tfPgndHDu7Bad/66+vfDMWmFLHIvGRw1xQsR+II8N9qtWStw6UO+a3ylpNmBppyoz49jPZuL2rtb8aJ5UN9TCByK76MWYqCFUzOAY/Gc8xndX7x7UcODAac7/6Ib1tOzKi/Gc8rB5NbZonUU1v1yZzZFWQGaoOFb3JbHYu4vq+NPx6MVZ1+ybdu1Gz3pfuSgGi03y6Fmn6fn2w8JKM3/gyi60+akn6cjK5U3ev7GR1t71dTybHNP8M6pNGoSspnSHF87iLAlYFjPj2MOWGcZ7PHf8Wcf6BN83FG3IBdSvwlE0+JYUJrICvpw/cPcdtOlXj+JZ5DiUpw/2K+nGp/P9fjrYQenL3p34naiVcewBpYyoZwphDHxY8hcN6kXpmYXBiqbWF7eIO5uQsZTL2N9INQvFsT5bkONfdpnx4axrPZeNm8fKOQFLtBFigUpfVYuiQZiv1fpqoNYno9z5KNug+RIeQjKuPbHVzp+lB1mP2E/pNlwPyG+sgc4BH4oGYf5p4zPRtSSZ9RbaJeXq3y/ZQKlG1uPJt5f/vIxj/8HPHySuB0JSNGjoorgqA4EhWIltsWOjjU/SmSbT/NK/XwKbW21W5ez813Xt8D4ePBCUP24B7uJQNAiDeWjc6sUtX7hylKjWSGuqNQqjQNkw1Y7nKubzrrRrjwtkNe6J7oF+SNPJXzRYpEEbsHAbz7QYjP1DsutEXcxcWBTSDCIHPLWVOSoEimI/SQp1WFwIhTqyKw2iaBDmwTS+mCnmteObkqyND3uDOCzlFADUx81Pyjpxi8fX4qOQX2lwIYoGYbne78ctGmeb2BukG8MrWRtfATa7xhKH4JwCgKxrDZE5yp9ahSreMFwPsE43xhPDzi7Ta9EIC2188o3hRdfQqXMo7LfEqVoMAOjWineUs8+/pHciNaaYVocNQP7xxBOiJi3F9QDsRNcQ7vflMm4Hn1hlivZwrPHmB16LBhj/GTndYgCQdSw1jJO6eDRxH6QApRf54MEs83A6CGX/Pt/v830wvgV5bJCp0wyeJwLHf0atnLfPo2gxAOgXNbqG+aFN5yEe0BSQ3gYaOk0NUf9veDdBHsNron9fpkA+SNP4yljzdqZr7hYDgISm1eD+BJLDoVEA0zRRALYIJwgJ9flNcSeMdS7LVZ5GE1itD9/quQv+qq2zBrw5BQBjbAMP8hTJYQOtQSGwYaYhPh6s+yDX9Vg0jOt6NKxnmbJ10zA2PJexvyLbda61n1MAwKdenIjOoilgYnPBICKYHwv7cHUnVxcPd2jMhchXzhnrgTkUtuYUADRpJBuIuM52v+LYNA664KFQDuNs2MI41rxfTzxcx9EP2TmJdDx0cYpdjOA752+AO5x65HgozTkASJ0otMBDPndl8bRqM6fICxbs0wiLiszE9YBfppoJqe8+cPxSDeVBUW5+xhLo+Qa/eQUAJ4MAvJTcREVGctEgsgJSG9eCsPNJY82XpR6Hi8CQeZPHxFCeGoh15atcydcjrTrM5BsAiOIoS8eGl4fqEgtSoGhQ9usBTXSJQHK4NK18TVduWHeyyHWPi5q0CFdreavY8vVIIdNuWxUAnCyMQntgnkWD1ZYInqA0KPf1wBBojhctmOb5HRjvLcvALk3IsOMwmf9V85SY6YlQXasDgJMCDPwC8VJaUzRoip5zbAQyTx3ThdocugcKdPzxJseP6zQJAmRNE22ZGNndOptR7e1Y+4ICgP9MWTLQJoiiQRjmjhch1W/ixC/TN4Cscescf8wqysA6TwIA8YJVTdx1o0AQRYOws18PcJETTj8tF/eJu01kyKTQ0JgismBY162Vou9fxHkVngUAze91ZmGDK1BpEEWDYVAzmx7Dd3K6Tj+K++Rok4WKZkGZ4RINqvI8ADhpXAg1vwYvE0qDsJbGlk4OeeaM25jG2Ej1y1DNjzR/4XoWfUs4hbZoAcBJG2VjQXhRNMgno964HpB4CJFOdSGbX84HBNYVQVdM8LUwpkAqO5B6FkUPAE6mhEYiEPAsNTQIRYNS6wmMkXwaISsoDoFOf+BtqKXjurfAg91Yu7xtrSUJABAIFOH0hPHEKBgMWCvfBJHehOMPeoA6FvMwCh7UM9InejAlDQBOlXw0hBPDgvCmaLAUBSOw8gmmcJ3A0gBmrPi0PxziV5C8holsid8yX4nKSrUsAUDzYsFZqBb1xGbXWCKwwoYlp3GLKL9fVhn0c9Egj2zlqYm9cdoPvA0xDahaFmg81Ki/T69te0YiSlkDgP+ccpqmP2HBeFNVzX3UfXRsYPIWDTYV2PohGMicON3wlRQm8slSh2LQQvTuF1bYx3uwzzu4fBMAvLWx6VwNbYieYCwkD4QkYhYNRtGg9Bs2F2RxirYU8zkyJ4SrWPiLT4ioQ0GaH9ZkCwNWm+W7AKB5upNPOPNRZepZ4QlH9VBXC0E/tq7RYNOgcbZJ02KWqLVpbYsWD+Dh8ays5jYmaogOFKhVSlbNf2J4FVRcW29crDssgJotvg0AmhtvZjNRJ+DRCElLFJT1R1YglEItLM3K3xNvVtyDz105oyxDBNsjbENMqxxoGuI0CGEeibNGKsZXF5wJc2wRYAd5lksgAoDTUlS4HvCmWKvaohEQYoHBQqU8OSlkglNFu9+XoN4lUAHAKUUqUfSiejlnnVXoUMAFg8laza+LLCrS/AXc7zu2yJrIlBkLZADwloiBdrJNBRkBr1JaM6tNqLTBYJK0jbLDWoA0f2H3+9WmKLKVcSZLoAOA5tbPwPWA19EuD/boiYIvGCxgaX6NJkaR5i+002VKzCrqKF4EAMW8HsDi96ho0KapVWagC11gsDDYYJHmN0UmD3tX669DWUMlLCJW0gUAzbXUT957YWF7Y/OEhjX6vmEw/6T5m+arIM1f4N5WY4kumLDtbdIGAG/vHpiIylcPq2CbRGAw2AUGK49xwe4EkeaH4y9UKI3bXkPbDhqGAKB57yv3PENcyEMJ2JMFMtiUYbCiGwsxTYc2f8FtfE0HGKynUAUAp9yX8YcUQ1uMZ7Ot4xaN47szKA3CYJ5fZ3J6el4N9pnCZXpNCFwhAHhbKq3KEMUf+Ei8yQoEXR0LBvODibkoUZMWY28qbAxvtSXkjpGlRABw9mIaVaORli5GmeKj8cZYg54lZqEdD4PlbgMMnabFoM1faPcSS573M7CeEAC04gOcgusBT+/cJlUZQqsBHx0MdmYbbhpiqAz2jAKuIqFfggDAK+PhKeNsQ9xv4+PyxmZXB3NqFgxWlD1G18TUxkWQNS9sXzkxjQ9rCgFAUSSHudIdksPe2eK4FSrBDRjsFOVSXRcjltO43y+o3mgqJpsiACi1pgCmaXn7EU+PmTQI8wdgITAxuwRp/sIODw4fHgzqhTQ/AoByFg1ygdt8XA94VzRYY6NNByblXsFDeRZiryhsfHmNRcMxvhwBgB/FObj1DR+pR0WD7okKXlwPwAJsrJSJoTyFG++tA5AhRAAQhL5dTk0tRqTvaXHPcAsfPyw4xtKyQmQMjr+goTysgdAHan0IAIKo3MUVqbNRNOjxvR82BJh/v3nWEZmH+/0Ch/LYoRzKgwBA1mpfQ2sqGsTH7V3RYDWKBmH+aRVG1q/Ab9pp+qahHooAQN4HfWIQEcZ2elk0CG1vWPm6gdDGV2CaP24LGfY+0AQpY4Gq2hYBQFmKBjHRy9OiwZgpNmWsL1hx2/h0MQET311hEuEjLZYIx3oqpyUiyjaqqPgvBAAoGpTG5lSbNMyCIhjMw1OS1tTyi+xdoXofliiQxJrySQCgai9VtAQCABQNBldp0IDSIKygAL2OJ4VCpreAOSAWTRDFu/gOfeb8jycVxUYA4MuiQQNFg56OJzbFtQvWFywXY2nZqZjGV5BxtmQkJoH61pKK9nRFLiAAgNIgxhPDwmA8Mx5ZuMJsRsyiwQi2/e38I8rkF7t0eRcCgCAVDVbjROLleOKJVSgahDVdv4lAG/37BX5PBvWFRkcQLP16++jHKnIFAYCP7iQ1ncZFTTHzGhuPN9cDXNE9FIVJIe3fN2kxvqWC2nBHQbQnOBZRFnePRC6syIeUokTw8Pxnwyy0I3lpi+IWjeUJYzjFyN+/X4X+/UJsZrVJgxE0B8sUZVxtZeX/VOTLExUV56VUbRMeon83tIkYT+yZpTFjXE59fkMX99O4Rivs2qwvrs0CaOpfc77zPxNcMYiH6PdeZV0oDUKL3MvxoybGj0qQKZuLwr6Cqvl5lDHUNgPZ6rczpWm3VBQKpw4SEW0zHmowbIBhoI3J08lkTYOIoCkQrMI+CPcUkua3RJofwW9gbVTSMDpUeEWtolyfUrUGPNhgFTrxvfYibISeagpgaIlP521oGo2zoaxZiKQ20vyBt11JVb2nRYnfVgUBqvp9POAAnoi0ph7nmUiFejq2VOiZY335oDtGozrUwRSY5sdQLQnEfVJ5V/nnXQ+gqj9IqFojHngwra+mCWlOlujE5ufRRDOWOsVgk5Iby8tOQkV/QWl+Hm6ENH/QhX20hSlFuaqiVCQi+s0pVduPhx/sAScjLZ3moGjQM+OZ5pAcLkEQq+uiUwM1Lq3rcmGpcYhgSVDkx3V5ivKdPhUV76goNclKI5ZS1aV4ERJon5+cbY4N0qPrgaZxpzhZeT0n44QiJk78edtCx6YxUUPUSWAtBd3xK/uSqvqrPrHYByvKyYvt2r0/FdGex0uRpYhKpzG2QQtRROVR94BNdZhI6InWBRdfwvHnbywWNgTV/LJo+B9OqupzCU1rU+EnUhH9U6mIshwvSZ42Km4Bmg7hFE+7B/ojEMgz1a+JVD/WUJ5pfseiyTFTTBbFOpJjP2YthkXVxtGsY/ep72R+rq5bt3f6Kgjo3aHD+1Kq+iRHKXhpEhVacYV11BC98NhcCzeuucDsgZaL+yZDx6JVctZjuJof0y6lqdPijOwZZ7/EzTezjvXbrGOpvgoEEpWValLV+uAFyheFDrd0mo2iQc/uZEdjNPFpHSpT4PjzNh5hzIqHtbjfl+MqVm3Sb8llUFXatRszcXto1rE+SxUV5/kmEKiN6FckFGUKXqiExVgnTmgoGvRCY90SGZZeId68ee7CtBgCy3yr+TlY6odrJan0LCZUGaJ2qFVXjXF7acax714Si73bF0EAqxElVfXGpKrOwwuWU3lttJiljg3Zi3tb7mnvE6INnetMMNEy3zS/TWNtM9QBo4xtrV7qWaRde33Wte7zVyAQ0b6UULX5eOFy2kDTEIVu2KQLNz4ND5BUT4DvNXlo1Xx0muRdO4LBVPK1Xxd1z4ybq+sd86tFkQVuZSBw3khLe7ivpm7DApA0jaXrNF7MH8Cm7c2mL0cgwK18E6qgQJlv9wgP9RoAcSn5Ml8lrKXKuPbETNy2y+b4l8RiH8261o/Trp15q3ClpkmGEgtCXhta4oUuq/FwG64TCNqQFi5mYkEkFI62ZvqkQb1RICpVEfUIu3yZr7RrH8449gMlzQZk4nY849ovp+P2wbP9MH4g/GCQ2pJbyGUShrV4ciKcU20Kp+pXRTf+jrkina8x0jjt560gOQJpfqmsl88mVGZcu9e6rh3eV9T7/qxjfTobt0ble8oZix5WyftadTGnfR5OhJ4EAzNPBAO9tfJvcuy4eBbCUrybvN8jPzeMmJZPxEoU9vlxzTn2GM+DAHb86U7Ra7OOOdULFSsMq5C8aNA4Ie8KJ+CJE5kXt0QLEd8vFnusKwfpLC87scoQ/y7eYevaP8UUSexz0u1rMwIwryLj2gkPU/3RLtm4Od7rTW1GtUWDUScgfe/rONsUKmZwDJ5F+GLGO8vosjIc19pw/UC+qeWeJ3r0h5mGuJPmgG0hrnEKMn4v3AUBASiJ7vc1TXRoBG2yasaxbyrI8acvjX4s49qvsBpRMX8o1wlw6rgHFpvUH9FQ9IUXPVOwJG4L3Ya51ZZ41hxk84llpvjfFs2tscQwKIg8eWszxWEG9/uy6aCMCfLhxTGnttr517vml9Jxe2tJq2PjNtWxWApEMKQXxuCWsSU4bcIkGMqD60z59qeJVcGvdxEywrb9oXxb+t6dcex/lPvHc+HMIBTOSF80yEVuKBqEBUqtz7GFljsKmuWyQQG5388rM1WlV+fs/Fd20T6SdawJ/mqdsdFGGJLimqkoGoT52ObWmEK4CXuRXMYdLvMkrFHivbSfFq3JyfkvcJwPZFx7hn/FM2xRBY3rAfn7ascKpUFkBWD+KLhskm7GiGe57vd1UZy8WOJ9hosWaytNLacAIOtYtUH5w3A9EI6iQW5F4+IqOCJYWQ4caOOTb9KpodFkMZhH/n2Fu3tyCgDqXfPGoCprNbXcYGGjaBAGK9y4Q2I0OpIklC3XRRdMWNYx/63iIJVLAJBx7UlBF91g0RJE62EpGoSjgnlrs6stkXHC/b5c+8Vo2xTaDGGbLdL7hC9sMQDgNoFi9/mX8r6O5VO5HxcfgNw2wITSIKzwIqkpMUuIIeGbksf6nGzjC2HGkP/m/kazq9SWAoAFTrRGVkUuTuX1xAcRDqVBXA/A8sgY8vTF3sgYytVJZBo0PWZJ1caXr47O20dLtxgAjDKVq6T+2F1bDG3ohyhfeuMpdRhPDDunTK8NmV4Zx/CGXUuEa1fOJEjVYgCQ0LSahSG5I2HnMAx9vCEZT2xgch2s6X6/xhIy1PjuJcr86TrVRU1ajMyfuPY+myhVTgEA912HSskrbom0cS90D8jd66tq4hpoPooGw9m/X22elhKFBbz2B1NGT6lh4VkF5wpscwoAOCUWRuEVfoCsPgeRjxDIfJq60I/I4MQgtz6/a4uWUXQEyWWswMhKjFjj/2mB75fDGs8pADgpxRrqBxq3RIsZ+n8lrxDWNFEABk0B+VqfOJOJrJ5cqqDjojyND+u7+aF1XDT366ycA4CTmsihVwCLNymA9cUJQv7ioQDO+Ia9bZQ4ZoXIp9an6zQlxmp9WN+nivvk75fyCgDY+BSM+5WmO8QZQhwEgUAY7hW5HxzrPmiFfSjolSkg5wLtOdVI85+pwp+fTauea74BABsrYoVBKznnF+A0FVtg/Cc0BWBlngOCwTzSpfl5b12I4V9nFPXha61CrqVbFQA0DU3QaT7So6cWGDmWSE1BOSwEmgKmIU6ZWPf+MP7u3sC1HIbyhOSen7VrvKhnaXUAcFJLmV8SXsqZRy3yHTJSkPLfR07m+0is+TIE3E0bISr6ZRrKY0CsqwVpai/Xe0EBwEljbX3MZz/72NA6bFLypyp1TaTjcD1QmlY+/qZ6o6JfDj0OTvNHDXGVivV9Zsc/rUgZLk8CgJPZAK6OxwvDICJcD+B6oFh3nuOjqLWRS5ET2bNz+YypVcW92vIsAGheGzCzGptfS1WbY230JMtuPHWLP2B0DxQ+r4MdP74XOYw7p7hlDd/F2U/8fLVeilZzzwOA5tcCmMuOokFYU/fA+KgBXfJWfB+c6ufrFawjOWS3Uc1/7kCXs+ilnEJZtADgZO/mcBMvHUWDsOaTyebje2ixuG9ilYE7fgms74k0/1IEv2dXqXTsss2eKWoA0NxGIPrLuWiQo0AUDcptg01clZ3pxC9OQHD8UqT5eX0jzX/uq+CRdnnl5UsWADSXE4Z+AJQGYf8phJoa8lbapY4lrkiQ6g+2cSE4p/kX4KB3Tpt7cvy0DwLdkgcAJ1OhQzG9KS+lQW4xQ/Wz3EOIJkbDJXzCJyB2GD2wrgOe5m9au0jzt6xSOdBn9V6Jykq15AHAKWNYDZ1mxBAx5no3yqdFzDCXuSdaF9O8lkgcCHCL5DC0w0pyjYUR2i1pVkyu8q9KZc9IRClrANA8Fdok/YhFk2saCeOJ5S8YnCfJdRlvhFOq0PEiQ5p/FBeyosOrxcK+8QEYP+2bAKC5ohpXRC7GPVLO44m5YrovCqcknkZoiMxPEINj7m4ZhUA1+FdUui72maXQ5m9x/HSQDma+CwBOOQFZBs1DIJCzeASLawxBalVqyVTeXPyuMshFvnz66YtOluCn+U9c0SLNf25r2nuDt959GwA0Ny6cmA7lqJxtkVAahHKa7EWDrJ/OwUDGJ1dSnLnDRD4Z0vxaU5ofh68chvOYYiBYYA8VQQgAmqehJohqUyzMfIZIDMS9q/SDiIZbutiMFsZLs7a41YtrdljoC4Em0vxh02rhDJcMehWBCgBOK0RBhJqzcTHZSLRchUN6WNdpmKVTXdSgGdWmaCNtbQqX2xL5O5sWs0R3Aqc54fDlskGmLlrUkOZv4WorLl/hdSADgLcvXrQR5jdRbVIVUrVhPeFxQSFrcIy0mkRb+BphjG3SGNsQxXrDrSYnz4OMeiFYlDfNryLNn6uxouFgSQXZAh8ANNec5vTVEkSxuReu+EiRCgaDlaZ2hK9Rl8Sx/7WkuTI5Jv9BSZoAoPn1wEhEtnkWDZ6808KJDwaTMs1/opAa+10Le2HIVFelCwBOux5A90BeRYPTY6Z4btg0YbDgi0nxnTXGsuemVzHMCl8LtdQBwCndA7geyFvQYrRtijne2ExhsCDtdxrVYb/LuUsqzNLqoQgAmhe+CHlVXA/krWXdD0WDMJivjdt9uVsDGc9c2vhM0S0TenGxMAUAb5dX5egPH0t+aTLu+67FZguD+WdmhGUIISbsUTm0QkOWGgHAKSIqJ6avLUJVbB4RtCVSjH3QPQCDlW3f4sLdxRDtadG4TRx1TQgAWoykeUTpHFTK5vdxVZs0GPMHYLCSWH9dp6nIXOakdzKhysQ8CgQA+Vu/t0YTI7rO1RaK+QPhaZ+BwUp2ONE0IdA0B2n+nCSqWeAKaX4EAIU/HE0Ti2kBigbzko5lTfr+iLxhsMLS/LomhnotQjV/ztP4UJ+EAKAo1wOc5p6BCtu8J8Rx1wU+ShgszwxkzBRqdNhHzn3YgKw5AoCSawrUVZnosc2naDBuC5nmvjrWDwx2NuMZDbOrkW3MZdz5GIw7RwBQdk0B3MvlLbzBgzWGoiIXBmvagFVNDGRaiANFi8bBEU+5xOwSBAC+q8zle+80PtL8igajhrjnxBqChc24Op3T10uxF7QoRCZqigwcGhAABKBoh1NTC6EpkOcHbgkVM6whmOw22NBpJuaT5DSUZ5xtIM2PACCYRYNDxCAiXA/kpdQVP6HUhY8eJtl14SgLE0pzSvPzUB7oiiAAkCfVh/nb+Yt4WDQRIh6wgFtvUTCMoTy51AZNrUKaHwGAzKcArWkQETS789sYuL+Xq6PRSggLig0QQ3mQ5m/JFsctGsdDeZDxK5slNK0NAoAybBAc8WKDyK/1Zyxaf2B+lxJHgN+yPki1RcMR1JffIsoWqqj4LwQAZS8axKaR9wxvtBLCfKIWyt/wInzDuX23SPP7xpKK8kJFSyAAQNGgf8d72qK4CkWDsHLU9qCNL7fJoTy1sDdmhPjt9H+0p2HoCAB82B+MokEUDcL8aQNPSoKjsK9FGXAeYIQ0v09N0Z6oyAUEAFAaDFrR4BC0EcE8ztDxtzgP32KLNq2a0/z4/vzt/JWxdd26vRMBQNCUBnHqyK9oEEqDsILu93UaZ5uiWh3f1LnS/DaN52p+ZOCCYAu6RyL/XZErCAD8tSGNsQ0UDbZCaRDFR7BcjafLTa4yxbQ5fEPnqsFh4S5dZCuxboJg6txayzq/Ih966npHPDj/pSQxnhjjiWHe2iATMr0tXrM5TdX8kO4OXNp/6Cu2/aGKfOE+wZSqbsBD9KfxeOIJUBvLO2XJhZZ9kLKEqZooVsP9fssjvXmf6YOOmyAW/D3Vp6LiHRWtJamqv8KD9H9WYDiKBvM+zfCJbzCKBkPZv881IosQOOeQ5kerbVCFflIR7YaKQkkaxoeRBQhQ0aCBO8x8bUHcEvUVPbHRyZ0x0zTRMor+/XMHxtNjJg1Cmj/I9/0DWpT5zSsIiOhXJ1TtOB5ssE45o21TODdsbLkXDXLw9AauB6QLiqHPjzR/GE79SU27vUWJ31YFAYr2TTzk4BY4TecCJ6Q8cx9NWt00mrQWG2Jgja93ZkFh85w2H2O4A28JVWtMqeq/enfo8NGKYsJBADIBQS4a1ETPLnqb89AUcGzRD45BRAGph9E0Gm6isK8l0awZ1UjzS2LTX9e0SypKRVJRrkup2i48+GAXDfLpdjZOR3ldD4i55bge8Kd6prjygk5GS7LZ6ICR5tS/htP9T1RUnFdRaniQAAsL4EUE3/oZPNjEQGFUXpoCJrTOfWKcmRkXRStsi2l+m9P8cPwSOP6dKUV5qHsk8t6KctInFnt3SlF+l1K1BrwYOeYPjLINsVlg08zNFotpZ3w9gI211MYT5vg0uxSO/6zGYmGDMDpbDscfUfZxT39eUr6lIKEolyciyiK8JHlsIKqmMe/cx618PIo3jXV3ljS/TROrDEzHlMf2J1X193nL+JaSF7t0eVdS0X4mohS8MInSq00DURYhK5CzsRjTcIgLFUX1cjKC0nNqWYzian6sFVla+vakFO23vnb8pxUIVla2SynKv5vaEvASZaqsHipaqkxstjlPJLTF3TS6Bwo/8bM2Axz/WdL81RbULOVK9W9LKdpjvkv153kt4CZVbSReqHzGqUVOMS6F0mAeEwlN6oeUbH53/LouUv1w/GdeU/xskOaX6sS/NqnoP3yxXbv3V8hCraJ0S0aUyXjBcrZd8XS9uei3ztlYlGYIirJaLO6bGGUpa6yXt9tCx4ZktWSWVJQlCUX/Bl+jV8gIyxImVPXahKJMwQuX07j4bSoKs3Jvy6qxxX0t2ghPFakSxX1w/GcJHLFepHL8qjahVtM+VxTZXr8GAjxTIKUoY7EAJC0a1DUaY5vipIKNO5c2QtQJ8NyFKSjuOz3N7zTNpWCdDuwt8kj2JhWlH3fOVYSZWl3vklS1PigWlFdpkFPdM1E0mFvrltvUusWn4DC1ms7AfIozFI9aYlRxT2hLyGQHUhHteRbQqwCnKgomFe3v4gFhkUjbvlVXZUKpLUc9Ab5KkblgkFsk50KC+ozto8NQzS9ZRb+2Oamqj77ePvoxePtzwA+IH1RK1TZh4cibFWD5XGz+ud/7DrV0Ke59OQjEEKozB3xTYpYYV4w9QqqK/sUJTbtruGG8B949D/iBcUVkQtXmYyHJa/2Npt7uNFoJc0oJc51A74BlBXqIgI+vgSyk+d9mS4SEtAEJafkK+0bysLzQFPYVu2AwqaoDUScg9yCXMVFDqJjBMeSSFTBFCt2vQ11YMIpFabioD1c+p9u8Glu0zqKaXyrhniMpRXs1oWk18NzFmzz4bCqi7MWCk9cGmzpNj1moBs+pQtyi6dVNEwnL3UHQ84RKJKeyl8Txbs6U5udix0FI88t12o8oW5Oq+qseqtoWXroEvGLbH2KlpEREWYYFKLf0a13UFGlSOJDcHAwXkHFKmZ1MsU+XnH0YbDTd6c+uQcDW0lCePlDrk064J6Wq3y77ON6w8kRFxXmpiHZDSlVHYEHKXjSoC+cGh5JfQMDqjFxjMdo2aKBpiKCqNc+fe/S5nZO1Hbg7AaOic1Dri1viuffENyxZD786HPf7fhs+pCg2txFiCqHcxm1xKBosPDBY5Ng0L27RrBpLzIrna4RpJ/4vazbwiZ6dPN/f42SfZ31GDdT6JBTuOZhU1X++HolUwdv6mD6a9pGUoj2QiijLsXDlNb5v5tMVigZh/mnjM9HGJ5/j35hS1UfQv4/rAZhfiwahJAcro4Qz2vikFO6ZmdS026UdzBMqcSFVtZKq+hy6B1A0CIN5MsQpbtFIyxAaB/j2pDntH0+qas9kJNIVXlPW7gFV/UFK1dJY8JIXDZoGigZhnhvXRwxGml82x78jpSi/SxpGB3jJsIgLadpnWFwopWoN+AhkVhpE0SDMg2l8MVN0QuCbksnUpbWKfu+L7dq9H14xrOJCkYiSVNXfp1R1Oz4I+ZUGF6JoEJbr/T5LL9umGG2Nb0iq+/0htap6Ddr4wFv07tDhfamI9q2Uqs7FRyL39QBL1GI8MezsMr0WjbDQxieZTO8+HsNbq2kmvB049/VAJNI1oSi1qYhyFB+P3OOJJ0RNWorrAZi437dwvy+faM/KZET7EbeHw7uBvGBtZzGaOKKsx8ckr/XQNDGYZR6uB0LZv8/3+/0MfAdSmaKMSyrKF/pUVLwDngwURF23bu9MadotvKjwccltAw2dpsZMqN9Jr89viRkG6N+Xyg6lItrLKVWNw2uBopCsNGKQHJbfemuaKABbBHEhCfX5Td+OUYa1wiLK+qSm/R/U+kDpAgHD+HBKVe+DpoD8Nsw0aHY1rgeCbDwUaRgX9mlYzxKl+acmFeU2qPWBshYNpiL6p1KK9gYrSeHDxCAimL8K+waZOO1LdNo/mlS1xOuadgm8D/BbVqBDSlV/nYhom/GxyjyIiMfisqYAHKwvC/scW9Rx9INwj0y9+5tTivZE90jkQnga4Gv6xGLvro1oX01GlMn4eOXWFBhq6uKUCcfrA8U+16ZJVaZo78T6lOXEr82qVdWv854KzwICRw9VdVKq+q+Uqu3HBy2vsUwsO580HHEZKvptmlCFiXwSifYcYx2WhKJcDg8C5MgKaNpHUor2QErVsvjIZb4e0Gi0DcnhUrXyjROjeLHuZLBkRNmaVNXf9OjYsT08BpC2aJAHEaVUtT8GEcl9PTDE1GkWJIc9tyWOTWOjBvXEOpNlKM/chKJ/o3sk8l54CBAaeup6R454UTQoefcATySMoXugYMcfb3L86OGXYgQvd0z1TmnaxzGUB6BoEEWDoegeYAcGcaHWpPpNnPjlOO1vTyra09wxhZ0fABQNhvJ6YLil05waZARaKu5jud6euOOXwRYkNO0unrqKXR6AHIoGk4r+w4SqZbB5yD17YHoMgcDpOv0o7pPAGlggLaUoVyHND0AriwahNCi/9T2hMhjmIUSL4xaNsZHql+B+f0dSVX//uqZVYgcHwCNe62BelFLVJ1OqtgkbjaxDiHSqqzJF+jssjn9+jU0jWacf7z/o/fuLkqp6z4vt2r0fuzUARYKHX9Sq6q1JVZuAjUdePYExkk8jZAXFIdDpD36aX1UHJCP61UjzA1Bieuh6NcYTo2AwSK18E6pMceWB9xto25VUtT8lKitV7MIAlJlXbPtDSVX9QVJRlmBzktP6G5qoE1gatOE8J077HMggzR/4Nr6lqYj2vUTbth/ArguAzxBKg6r6yYSq9mJNbWxY8hkL4Qy3DKEy6Oeiwbk1lpia2Bun/aAX9TWmVG0QK5gizQ9AQODRmSlFeywVUdZjI5O1aFCjUbY/ggH+92fVWGIWAibySTGCd3dC0f5cW2lq2E0BCCh13bq9MxHRb05GtDHY2OQuHBxqNU0lXFCCYUTs8OfVWDSxyqQhpkE98A5ksTSn+fvEYh/E7gmARCQVxU6p6rMc3WOjk9t66RoNNg0aZ5s0LWbR/LjV6nkEPIBnbo1JU2ImjYkaNMjQockvWZo/GdEG16rqNUjzAyA5XMTDPbsJVZuPDTBkgYGmUT9dF8HBMNMQPfgjbYNGWYa4ThhhGzTM0mmgadAbug5hHpktouxJKtpfehqGjl0RgJAhigYjka6piJZMRJQj2BRhsFBYNqWq93H3EHZBAEBFb8O4IKVoDydVbTU2SBhMPksqyrBERP/sExUV52HHAwCcRp+KinckVfVGsVk0tQBh84TBgivRuy+lqn97XVUt7G4AgJzhFqCkqv6B53hjM4XBAnW/vzylaA8kDePD2MkAAK2meyTy3oSifyOlajOwucJgvrZRnMFDmh8A4H1WQNe7JBXtlYSqHcRmC4P5wg4kFeWF1yORKuxQAIASXA9U/k8yov0oEVGWYQOGwcpQ1CcKdtWf8reIHQkAUHI41cgCIjwWtGk8KDZmGKzIjn9CMqJ9iQt2sQMBAHxBT13vmFTV3yQi2mZs1DCYh04/ohxOKdqrCUVxsdMAAHxLn1js3SlF/0pC1SZi84bBCpLp3ZhU1V+wTgd2FgBAoEipapwLlJr6kbGhw2A52vTaiPbVF7t0eRd2EQBAoOF+5KSq/iClqkuxucNgZxTtOZZQlNpaVb0MOwYAQDp4/kCtonRLqlof3vCw8cPg+JVtXDvTo2PH9tghAAChgDe8pKI9zveccASwENqChKbdxUJb2A0AAKGE7zmTqvrlhKqOh1OASV7U15hU1YGpiP4pzobh6wcAgBOwmhkPL+FZ5XAYMIm0+femVPVZnq+BrxwAAM5Bn1jsg0lF+24ioiyCA4EFeATvCgzlAQCAVsBp0qSqfjKlKD1SEeUonAosGKl+dXxSUb4AtT4AAPCA7pHIhSlFeywVUdbDycB8WM1/JKmq3VORSCd8rQAAUATqunV7J2uhpxRlLBwPzAcyvVuTqvorDlDxdQIAQImojUSiSVV9DkWDsDKc+BclVfVutPEBAEAZQdEgrGSmKEOTmvYZtPEBAICPOFk0mFDVXlAahHnYv3+QZ1okFcXGVwYAAD4nWVnZDkqDsEKn8aVU9ZHeHTp8FF8UAAAEjJNKgylVrYNTg+Xo+OcnVfUOHm2NLwgAACQgoWk1nMpNqdp+ODrY6YV92pBkRL8a9/sAACApYjyxov8wpWpZOL7Q26GUqv6LO0rwZQAAQEgQ44lV9ZqUqg5IqVoDnGHI+vcV7fHehnEBvgQAAAgxKUWJpBTldylV3Q4HKbVlU4ryHfTvAwAAOAV2DElF+2ZCUebAWUp14p/M+vxPVFSch1UOAADgrPD1QEJRLk9FtCQGEQW2mr8xpar9k5FIV6xoAAAAedNDVdvyICJoCgRnME9C1V56XVUtrF4AAAAFw5oCtap6ayqiTYKj9WUb3+6koj2NwTwAAACKBo99TUW0l5vayOB8y+z4N6cU7WFu78TKBAAAUBJebx/9WErRfp6KKGvhjEtc2Kdqq2tV9fu9O3R4H1YiAACAslDXrds7U5p2S1LVJsA5F9kiWj13avCVDFYeAAAA35BQFDelaK8mI8phOGxPLV0b0b7ap6LiHVhlAAAAfAurzCVV9RfoHvDgxK9pt8PxAwAACBScqk6p6tdSEWU2HHo+ffzqSk718/UKVhEAAIDAwuJCKU37eErR3sDsgXMX9yVV9R7c8QMAAJCO2kpTS6nq3zCauJnjV5QVCU27C44fAACA9PTu0OGjSVV9lKfThdj5L+DiPqT6AQAAhI4X27V7f0pV7+P0d4iK+0bXKsr1fDWCFQAAACDU8CmYT8OyFgwmVO0gKyj2UFUHbxsAAAB4G3wqrtW0TyRUtVciohyTwPFnkqr6E77ywNsFAAAAcqBHx47tuU4gpWqrgpXiV/ayIFJKUa5Cmh8AAABoJU9UVJxXqyjdUoryb55859dRvClVHZBS9K9wXQPeGgAAAOAhww3jPSlV/bw4YUeULWVt3+MOhoiWTKrql1+x7Q/h7QAAAAClygzoepeUqj6SVLWRIvVe3Pv8HYmINiSlKA/xv8v/Pt4CAAAAUGZYM7+HrlezjG5C0f6cUtURiYiyrCk9n+cdvqotaFIuVH+dVJTbehqGjvt8AAAAIGCZgtfbRz+WrDRitRH9iqSiXJdU1RuTivKFWk37XK2qXpNU1UsTum70icU+iCcGAAAAAAAAAAAAAAAAAAAAAAAAAAAAAAAAAAAAAAAAAAAAAAAAAAAAAAAAAAAAAAAAAAAAAAAAAAAAAAAAAAAAAAAAAAAAAAAAAAAAAAAAAAAAAAAAAAAAAAAAAAAAAAAAAAAAAAAAAAAAAAAAAAAAAAAAAAAAAAAAAAAAAAAAAAAAAAAAAAAAAAAAAAAAAAAAAAAAAAAAAAAAAAAAAAAAAAAAAAAAAAAAAAAAAAAAAAAAAAAAAAAAAAAAAAAAAAAAAAAQKP4fxljUH1mrU0AAAAAASUVORK5CYII=;" vertex="1" parent="1">
          <mxGeometry x="423.37" y="649" width="61" height="61" as="geometry" />
        </mxCell>
        <mxCell id="HRStIC6tjPnbJ2IDVPFx-3" value="" style="shape=image;verticalLabelPosition=bottom;labelBackgroundColor=#ffffff;verticalAlign=top;aspect=fixed;imageAspect=0;image=data:image/png,iVBORw0KGgoAAAANSUhEUgAAAgAAAAIACAYAAAD0eNT6AABaJklEQVR42u2dB5QkZbXH52HO7ynsssvudOXq6Zmu2mUJCyqLShARRZ6gKKggYgDBgPIQBFHBiIgoSnKhu2cjm3OczTmH7p7Nkc05h5n7zv1mF2fZMN3T1d1VX/1/59zzjue8w/ZUffXd+93v3v+tqAAAAAAAAAAAAAAAAAAAAAAAAAAAAAAAAAAAAAAAAAAAAAAAAAAAAAAAAAAAAAAAAAAAAAAAAAAAAAAAAAAAAAAAAAAAAAAAAAAAAAAAAAAAAAAAAAAAAAAAAAAAAAAAAAAAAAAAAAAAAAAAAAAAAAAAAAAAAAAAAAAAAAAAAAAAAAAAAAAAAAAAAAAAAAAAAAAAAAAAAAAAAAAAAAAAAAAAAAAAAAAAAAAAAAAAAAAAAAAAAAAAAAAAAAAAAAAAAAAAAAAAAAAAAIGGKirOWxKLfXBRPP4/6UujH1vZRfvI6kjkvVRR8V94OgAAAEAwnft/pS+OtsvGrc9kO1k/yDj2X7Ku1S8dt2dm4+aarGvuy7o2ndHi5rF03N6WjVtLso41OuPar6Sd6CMZx/7fTNy26daKd+AJAwAAAD6AT/AZx74p61i/zcatUcKBn83BF2jpuH0w61jTsq7516xr3ZbpbLfHGwAAAABKwJJY7KNpJ3pLxrH/Lk7qRXL2uZtZn3Wtf2Zd6+ZllxkfxhsCAAAAPIDv67OdrEszrv2rjGvPSLt2Q/md/jmuEFx7XCZuP5hxbQVvDwAAAMgDLsird80bM679ctY1N/nW4bdo1lyuIVjSOWbgrQIAAABnYIHjfCDbyb4149q9zlmoF+BgIOPYDy2v1jvibQMAAAg167p2eB9X2Gcdu48osJPO6Z+hkNC1G7Nxsy7rWN/m9kOsAgAAAKFgTpcu76rvZH4uHbeTcp708woGDmVcu2fWsT6LFkMAAADSwb359Y55edaxnk/H7a1hdvrnKCDcmHHt37HeAFYMAACAQFMfN7WsYz2ejZvL4OTzMMeaVu+a30FbIQAAgMDA99rsvNKuPRnOvHDhoYxrJzKufTW3Q2J1AQAA8BV8f51x7Ov5PpvvteG8i1IvsDLj2o8uixsdsOIAAACUlfrOZlXGsX/P99dw0iULBBrSrj2CWyaXGcZ7sAoBAACUhNVu5L8zjv09VuWDQy53rYC5PePYz6adaA1WJgAAAM/hFH/ajV6Xda0eSPH7tl5gZsaN3ovCQQAAAAXDErY8ZS/t2uvhZIPSTmgdyDpW96xjfYLbL7GKAQAA5ETGtj+Ucey7M649CQ416GZmM679s0U1NW2xsgEAAJyGEOqJm1eJk6Nr7ofjlE5k6FgmbvdnBUYoDgIAAKjgljJuLcs61nI4ytDUCmzIOtZvso6l4gsAAIAwOX3DeA+3kHErGbeUwSmG1zKOPSbrWF9BOyEAAEhMvWt2yrrW37KuuQPOD/a2WoEdaCcEAACJWBKLfTTrWvdlXHsenBwsp6wA6zvErXu4GBRfEAAABAjWjE93il57Qpb3MJwarJVZgf0Z134lHY92RTshAAD4mIxrKxnX/lXWsdbCecE81hZYknWtH2W7WOfjSwMAAB+wOhJ5b71jfpWLudKu3QhnBStyVuBIxrV71Xcyr8F0QgAAKAPLHKNzxrH/nonbu+CUYGXSFlidce3H6l3zInyRAABQRLigL+1G78/E7flBdRqrbrqOsp1jcJ6STSfMutaQbCfri3Xdur0TXyoAAHiAbAV96+/7Dh3bvIm2v/gPWnnDp+FA5csKvJl1raeXVRs6vl4AAGgFSztXRbKO9UQ2bq6RykF0itKBWTNI0NhI+6dPpY0/+xHVXxqH85QvGBifjkdv5zoVfNEAAHAOhEKfY30l61ijZS7oW/O1L9PbOb57F+1MdqdVX7oxNA6Sr0NW33ZzKESGsq71HESGAADgbWRrLIc3yDAp9O0dNZzOxsGF82nT44/Qsis6y+f0v3QjbfvHc3S4Piv+1tVfvil8IkOO9e0lsdgH8eUDAELJyi7aRzKO/b2sY84OY3p41eevpcbjx+lcNOzfT7ve6C0yBnx1ENQrj9W3fkHUPBxZteLUQGfu7DC3E+7LOPZL9a55GUSGAADSwxtdulO0W8a1E+m4fTDsd8Q7e6YoV/jEvOX3v6HlV10WCKe/5vZbaPsrL9KRtWvO+jdtfPgnqBNoCgYWZRz7h9zlgl0CACAVmc52+7QTfQQjd0+15Z+6khoOHKB8aDxyhPYMH0Lr7vkGZTtX+cvp33Eb7XjtVTq6cUOLf8ex7dup/pIarINT2wkPZx0zlXHtq5EVAAAEljldurwr61o3c390Om4fxwZ/ZuP78NZydN1a2va3Z2jFZz5Rnt/fuYrWfutrtDP1Oh3b9GZev52vBPD+z9lBsCzrWg8vqqlpi90EABCM037ctjOO/Yesa23GRt6yLevaiY5t20YF0XCc9tWNow0PfI/qLy6yyFDnGK379p20q1eKjm3b2urfu+K6bnj/uQUCxzJxu382bt1At1a8AzsMAMBXLHCcD2Rc+1tp156MTTt/2/ybx8kr2Clvf/lftPLz13r2++q7VNP6794lChKP79xR8G/cO3Y03nvrOgjW8bCrJV1ildh1AABlg+8ouYI561gvZl1zLzbowhzskTWryWsOzJxOb/7fT6j+Mif/33RJDa2/717aPeANOr57t6e/a913von3XlitQGPatUeknegtfNWG3QgAUBLSl0Y/lonbD2ZdczE2Y+9s40/up2JxfM8e2lmbaLHnngOFDQ9+n/YMGUgN+/YW5bccWbUyuC2N/gwGtmQd649pJ2phdwIAFOO0f17ajV6Xjtu9eRwqNt7iVNGzAFCxObR4IW168pe07MqLm2oQLndp409/SHtHDM27I6E1cCsj3nfRrggmZl3rjnVdO7wPuxYAoCD4rlFKPX6fGlfUl4qGgwfpwIxp1HDoUEn/zWUfvwTvutiBAI/Idqzn6zuZLnYxAEDuTj8We3cmbn8565ojZdbj96txNb+s7OrTE++41FcEcXtWxo3em7HtD2F3AwCckWWdjFjGtZ9Jx+1t2DjLq5VPDQ1SBgBh0/33mdrg/oxrv1LvmJdDZAgAwKf9D/JgkqxjTcMG6R/b3a+PdM4/3Lr/vgsGFmcc+wFIDwMQMoQefzzalU8DPJAEm6H/bMW1V1Hj4UNSBQAbf/5jvFtfSg9btZAeBkBysl2s87Ou9eNs3FqCzc//xoN0ZIGVDqH773MTczqsh5fEYhditwRAjtP+f9r34uZRbHQBkgj++CV0fPcuKQIA6P4HqmjweMaxB9R3Mj8H6WEAAsjyar1j1rEeR/tecDUB1n7zdjq0ZFHwvT/r/l97Fd5pMK8I1mdc+8mlnasi2FUB8DGifc+x/zft2sPRvhfQDoAvflaclo9uWC9N+n/vmFF4txJID3NbMLcH8z6D3RYAn1Df2azKutaf03F7Kzar4NnyT11JW/7wWzlO+9D9D8MVwVaWHuapn9h9ASjPaf+DGce+O+uYU7EpBfB+/3JXDOnZP3mCSJHLypFVK6D7L7v0sGPdCelhAIqMmL7nmJdnXPtltO8F0DrHaN29d9HuwQNKornvBxqPHKG9o4bT+vu+Q/UXx7AG5M0K7M449t8hPQyAx5xo3/sRpu8Fs5hv9a1fpB2vvUrHtm6hMHNs21ba0f1loXSItSFzO6E5m6WHl11mfBi7NwCtO+2fV9/JvCbj2r0wfS+AQj7XdaOtf/0zHV6+jMAZJhIuWUSbn3qSll91GdaLrBa3DmQd69/pztErIDIEQA4sixsdso71y2zcXI1NJHh9+5ue+AUdmDWDqLERXj6XK4KjR2nv6BG0/r57cUUgdzCwhLOY6UujH8MuD0Az5nTp8q561/xSxrGHpV27ARtGcKy+SzVteOB74p678fBhePQC1QJ3vPYKrb4FVwQSzyA4knWtHlnH+jRnObH7g9CSdqJWxrH/kHbtLdgYAibSc+dttKtXShqlPt9dESxdTJuf/jWuCOTWFliRdqKPpC+OtoM3AGE57b+/3jG/kXHtSdgEAibS8/lrads/n6cj69bCQ5f0imAkrb//u7gikFh6OO3YA9NO9PN13bq9E14CyHfaj0cvTrv2C+m4vQcffYBEerp1FcVqBxcugDcu9xXB9u204/V/0+r//TzWprzBwIasY/0m61gqvAYINKvdyH9nO1k/yLj2PHzcAbrXv8yljT/7Ee2bMJ4ajx+H5/XlFcES2vI7viK4HGtWVulhxxqdda3blhnGe+BNQCAQYj1x86qMayfSrn0IH3OA7vXvvoN2D3iDGvbvg4cNyhXBsWO0d+xoUYjJBZlYy1JmBbZlXPuZZZ2MGDwM8CWLamraZl3r51nXrMdHG9CT/8UxWvGZjwvhnvXfu5vefPTntPUvfxAiPnuGDKT906bQ4fqMqFanhgZ4X59xfMd22pn4N62+9QtYz/KKDE3NuPZdCxznA/A6oLyn/Vsr3sEzszNxu382bh7DBxomWd8qWn71FeI+et2936I3H3mItvz590LpjqV+90+ZRIczS4X6H64RSg8/ex6wxDUcWK9SthPuzcatf2U625dAZAiUFC5Q4UIVUbCCjxGWS7Bw1eVCAnfdPd+gjQ//hLb88Sna/sqL4sph/6Q60fZ2bNObouodeNdBcGTNatr6zO9p2RWdsQ5lvSJw7AVZ17pvUTz+P/BOoChwIUrWsb6Scewx+OhgxaxFWPaJS2nVFz8rahI2PvSgKHbb/tILtLtfb9pXN44OLVpARzduCLXwEKf7D2fTInja9UZv0Z656cnHhKIgX+GIkz+mEIatcPBQOm4n052i3ZAVAJ6w1K2qzjj2s1nH3I6PDOa7YOHKLrTqputo7be+Rht/+sOmlsX5cwPr2BsOHhSndpZT3jNssLhS4VT+xoceoLV3foVWXn811V9Sg3cPa0F62FzGNVlcmwUvBvJiSSz2waxjfTvrWtPxMcGCZis/9xn/ZQcajtOxzZtE9mLfuNG0s2eKtj73DL352MOihmLVzZ8TwQzeH8zjQOAY12hxrRbXbMG7gTMX9HH7nmtelnHtl7OuuQ8fDyzItu2Fv5UuHb97Nx1eVi8KH7mmYfuL/6DNv31CtOatuf0W0VmR7QwVP1jZrwjWZ1z71xnXVuDxwMnT/kczjv1A1jUX4SOBySNm5NDR9euK5vQPzJhKK2+8Rvw7eN6wQIoMOdZXIDIUztP+eTyNiqdSpV37MD4KmIzG+vnFgovt8IxhEugKbOcar7QTrYFnlJxMZ7t9Jm7/Iu3aK7H4YWGwfXVjPXf+RzesF62NeL6ltYxr06wai0ZFDfpHx3Y02lYp41h4Nt493xnZuHVPxrY/BG8pCTxdKuPYN2VdcxBPncJCh4WqIPCGT3teELj1L3/Esy2hLYpbNDFm0kDLpH6mQf0tgx654Hxhv76wDfVQO9KcGhPPyjuRof1Z13w13Tl6BdoJA8oJsZ7fZuPmRixoWKgLAv/xnHfiOkeOQF2vRKf9mTUWjYw2Of3m1jwAaG7Pd2hHIy2V0sgKeCkylM449k9XOFobeFWfA7EeGOwsBYHr1noSALDMMZ5p8Wxh3KYJ4rRvnOb4WwoATtqTbS+glNKRZlUbeKYethNmXasf2gl9CBdwCLEe19yBxQqDnaEg8L7veBIArPn6rXie3p8yaUaNRSNs86xO/5QAwDx3ANDcnrvoQhpuKrQUz9m798US8I712/q4qcH7QqwHBgtGQeD4MQU5f55XgOfonS1wLKqrss552i80ADhpT7RtQwmlA82o1vHsvc0MjM+49tfXde3wPnjlUon1OPZLEOspodzsFZ1pxbVXCX16nn63+itfEifBtd+8ndZ9+05ad+9dYsgNy9GuueM2WvPVL9HqL99Eq26+QUi3Lvv4Jaga901B4KFWBwCbHn8Ez7HwHnSaXm3RcDs/p19oANDcnmnfjoaaCi1BrYCXWYHdadd+IROPdkHhIMR6/G2dq4RDZwfOGuustb7j1RdpD4+xnT5VDFnhVi9WeGMJV2+qxxqpYd9eOrrpTaEad2D2TNozfKiY387T2t78v5+KYGLl56+l+ouhGle0gsDnn22d2t+ePbTschfPsLWn/bhF46ssGmC23vF7FQCctMfbXkCvRTrQtBiyAh4HeQszcfvBbBfrfHjvAsR6Mq79qaxj1UKsp3W2rGsnWnvnbbTpyV/SjtdeERrs7HwLOQWWZIzr8eN0ZO0a2j95Iu3skaQtv/8NrfvON8VIXbzXAgsCL43TkVYUBO54/d94fnnaUsemaQWe9osZADS3P7W/kAYbEVocR1bAw+uBo1nXeoMLB7kdHV49R7GetBN9JO3aK7CI8nD2V15M6797F217/i+0d9RwMVGNT92ywQNl9k2so+0v/5M2/uR+WvHpK/H+8y0I/ME9eT/3VZ+/Fs8uR5tfY9G4KpP6W6anjr+5eR0AnLTH2lxAr0YuoikxTbQi4n16Fgy8mXHsP9R3Nqvg5SHWU7Atv/oKkb7fmXqdDi1d4l2qPoBwsMNDaPiOeiUcVU62d+zonJ/v/qmT8cxaOu27Taf9oXbxnH4pAoDm9od2F9IAI0KL4hAZ8lxx0LG+vyge/x+I9UCsJ+d7+zVf+zJt++fzdGjxQilP914GBDtTr4mMCKe8sX7OUBB4/dU5XwXxVD88szPbvBqLxvJpvwROv9QBwFtZgQvOp5crL6IJVTqyAt4qDh7JOnafUF0RQKwnP6e/9u47aFffXnR8x3Z49taMoT94kPaOGSWuCzC57m0FgX97pmXd/zc3YpTv22yJY9PUapOGWqV1+uUKAJrb79q1pf56pShqxFrw9oog61pP8aFYSse/1K2qFmI9jrkdL/zcxq12O7q/TMc2vQkP7mUwsH8f7R7YTxQUoi3xREEg14qcS/f/uWfwTZ6Q5p1TY5fltO+nAOCkPdrmAnqxsj2Nj6JWwOMOgsZM3B6ajVs3cCF8oJ3+Asf5QMax78461jS83BY24y7VtPGhB+ng3Nnw1CW6JuDugmVXdgl3QeD37j57N8bRo7T8U1eG/rQ/pdqkIVb5nb6fAoDm9vSFbaivXknzMZDI8zkELHbHWfNAifVkOtuXZB3rxaxr7sWLbKF6/4rO4pR1bMtmeOVyZAUOHBCthiuu6xbegsDRI8/4bPYMGxzO075j0+wai8ZETaG77yfH78cA4D9ZgfPpnx3b01hbE/LG2N89ywqsT7vR+30dCHBFI//ItGMvwEvLZUCLS1v+9Ds6vnMHvLAftAeOHBGFg2E88a64/mpqOHR6QeDaO78Squew2LFpUsyiwT51+n4PAJrbby9sQ720SpqLrICXdQJrMp3sr/lGaVBI88bNT2ZcO5F27UN4SblJ6775yEM48fu4aHDbC38LXfcAZ6Gaw2qQvFbD8LfPrrZodNTwxd2+LAHASfvFBefTPzq2o9E2xhR7mBGYXFY9gWWXGR/OutZ9mbi9FC8kPy127qkGAagRWLWC1n7jq+HJSF1SQ0dWr/qP7v+Tj0n99y5ybJpYZdEgKzhOP4gBQHP7dds21EOtpNnICnjTQuhaPyppNoDH7mZd659Z19yPF5CfbfrVo2dMswI/3ws00s5kd1GgGYqCwO/e1ZQF2bdXyEjLWMk/q9qikVEzkE4/6AFAc3u+QzsaaSEr4MEQot5Fn0SY6WRfKVoT8MBbdbLa1bsWzjTA8OAiVl4MR0HgCKEuKddp36KJMTOwp30ZA4CT9mTbCyipdqRZ1Qb8ReuvBMYVJQio72Rek3HtiXjIrdXn70IH58yCB5UAnmLI45ClLwi8rhutuuk6GTZFmllt0QgJTvsyBwDN7bmLLqThliJaL+E/8jTHTHma6k+79gg82AKc/+UunL9k8CAiruPA+vavLYxbNKHKpIESOv3m9gsJA4CT9kTbC+h1pQNNR1YgvyuuuP2Fglv5uH8/7doNeKCFSPjGxChbIGEmYN3a0Ivj+K9v36IZEp/2wxYANLdn2rejoSZnBVArkEMWYGrr7/kd+3oM5fGopeovf4CnlBiepBeWFjk/24K4TXUxkwZaRmgcf9gCgJP2eJsLqLvSgabFdKz9c8kI2/aH8h7Fm3Wt5/AAvTG+J2ZRGSA3G3/2I6z3Mt3tT6+2aLhths7phzkAaG5/an8hDTIjtBgDiU6zmVV6dV5a/VnXGoIH553tGT4U3jEMVwEb1mOgUAltftyi8VGTBoTY6SMAeNuY4jYX0KuRi2hyFQYSnWxz7adFa3Jy/ktisXezohA2F+9s+VWXiwEqIBysu/curPsi2lLHpmnVFg2z4fDD0AVQSNHgYEMJ/ffC8ytqK00tpwCgSdAHm4ynYj9PPgavGCJ4tDDWvfc2L27RuCqLBlhw9MgAnN3+etGFNAxtg2/ZMNPILQDIuPan8MC8tx2vvQqvGCIOLpiHde/haX9qDKd9BAC5CQfNRIvgKcYKlylVyy0AQI9/aceqAkl1AbZtw7r3yPmPqzIDNYwHAUBp7W8XNUkHL8X3cvoUy7hFvXU9twCAq/7Tcfs4HlwxCgCHwCuGqRBw4wasew+NU7lTYhYNCXmFfy72aAicPoYH5RY89zc04fxzCgDq46aGB1cc2/7SC/CKIeLArBlY98WqA6ixaCyyAqELADA+OI+AOW7TAEN/y/nnFAAM1vWL8fCKYxsfegBeMUTsTL2GdV/sE45r09Rqi4YiKyB1APDbC9tQb60jzcXdfs6S12/opzr/nAKA2kgkOr8GD7Aok/8uc+j47t3wjCFh9a1fwLovpRZAjdVUK2AhGJAhAHi0zfn0z47taaytURqV/LmL/VSb1FM73fnnHACMthFlFct4fjyQn0OLFmC9l1kfYLiNACCI9vSFbaiv3pHm424/b6GfMbZJtWdw/HkFAPwfWAgZxSKJAV0mqsOBxDQ00JqvfRnr3RfzACwaXxU+hcBH21wQsNP+BfRiZXuqg2pfq2ti+un6WR1/XgEA/z/213Whq42H671tePAHcJISs+PVF7HOfTojYERIsgKPtQ1GAPC7dm2pv14pAjWs09ad+sdFjXOe+lsVALANt3AVUDRRoFdfhKeUkP3TplD9pXGscT8XSDkW1VVZUk8J9HMA8NgF59MrlRfRxCodp/2CxH1M6pvDqb/VAQCCgCJapyjt6l0LjykRB+fPpWVdO2FtByUr4Ng0o9qikTYCgFLYH9u1pYFGhBbFcbdfaIX/MCs/x9/qAIBtiKmj57IY1rlKtIoBCXr+Z0ylZR+/BGs6sFkBmyZIlBXwSwDwyzYX0L95Il8Mp30vilvHRg3q0QrHX1AAwMY9hfNxT1MUe/Oxh6nxyBF40aDe+b/2KtVfHMNaluROdWa1RaMCrivwaNs2ZXX8f25/IQ02IkKGFuuq8DU5qcqkXlrrHX/BAQAbRx78Q/BSvLc1t99CR1atgDcNEMd376KNP/sR1q+ktsixaWKVRYMCqCtQjgDg8bYX0GuRDjQ1hmtjrxw/S1/30fWCHb8nAcBJG2zqImWGl+SxUNClcdr2z+ep8dgxeFefs2foIFp+9RVYtyHZiGfVBCsrUMoA4C88dtfksbs47Xu13qbFzDMq+fkiABDZAE2juipEesWwVV+6kfZPqoOX9SGH67O0/nt3Y52GeLLa5JhJg61wBwBPtG1DCaUDzajWsS68cvw88rqqOI7f8wCgeW3AjGpcCxTD1n7jq2KgDCg/R9aspo0//7Eo3MTahPFmPbvGotFCetiPQkDFCQCe69CORpgKxu56fOKfXJV/S58vAoCTNsjUaR4KPopi6759J+2rG0vU2AhPXGIOLV5Ibz7yEIr8YOceU1xt0hAfBQKPeRgAPNn2AqpVO9JsDOLxfJDVhKhJvUvg+IseAIj/OOsGmAZUnYpkKz/3GVFxfnzPHnjmIsI1GHuGDaY1d9yGdQfL6yQ3p8b2xZjiQgMAHrv7fIf2NApjd72/RnJsGmd7U9XvqwDgrX9EaxIQQiBQrKmCLm386Q9p79jR1Hj0KDy2V0I+c2bR5t88TsuvuhzrDFZwVmCqyAqYgQoAfnNhG+qpdaQ5GMRTFAEfFp3qoZbe8Zc0AHh7IMBjOrEAimPLPnEpbXriF7RvYh01Hj4EL54PDQ10cN4c2vqXP9LK66/GeoIVxebG7aYxxT4NAPi0/w8xdlelDE773r//GouGmobwhym1vFbSAKD51cBQS6e5iCqLnBlwaP33v007axN0dN1aOPgz9e7v3EF7hgykjQ//RExmxLqBlfLOl8cUDy1BO+Evc5gG+NsL21JvrRL7cpFsesyigYZedqff3BKVlWrJA4BTigUNnWbEEGWWwlZc1004ul29UnS4PhPKIsKj69fRnsEDaNOTv6RVN98gZjBgbcDKbayqKrICRboiOFsA8Is2F9C/Oran8VFNzELAu/B4vsSJiv43dH85/pPWMxJRyhoANG8f5AeFRVjC64KPX0Lr7vkGbfnT74RT5J72xuPH5WnVW7eW9o4eSduef5bW3/9dWvGZT+C9w3yv785jiod5nBV4ewDwdLu29IYYu4vTfrEK+8ZHjbIU9gUyADhpvXRNVERCM7p86oOrb/2iKCrc+tc/0+7+fenAnFl0bMtm38rvHlq0QCjxsWoit+itvfM2WnZlF7xPWKCNi6bHV5k0wKMA4NE2F9BLlRfRhKiGQTzFyuTU2DTSKm9hX6ADgOZ1AiMsA1oCfgoOLqmhFddfLdrhNvzoPtr81JO0/aUXaFffXrR3xFDaP3kiHVwwj46sXC4ChoZ9e6nh0KGWswoNx6nx8GFq2L+fjm3bRkdWrxL99vunTaG9o0fQ7n59aEf3l2nLH5+ijQ89SGu/9TVa+flradnlLt4LLBRpZM4KDG9lVmCYbdBAo5IW4rRfNJvFHR6mHginH4gAoLlx4cT0ahNRa5CtU5Tqu1QLp81XD8u6dhIBBZT0YF6srdC0jjkW1XFWoIVaAa4l4JoCdFwVV+dhSsykfnrwHH+gAoCTxlOQWClpKVpTYLDQ2fJPXiqudzb98v9ox6sv0r5xo8XETL6uCl1WwLFpRnVTH3lzx89ZAs4WLEUtVVE1Hfh+v7emBdbxBzIA+M/gIZ1G2YaonMWChMEkuma6OEarbrqONjzwPdr6lz+I6x/WZuB2zTPBRZ5h7+TgSaw8JnZBHOun2J0aQbrflzYAePvMAbQRwmABO81fdZkYbrXp8Udox79fon3jx9CRVSvzGn19fMd2Wt6tK54nrKg2s9oSI+9TEjl+aQKAk8aTkyZWGSI9g0ULg/ngNN+lmlZ94Xra8OD3hboid5QcnD+Xju/a6UkHCP938Zxhxbpi4THPb+hyOn7pAoDm1wMjcT0Ag5XwNH85rf3m7UKCmrs19tWNE50cxdSU2D2oP549zHNb5Ng0NmpQT01uxy9tAHDa9QC6B2Awb07zN99AGx78AW199k+0e8AbouWTdRhKzbFNb4pOErwXmFc2p8aiYZYRCqcfmgDglO4BXA/AYC2f5rt1FToLm371KO147RXaN2E8HVmz2lcKkevu/RbeFcyTNr5pMZMGGHroHH+oAoC3rgdYXMiGuBAMgk6rbv6cEHMSao+D+tPBhfPp+O7dvpd33tkzhXcI86CNz6TeengdfygDgOY2wDBE9IfrAZis4jjLP3Ulrb3r67Tpycdox2uvihHRR9auEcqLgZztsHYN1B9hrbZ5NfK18SEAKHT2gKbTuKhBi9BDCwvqaf5LN9KGH99PW597hnYPHkAHFy6g43v2yDXGsaGB1t75FbxzWN7GbeKDTJz2EQC0MHtgmGnQnGroZcP8d5pf8ekrae3dd4gxxjsT/6b9k+rEtMOgnubzhZX/sBZguRorIU6oMkV7OBw9AoC8rN9bo4lRKwAr4WmeJzHeciNt/Mn9tO1vz4gRzTzpsGHvHgozPKaanw3WCKwl4wmKo22k+REAePFwNE0spgUoGoR5eZr/zMdp3d130OZf/5J2JrvT/skT6Kg4zTcQOBVWBuTx1Fg7sHPZyWl8tXDqCACKcT0w2DTEXRKKBmE5neYvc2j1/35eDKrZ9vyztGfIQDHimEckg9zhZ4f1BDuzWp9Fk6rkV+tDAOAzTQEexwlNAVjTaf4TtO7bd9Lm3zxOO1Ov0f7JE+no+nU4zXsAX3/wcCCsNdgpan1xi8bYJvXS4I8QAJRTU8AyhIIUPsoQnOa/fBNtfOgB2vb3v9KeoYPo0JJF1LB/H7x0sVL/hw/Tqi9+FusP9pbNrma1Pp1q4fgRAPjJ+us6TYmZlMZHGuzT/DWfpHX3fIM2P/Ur2pl6nfZPmURHN6wnamyERy4xW/74FNYkTOypvLf2N5DmRwDgd00BXROpqYXQFPC1sab9xocepG3/eI72DBtMh5Yupob9++F1fcKBWTMo27kKazXkQ3nG2QbS/AgAglk0OEQMIsL1gB+Nq/A5lX9s8yZ4W7/p/ezfTytv+DTWaVjT/DyUxzTgRxAAyGF9dY0mRE1agqyA/+72L44JBb0DM6bC8/oEHkKEtRm+oTxTq5DmRwAgc9Gg1jSIaC6KBv15LfDFz4oqfrTplQ9WN+RaDKzHcNjiuEXjeCgP0vxls4SmtUEAUPJBRLqIeKEp4D9b1rWTGJ5zOJuGRy4hPImQWyqxBuW3udUWDbcg2lN2iyhbqKLivxAAlL1oEFkBP3YFrL3zNiHg03j0KDx0kdn48x9jzUme5ufpqwOQ5veNJRXlhYqWQACAosGw2/Krr6Ctz/6Jjm7cAE9dBPaOHIZ1JqktcSwaHzWotwbH77PT/9GehqEjAPBd0aCOokG/WucYrb//u0K7H9oA3nBs2zZaftXlWFuypflrOM1vIM3vV1O0JypyAQEAlAZhp9vKG6+hHd1fpuO7d8GLFwAHVFhP8ti0ak7zo43P385fGVvXrds7EQAETWkQ8wd8KRP85qM/F7r1ID929++LNSRFmt+m8VzNj6E8QbAF3SOR/67IFQQAfhpPrNMY20DRoE9tze23CKfWePgQvHsLHH1zIy27sgvWTYBtXo1FIy1dZCuxPwfB1Lm1lnV+RT50j0QuxIPDeGJYHkWDn7yUtvzxaTqydg08/VngCYpYKwGs5neaqvkHopo/aGn/oa/Y9ocq8oX7BJOqthoP0b/jiSdUGRhP7MuiwSpad+9dtG/8GIwHbgYPWsL6CFiaP26LfaYPRHuCWPD3VJ+KindUtJakqj6KB+n/rMBwFA36d/7A9VfT9pdeoGPbt4fa+R9ZvYrqL3OxJgKV5jeEkin22eAJ/aQi2g0VhZJo2/YDqYiyFg81IEWDhk6Tq7hoEMGA74oGL6kRojcH58wK4aSfBlrz9VuxDgKQ5p8eM2kQ0vxBvu8f0KLMbz7UatonWDwADzZIRYMajbZNWoCiQV/a6i/fRLt696CGAwdC4f+3v/xPvHek+WFFPvUnNe32FiV+WxUEqOrXE6rWiAcdPBtk6jS92hTRPTY7n80fuLILbX7qSTq8Yrm0zp9nK3D2A+/bfzY/jjR/4If6CL+s/qt3hw4frSgmSVW9IxFRjuGhB7VoUBM9u4uRFfDn/IG77xDSuI3Hj0vj/BuPHRPZDrxjf2nzz6hGml8Sm/66pl1SUSpqVfWalKrtwoMPdtHgMNOg2Zg/4M+iwc98grb94zk6tmVz4AOArc89g3fqE1vqWEJqvA9Ee2Q49a/hdP8TFRXnVZSaRGWlmlCUOXgRwbd+hkaTqgxaig3Sf0WDF8dow4/vpwMzpgbS+R9cOF/MUMC79EGa3+Y0Pxy/BI5/Z0pRHuoeiby3opz0icXenVS0p1Oq1oAXI8f8gVG2ITYLbJr+s1Vf/KzooW/YtzcYRf+HDtGqm67DuyujsVgY1/9gf5PA8UeUfdzTn5eUbylIquqlyYi2EC9JHmOlL1b8gtKgD4sGu3aiTU8+Jgrr/Mzmp3+N91WWNL9NE6sMMVkUe5kUtj+pqr/PW8a3lLzYpcu7kqr6ExGl4IVJY700ncbZJi1CVsCfRYN33kZ7hgykxqNHfeX8D8yYJpQQ8Z5KZ9zuO4qr+bFvydLSd7iPpv3d147/tGxAZWW7lKK9inZByYoGNY2GmgbNqjax2fpx/sDVV9DWv/6Zjm7cUP7U//59QvkQ76VEaf5qS8wGwT4ly6FLo7qo+R95d8eakHHtuzKt0fIvFwlFcROqOhwvVD7j1CKnGJdCadCH8wditP7+79L+yROIGhvLEgBseuxhvIciW9q1aVKViTS/ZHNdJp1LwTVuHci4diLrWJ+mclT+t6plUFG6pSLaJLxgCYsGNY1G2AbNxfwBX9rKG6+hHd1fpuO7d5XM+e+rGyeuJvD8i2MLHVuMBO8J0R5p7A1dpyn5TnaNm2syrv1YvWte5PsggGUJE6p6bTKiTMYLl9MGGDpN5egVm7T/Wgkvc+jNxx6mQ4sWFNX5H9+1k1Z8+ko88yLYrGqLhpiG0O/AfiNJobVp0MwCdVjScft41rXeyLj21UWR//U6EEhG9KtTijIWC0DS+ytdozG2KU4q2Lj9Z2tuv4V29+9LjYcPeR4AbHzoATxjL9P8ji2GerFOB/YWeYxrqYoxtTXj2vMyneyv1XXr9k7/Xw3oepekqvVBsaC8SoNDTJ1momjQn0WDn7yUtvzxaTqydo0nzn/P8CF4rh4Zd9yMjXKaH/f78lyX6mIwWykORmnXXplx7Lt9HQgsicU+mHWsby+IW/NHQ6FK+uKWuqpmVa0wHxUNVtH6795F+8aPEeN6W8OxrVtEQIHnWZjxqXAYqvmla6Ouixpi0mLp15SZzbrWzb65GuAfku1kXZpx7Jeyrrnv7aMo+UH1RiAgdVZguGXQXMwf8Of8geuvpu0vvUDHtm/PKwBY/4N78PwKGMrDBWD9MZRHLnl1UdjnEyG1uDWqPm5qZXP8c7p0eT+f9rOuNRcfBIytv6GJ+800Wgn9VzR4SQ1tfPgndHDu7Bad/66+vfDMWmFLHIvGRw1xQsR+II8N9qtWStw6UO+a3ylpNmBppyoz49jPZuL2rtb8aJ5UN9TCByK76MWYqCFUzOAY/Gc8xndX7x7UcODAac7/6Ib1tOzKi/Gc8rB5NbZonUU1v1yZzZFWQGaoOFb3JbHYu4vq+NPx6MVZ1+ybdu1Gz3pfuSgGi03y6Fmn6fn2w8JKM3/gyi60+akn6cjK5U3ev7GR1t71dTybHNP8M6pNGoSspnSHF87iLAlYFjPj2MOWGcZ7PHf8Wcf6BN83FG3IBdSvwlE0+JYUJrICvpw/cPcdtOlXj+JZ5DiUpw/2K+nGp/P9fjrYQenL3p34naiVcewBpYyoZwphDHxY8hcN6kXpmYXBiqbWF7eIO5uQsZTL2N9INQvFsT5bkONfdpnx4axrPZeNm8fKOQFLtBFigUpfVYuiQZiv1fpqoNYno9z5KNug+RIeQjKuPbHVzp+lB1mP2E/pNlwPyG+sgc4BH4oGYf5p4zPRtSSZ9RbaJeXq3y/ZQKlG1uPJt5f/vIxj/8HPHySuB0JSNGjoorgqA4EhWIltsWOjjU/SmSbT/NK/XwKbW21W5ez813Xt8D4ePBCUP24B7uJQNAiDeWjc6sUtX7hylKjWSGuqNQqjQNkw1Y7nKubzrrRrjwtkNe6J7oF+SNPJXzRYpEEbsHAbz7QYjP1DsutEXcxcWBTSDCIHPLWVOSoEimI/SQp1WFwIhTqyKw2iaBDmwTS+mCnmteObkqyND3uDOCzlFADUx81Pyjpxi8fX4qOQX2lwIYoGYbne78ctGmeb2BukG8MrWRtfATa7xhKH4JwCgKxrDZE5yp9ahSreMFwPsE43xhPDzi7Ta9EIC2188o3hRdfQqXMo7LfEqVoMAOjWineUs8+/pHciNaaYVocNQP7xxBOiJi3F9QDsRNcQ7vflMm4Hn1hlivZwrPHmB16LBhj/GTndYgCQdSw1jJO6eDRxH6QApRf54MEs83A6CGX/Pt/v830wvgV5bJCp0wyeJwLHf0atnLfPo2gxAOgXNbqG+aFN5yEe0BSQ3gYaOk0NUf9veDdBHsNron9fpkA+SNP4yljzdqZr7hYDgISm1eD+BJLDoVEA0zRRALYIJwgJ9flNcSeMdS7LVZ5GE1itD9/quQv+qq2zBrw5BQBjbAMP8hTJYQOtQSGwYaYhPh6s+yDX9Vg0jOt6NKxnmbJ10zA2PJexvyLbda61n1MAwKdenIjOoilgYnPBICKYHwv7cHUnVxcPd2jMhchXzhnrgTkUtuYUADRpJBuIuM52v+LYNA664KFQDuNs2MI41rxfTzxcx9EP2TmJdDx0cYpdjOA752+AO5x65HgozTkASJ0otMBDPndl8bRqM6fICxbs0wiLiszE9YBfppoJqe8+cPxSDeVBUW5+xhLo+Qa/eQUAJ4MAvJTcREVGctEgsgJSG9eCsPNJY82XpR6Hi8CQeZPHxFCeGoh15atcydcjrTrM5BsAiOIoS8eGl4fqEgtSoGhQ9usBTXSJQHK4NK18TVduWHeyyHWPi5q0CFdreavY8vVIIdNuWxUAnCyMQntgnkWD1ZYInqA0KPf1wBBojhctmOb5HRjvLcvALk3IsOMwmf9V85SY6YlQXasDgJMCDPwC8VJaUzRoip5zbAQyTx3ThdocugcKdPzxJseP6zQJAmRNE22ZGNndOptR7e1Y+4ICgP9MWTLQJoiiQRjmjhch1W/ixC/TN4Cscescf8wqysA6TwIA8YJVTdx1o0AQRYOws18PcJETTj8tF/eJu01kyKTQ0JgismBY162Vou9fxHkVngUAze91ZmGDK1BpEEWDYVAzmx7Dd3K6Tj+K++Rok4WKZkGZ4RINqvI8ADhpXAg1vwYvE0qDsJbGlk4OeeaM25jG2Ej1y1DNjzR/4XoWfUs4hbZoAcBJG2VjQXhRNMgno964HpB4CJFOdSGbX84HBNYVQVdM8LUwpkAqO5B6FkUPAE6mhEYiEPAsNTQIRYNS6wmMkXwaISsoDoFOf+BtqKXjurfAg91Yu7xtrSUJABAIFOH0hPHEKBgMWCvfBJHehOMPeoA6FvMwCh7UM9InejAlDQBOlXw0hBPDgvCmaLAUBSOw8gmmcJ3A0gBmrPi0PxziV5C8holsid8yX4nKSrUsAUDzYsFZqBb1xGbXWCKwwoYlp3GLKL9fVhn0c9Egj2zlqYm9cdoPvA0xDahaFmg81Ki/T69te0YiSlkDgP+ccpqmP2HBeFNVzX3UfXRsYPIWDTYV2PohGMicON3wlRQm8slSh2LQQvTuF1bYx3uwzzu4fBMAvLWx6VwNbYieYCwkD4QkYhYNRtGg9Bs2F2RxirYU8zkyJ4SrWPiLT4ioQ0GaH9ZkCwNWm+W7AKB5upNPOPNRZepZ4QlH9VBXC0E/tq7RYNOgcbZJ02KWqLVpbYsWD+Dh8ays5jYmaogOFKhVSlbNf2J4FVRcW29crDssgJotvg0AmhtvZjNRJ+DRCElLFJT1R1YglEItLM3K3xNvVtyDz105oyxDBNsjbENMqxxoGuI0CGEeibNGKsZXF5wJc2wRYAd5lksgAoDTUlS4HvCmWKvaohEQYoHBQqU8OSlkglNFu9+XoN4lUAHAKUUqUfSiejlnnVXoUMAFg8laza+LLCrS/AXc7zu2yJrIlBkLZADwloiBdrJNBRkBr1JaM6tNqLTBYJK0jbLDWoA0f2H3+9WmKLKVcSZLoAOA5tbPwPWA19EuD/boiYIvGCxgaX6NJkaR5i+002VKzCrqKF4EAMW8HsDi96ho0KapVWagC11gsDDYYJHmN0UmD3tX669DWUMlLCJW0gUAzbXUT957YWF7Y/OEhjX6vmEw/6T5m+arIM1f4N5WY4kumLDtbdIGAG/vHpiIylcPq2CbRGAw2AUGK49xwe4EkeaH4y9UKI3bXkPbDhqGAKB57yv3PENcyEMJ2JMFMtiUYbCiGwsxTYc2f8FtfE0HGKynUAUAp9yX8YcUQ1uMZ7Ot4xaN47szKA3CYJ5fZ3J6el4N9pnCZXpNCFwhAHhbKq3KEMUf+Ei8yQoEXR0LBvODibkoUZMWY28qbAxvtSXkjpGlRABw9mIaVaORli5GmeKj8cZYg54lZqEdD4PlbgMMnabFoM1faPcSS573M7CeEAC04gOcgusBT+/cJlUZQqsBHx0MdmYbbhpiqAz2jAKuIqFfggDAK+PhKeNsQ9xv4+PyxmZXB3NqFgxWlD1G18TUxkWQNS9sXzkxjQ9rCgFAUSSHudIdksPe2eK4FSrBDRjsFOVSXRcjltO43y+o3mgqJpsiACi1pgCmaXn7EU+PmTQI8wdgITAxuwRp/sIODw4fHgzqhTQ/AoByFg1ygdt8XA94VzRYY6NNByblXsFDeRZiryhsfHmNRcMxvhwBgB/FObj1DR+pR0WD7okKXlwPwAJsrJSJoTyFG++tA5AhRAAQhL5dTk0tRqTvaXHPcAsfPyw4xtKyQmQMjr+goTysgdAHan0IAIKo3MUVqbNRNOjxvR82BJh/v3nWEZmH+/0Ch/LYoRzKgwBA1mpfQ2sqGsTH7V3RYDWKBmH+aRVG1q/Ab9pp+qahHooAQN4HfWIQEcZ2elk0CG1vWPm6gdDGV2CaP24LGfY+0AQpY4Gq2hYBQFmKBjHRy9OiwZgpNmWsL1hx2/h0MQET311hEuEjLZYIx3oqpyUiyjaqqPgvBAAoGpTG5lSbNMyCIhjMw1OS1tTyi+xdoXofliiQxJrySQCgai9VtAQCABQNBldp0IDSIKygAL2OJ4VCpreAOSAWTRDFu/gOfeb8jycVxUYA4MuiQQNFg56OJzbFtQvWFywXY2nZqZjGV5BxtmQkJoH61pKK9nRFLiAAgNIgxhPDwmA8Mx5ZuMJsRsyiwQi2/e38I8rkF7t0eRcCgCAVDVbjROLleOKJVSgahDVdv4lAG/37BX5PBvWFRkcQLP16++jHKnIFAYCP7iQ1ncZFTTHzGhuPN9cDXNE9FIVJIe3fN2kxvqWC2nBHQbQnOBZRFnePRC6syIeUokTw8Pxnwyy0I3lpi+IWjeUJYzjFyN+/X4X+/UJsZrVJgxE0B8sUZVxtZeX/VOTLExUV56VUbRMeon83tIkYT+yZpTFjXE59fkMX99O4Rivs2qwvrs0CaOpfc77zPxNcMYiH6PdeZV0oDUKL3MvxoybGj0qQKZuLwr6Cqvl5lDHUNgPZ6rczpWm3VBQKpw4SEW0zHmowbIBhoI3J08lkTYOIoCkQrMI+CPcUkua3RJofwW9gbVTSMDpUeEWtolyfUrUGPNhgFTrxvfYibISeagpgaIlP521oGo2zoaxZiKQ20vyBt11JVb2nRYnfVgUBqvp9POAAnoi0ph7nmUiFejq2VOiZY335oDtGozrUwRSY5sdQLQnEfVJ5V/nnXQ+gqj9IqFojHngwra+mCWlOlujE5ufRRDOWOsVgk5Iby8tOQkV/QWl+Hm6ENH/QhX20hSlFuaqiVCQi+s0pVduPhx/sAScjLZ3moGjQM+OZ5pAcLkEQq+uiUwM1Lq3rcmGpcYhgSVDkx3V5ivKdPhUV76goNclKI5ZS1aV4ERJon5+cbY4N0qPrgaZxpzhZeT0n44QiJk78edtCx6YxUUPUSWAtBd3xK/uSqvqrPrHYByvKyYvt2r0/FdGex0uRpYhKpzG2QQtRROVR94BNdZhI6InWBRdfwvHnbywWNgTV/LJo+B9OqupzCU1rU+EnUhH9U6mIshwvSZ42Km4Bmg7hFE+7B/ojEMgz1a+JVD/WUJ5pfseiyTFTTBbFOpJjP2YthkXVxtGsY/ep72R+rq5bt3f6Kgjo3aHD+1Kq+iRHKXhpEhVacYV11BC98NhcCzeuucDsgZaL+yZDx6JVctZjuJof0y6lqdPijOwZZ7/EzTezjvXbrGOpvgoEEpWValLV+uAFyheFDrd0mo2iQc/uZEdjNPFpHSpT4PjzNh5hzIqHtbjfl+MqVm3Sb8llUFXatRszcXto1rE+SxUV5/kmEKiN6FckFGUKXqiExVgnTmgoGvRCY90SGZZeId68ee7CtBgCy3yr+TlY6odrJan0LCZUGaJ2qFVXjXF7acax714Si73bF0EAqxElVfXGpKrOwwuWU3lttJiljg3Zi3tb7mnvE6INnetMMNEy3zS/TWNtM9QBo4xtrV7qWaRde33Wte7zVyAQ0b6UULX5eOFy2kDTEIVu2KQLNz4ND5BUT4DvNXlo1Xx0muRdO4LBVPK1Xxd1z4ybq+sd86tFkQVuZSBw3khLe7ivpm7DApA0jaXrNF7MH8Cm7c2mL0cgwK18E6qgQJlv9wgP9RoAcSn5Ml8lrKXKuPbETNy2y+b4l8RiH8261o/Trp15q3ClpkmGEgtCXhta4oUuq/FwG64TCNqQFi5mYkEkFI62ZvqkQb1RICpVEfUIu3yZr7RrH8449gMlzQZk4nY849ovp+P2wbP9MH4g/GCQ2pJbyGUShrV4ciKcU20Kp+pXRTf+jrkina8x0jjt560gOQJpfqmsl88mVGZcu9e6rh3eV9T7/qxjfTobt0ble8oZix5WyftadTGnfR5OhJ4EAzNPBAO9tfJvcuy4eBbCUrybvN8jPzeMmJZPxEoU9vlxzTn2GM+DAHb86U7Ra7OOOdULFSsMq5C8aNA4Ie8KJ+CJE5kXt0QLEd8vFnusKwfpLC87scoQ/y7eYevaP8UUSexz0u1rMwIwryLj2gkPU/3RLtm4Od7rTW1GtUWDUScgfe/rONsUKmZwDJ5F+GLGO8vosjIc19pw/UC+qeWeJ3r0h5mGuJPmgG0hrnEKMn4v3AUBASiJ7vc1TXRoBG2yasaxbyrI8acvjX4s49qvsBpRMX8o1wlw6rgHFpvUH9FQ9IUXPVOwJG4L3Ya51ZZ41hxk84llpvjfFs2tscQwKIg8eWszxWEG9/uy6aCMCfLhxTGnttr517vml9Jxe2tJq2PjNtWxWApEMKQXxuCWsSU4bcIkGMqD60z59qeJVcGvdxEywrb9oXxb+t6dcex/lPvHc+HMIBTOSF80yEVuKBqEBUqtz7GFljsKmuWyQQG5388rM1WlV+fs/Fd20T6SdawJ/mqdsdFGGJLimqkoGoT52ObWmEK4CXuRXMYdLvMkrFHivbSfFq3JyfkvcJwPZFx7hn/FM2xRBY3rAfn7ascKpUFkBWD+KLhskm7GiGe57vd1UZy8WOJ9hosWaytNLacAIOtYtUH5w3A9EI6iQW5F4+IqOCJYWQ4caOOTb9KpodFkMZhH/n2Fu3tyCgDqXfPGoCprNbXcYGGjaBAGK9y4Q2I0OpIklC3XRRdMWNYx/63iIJVLAJBx7UlBF91g0RJE62EpGoSjgnlrs6stkXHC/b5c+8Vo2xTaDGGbLdL7hC9sMQDgNoFi9/mX8r6O5VO5HxcfgNw2wITSIKzwIqkpMUuIIeGbksf6nGzjC2HGkP/m/kazq9SWAoAFTrRGVkUuTuX1xAcRDqVBXA/A8sgY8vTF3sgYytVJZBo0PWZJ1caXr47O20dLtxgAjDKVq6T+2F1bDG3ohyhfeuMpdRhPDDunTK8NmV4Zx/CGXUuEa1fOJEjVYgCQ0LSahSG5I2HnMAx9vCEZT2xgch2s6X6/xhIy1PjuJcr86TrVRU1ajMyfuPY+myhVTgEA912HSskrbom0cS90D8jd66tq4hpoPooGw9m/X22elhKFBbz2B1NGT6lh4VkF5wpscwoAOCUWRuEVfoCsPgeRjxDIfJq60I/I4MQgtz6/a4uWUXQEyWWswMhKjFjj/2mB75fDGs8pADgpxRrqBxq3RIsZ+n8lrxDWNFEABk0B+VqfOJOJrJ5cqqDjojyND+u7+aF1XDT366ycA4CTmsihVwCLNymA9cUJQv7ioQDO+Ia9bZQ4ZoXIp9an6zQlxmp9WN+nivvk75fyCgDY+BSM+5WmO8QZQhwEgUAY7hW5HxzrPmiFfSjolSkg5wLtOdVI85+pwp+fTauea74BABsrYoVBKznnF+A0FVtg/Cc0BWBlngOCwTzSpfl5b12I4V9nFPXha61CrqVbFQA0DU3QaT7So6cWGDmWSE1BOSwEmgKmIU6ZWPf+MP7u3sC1HIbyhOSen7VrvKhnaXUAcFJLmV8SXsqZRy3yHTJSkPLfR07m+0is+TIE3E0bISr6ZRrKY0CsqwVpai/Xe0EBwEljbX3MZz/72NA6bFLypyp1TaTjcD1QmlY+/qZ6o6JfDj0OTvNHDXGVivV9Zsc/rUgZLk8CgJPZAK6OxwvDICJcD+B6oFh3nuOjqLWRS5ET2bNz+YypVcW92vIsAGheGzCzGptfS1WbY230JMtuPHWLP2B0DxQ+r4MdP74XOYw7p7hlDd/F2U/8fLVeilZzzwOA5tcCmMuOokFYU/fA+KgBXfJWfB+c6ufrFawjOWS3Uc1/7kCXs+ilnEJZtADgZO/mcBMvHUWDsOaTyebje2ixuG9ilYE7fgms74k0/1IEv2dXqXTsss2eKWoA0NxGIPrLuWiQo0AUDcptg01clZ3pxC9OQHD8UqT5eX0jzX/uq+CRdnnl5UsWADSXE4Z+AJQGYf8phJoa8lbapY4lrkiQ6g+2cSE4p/kX4KB3Tpt7cvy0DwLdkgcAJ1OhQzG9KS+lQW4xQ/Wz3EOIJkbDJXzCJyB2GD2wrgOe5m9au0jzt6xSOdBn9V6Jykq15AHAKWNYDZ1mxBAx5no3yqdFzDCXuSdaF9O8lkgcCHCL5DC0w0pyjYUR2i1pVkyu8q9KZc9IRClrANA8Fdok/YhFk2saCeOJ5S8YnCfJdRlvhFOq0PEiQ5p/FBeyosOrxcK+8QEYP+2bAKC5ohpXRC7GPVLO44m5YrovCqcknkZoiMxPEINj7m4ZhUA1+FdUui72maXQ5m9x/HSQDma+CwBOOQFZBs1DIJCzeASLawxBalVqyVTeXPyuMshFvnz66YtOluCn+U9c0SLNf25r2nuDt959GwA0Ny6cmA7lqJxtkVAahHKa7EWDrJ/OwUDGJ1dSnLnDRD4Z0vxaU5ofh68chvOYYiBYYA8VQQgAmqehJohqUyzMfIZIDMS9q/SDiIZbutiMFsZLs7a41YtrdljoC4Em0vxh02rhDJcMehWBCgBOK0RBhJqzcTHZSLRchUN6WNdpmKVTXdSgGdWmaCNtbQqX2xL5O5sWs0R3Aqc54fDlskGmLlrUkOZv4WorLl/hdSADgLcvXrQR5jdRbVIVUrVhPeFxQSFrcIy0mkRb+BphjG3SGNsQxXrDrSYnz4OMeiFYlDfNryLNn6uxouFgSQXZAh8ANNec5vTVEkSxuReu+EiRCgaDlaZ2hK9Rl8Sx/7WkuTI5Jv9BSZoAoPn1wEhEtnkWDZ6808KJDwaTMs1/opAa+10Le2HIVFelCwBOux5A90BeRYPTY6Z4btg0YbDgi0nxnTXGsuemVzHMCl8LtdQBwCndA7geyFvQYrRtijne2ExhsCDtdxrVYb/LuUsqzNLqoQgAmhe+CHlVXA/krWXdD0WDMJivjdt9uVsDGc9c2vhM0S0TenGxMAUAb5dX5egPH0t+aTLu+67FZguD+WdmhGUIISbsUTm0QkOWGgHAKSIqJ6avLUJVbB4RtCVSjH3QPQCDlW3f4sLdxRDtadG4TRx1TQgAWoykeUTpHFTK5vdxVZs0GPMHYLCSWH9dp6nIXOakdzKhysQ8CgQA+Vu/t0YTI7rO1RaK+QPhaZ+BwUp2ONE0IdA0B2n+nCSqWeAKaX4EAIU/HE0Ti2kBigbzko5lTfr+iLxhsMLS/LomhnotQjV/ztP4UJ+EAKAo1wOc5p6BCtu8J8Rx1wU+ShgszwxkzBRqdNhHzn3YgKw5AoCSawrUVZnosc2naDBuC5nmvjrWDwx2NuMZDbOrkW3MZdz5GIw7RwBQdk0B3MvlLbzBgzWGoiIXBmvagFVNDGRaiANFi8bBEU+5xOwSBAC+q8zle+80PtL8igajhrjnxBqChc24Op3T10uxF7QoRCZqigwcGhAABKBoh1NTC6EpkOcHbgkVM6whmOw22NBpJuaT5DSUZ5xtIM2PACCYRYNDxCAiXA/kpdQVP6HUhY8eJtl14SgLE0pzSvPzUB7oiiAAkCfVh/nb+Yt4WDQRIh6wgFtvUTCMoTy51AZNrUKaHwGAzKcArWkQETS789sYuL+Xq6PRSggLig0QQ3mQ5m/JFsctGsdDeZDxK5slNK0NAoAybBAc8WKDyK/1Zyxaf2B+lxJHgN+yPki1RcMR1JffIsoWqqj4LwQAZS8axKaR9wxvtBLCfKIWyt/wInzDuX23SPP7xpKK8kJFSyAAQNGgf8d72qK4CkWDsHLU9qCNL7fJoTy1sDdmhPjt9H+0p2HoCAB82B+MokEUDcL8aQNPSoKjsK9FGXAeYIQ0v09N0Z6oyAUEAFAaDFrR4BC0EcE8ztDxtzgP32KLNq2a0/z4/vzt/JWxdd26vRMBQNCUBnHqyK9oEEqDsILu93UaZ5uiWh3f1LnS/DaN52p+ZOCCYAu6RyL/XZErCAD8tSGNsQ0UDbZCaRDFR7BcjafLTa4yxbQ5fEPnqsFh4S5dZCuxboJg6txayzq/Ih966npHPDj/pSQxnhjjiWHe2iATMr0tXrM5TdX8kO4OXNp/6Cu2/aGKfOE+wZSqbsBD9KfxeOIJUBvLO2XJhZZ9kLKEqZooVsP9fssjvXmf6YOOmyAW/D3Vp6LiHRWtJamqv8KD9H9WYDiKBvM+zfCJbzCKBkPZv881IosQOOeQ5kerbVCFflIR7YaKQkkaxoeRBQhQ0aCBO8x8bUHcEvUVPbHRyZ0x0zTRMor+/XMHxtNjJg1Cmj/I9/0DWpT5zSsIiOhXJ1TtOB5ssE45o21TODdsbLkXDXLw9AauB6QLiqHPjzR/GE79SU27vUWJ31YFAYr2TTzk4BY4TecCJ6Q8cx9NWt00mrQWG2Jgja93ZkFh85w2H2O4A28JVWtMqeq/enfo8NGKYsJBADIBQS4a1ETPLnqb89AUcGzRD45BRAGph9E0Gm6isK8l0awZ1UjzS2LTX9e0SypKRVJRrkup2i48+GAXDfLpdjZOR3ldD4i55bge8Kd6prjygk5GS7LZ6ICR5tS/htP9T1RUnFdRaniQAAsL4EUE3/oZPNjEQGFUXpoCJrTOfWKcmRkXRStsi2l+m9P8cPwSOP6dKUV5qHsk8t6KctInFnt3SlF+l1K1BrwYOeYPjLINsVlg08zNFotpZ3w9gI211MYT5vg0uxSO/6zGYmGDMDpbDscfUfZxT39eUr6lIKEolyciyiK8JHlsIKqmMe/cx618PIo3jXV3ljS/TROrDEzHlMf2J1X193nL+JaSF7t0eVdS0X4mohS8MInSq00DURYhK5CzsRjTcIgLFUX1cjKC0nNqWYzian6sFVla+vakFO23vnb8pxUIVla2SynKv5vaEvASZaqsHipaqkxstjlPJLTF3TS6Bwo/8bM2Axz/WdL81RbULOVK9W9LKdpjvkv153kt4CZVbSReqHzGqUVOMS6F0mAeEwlN6oeUbH53/LouUv1w/GdeU/xskOaX6sS/NqnoP3yxXbv3V8hCraJ0S0aUyXjBcrZd8XS9uei3ztlYlGYIirJaLO6bGGUpa6yXt9tCx4ZktWSWVJQlCUX/Bl+jV8gIyxImVPXahKJMwQuX07j4bSoKs3Jvy6qxxX0t2ghPFakSxX1w/GcJHLFepHL8qjahVtM+VxTZXr8GAjxTIKUoY7EAJC0a1DUaY5vipIKNO5c2QtQJ8NyFKSjuOz3N7zTNpWCdDuwt8kj2JhWlH3fOVYSZWl3vklS1PigWlFdpkFPdM1E0mFvrltvUusWn4DC1ms7AfIozFI9aYlRxT2hLyGQHUhHteRbQqwCnKgomFe3v4gFhkUjbvlVXZUKpLUc9Ab5KkblgkFsk50KC+ozto8NQzS9ZRb+2Oamqj77ePvoxePtzwA+IH1RK1TZh4cibFWD5XGz+ud/7DrV0Ke59OQjEEKozB3xTYpYYV4w9QqqK/sUJTbtruGG8B949D/iBcUVkQtXmYyHJa/2Npt7uNFoJc0oJc51A74BlBXqIgI+vgSyk+d9mS4SEtAEJafkK+0bysLzQFPYVu2AwqaoDUScg9yCXMVFDqJjBMeSSFTBFCt2vQ11YMIpFabioD1c+p9u8Glu0zqKaXyrhniMpRXs1oWk18NzFmzz4bCqi7MWCk9cGmzpNj1moBs+pQtyi6dVNEwnL3UHQ84RKJKeyl8Txbs6U5udix0FI88t12o8oW5Oq+qseqtoWXroEvGLbH2KlpEREWYYFKLf0a13UFGlSOJDcHAwXkHFKmZ1MsU+XnH0YbDTd6c+uQcDW0lCePlDrk064J6Wq3y77ON6w8kRFxXmpiHZDSlVHYEHKXjSoC+cGh5JfQMDqjFxjMdo2aKBpiKCqNc+fe/S5nZO1Hbg7AaOic1Dri1viuffENyxZD786HPf7fhs+pCg2txFiCqHcxm1xKBosPDBY5Ng0L27RrBpLzIrna4RpJ/4vazbwiZ6dPN/f42SfZ31GDdT6JBTuOZhU1X++HolUwdv6mD6a9pGUoj2QiijLsXDlNb5v5tMVigZh/mnjM9HGJ5/j35hS1UfQv4/rAZhfiwahJAcro4Qz2vikFO6ZmdS026UdzBMqcSFVtZKq+hy6B1A0CIN5MsQpbtFIyxAaB/j2pDntH0+qas9kJNIVXlPW7gFV/UFK1dJY8JIXDZoGigZhnhvXRwxGml82x78jpSi/SxpGB3jJsIgLadpnWFwopWoN+AhkVhpE0SDMg2l8MVN0QuCbksnUpbWKfu+L7dq9H14xrOJCkYiSVNXfp1R1Oz4I+ZUGF6JoEJbr/T5LL9umGG2Nb0iq+/0htap6Ddr4wFv07tDhfamI9q2Uqs7FRyL39QBL1GI8MezsMr0WjbDQxieZTO8+HsNbq2kmvB049/VAJNI1oSi1qYhyFB+P3OOJJ0RNWorrAZi437dwvy+faM/KZET7EbeHw7uBvGBtZzGaOKKsx8ckr/XQNDGYZR6uB0LZv8/3+/0MfAdSmaKMSyrKF/pUVLwDngwURF23bu9MadotvKjwccltAw2dpsZMqN9Jr89viRkG6N+Xyg6lItrLKVWNw2uBopCsNGKQHJbfemuaKABbBHEhCfX5Td+OUYa1wiLK+qSm/R/U+kDpAgHD+HBKVe+DpoD8Nsw0aHY1rgeCbDwUaRgX9mlYzxKl+acmFeU2qPWBshYNpiL6p1KK9gYrSeHDxCAimL8K+waZOO1LdNo/mlS1xOuadgm8D/BbVqBDSlV/nYhom/GxyjyIiMfisqYAHKwvC/scW9Rx9INwj0y9+5tTivZE90jkQnga4Gv6xGLvro1oX01GlMn4eOXWFBhq6uKUCcfrA8U+16ZJVaZo78T6lOXEr82qVdWv854KzwICRw9VdVKq+q+Uqu3HBy2vsUwsO580HHEZKvptmlCFiXwSifYcYx2WhKJcDg8C5MgKaNpHUor2QErVsvjIZb4e0Gi0DcnhUrXyjROjeLHuZLBkRNmaVNXf9OjYsT08BpC2aJAHEaVUtT8GEcl9PTDE1GkWJIc9tyWOTWOjBvXEOpNlKM/chKJ/o3sk8l54CBAaeup6R454UTQoefcATySMoXugYMcfb3L86OGXYgQvd0z1TmnaxzGUB6BoEEWDoegeYAcGcaHWpPpNnPjlOO1vTyra09wxhZ0fABQNhvJ6YLil05waZARaKu5jud6euOOXwRYkNO0unrqKXR6AHIoGk4r+w4SqZbB5yD17YHoMgcDpOv0o7pPAGlggLaUoVyHND0AriwahNCi/9T2hMhjmIUSL4xaNsZHql+B+f0dSVX//uqZVYgcHwCNe62BelFLVJ1OqtgkbjaxDiHSqqzJF+jssjn9+jU0jWacf7z/o/fuLkqp6z4vt2r0fuzUARYKHX9Sq6q1JVZuAjUdePYExkk8jZAXFIdDpD36aX1UHJCP61UjzA1Bieuh6NcYTo2AwSK18E6pMceWB9xto25VUtT8lKitV7MIAlJlXbPtDSVX9QVJRlmBzktP6G5qoE1gatOE8J077HMggzR/4Nr6lqYj2vUTbth/ArguAzxBKg6r6yYSq9mJNbWxY8hkL4Qy3DKEy6Oeiwbk1lpia2Bun/aAX9TWmVG0QK5gizQ9AQODRmSlFeywVUdZjI5O1aFCjUbY/ggH+92fVWGIWAibySTGCd3dC0f5cW2lq2E0BCCh13bq9MxHRb05GtDHY2OQuHBxqNU0lXFCCYUTs8OfVWDSxyqQhpkE98A5ksTSn+fvEYh/E7gmARCQVxU6p6rMc3WOjk9t66RoNNg0aZ5s0LWbR/LjV6nkEPIBnbo1JU2ImjYkaNMjQockvWZo/GdEG16rqNUjzAyA5XMTDPbsJVZuPDTBkgYGmUT9dF8HBMNMQPfgjbYNGWYa4ThhhGzTM0mmgadAbug5hHpktouxJKtpfehqGjl0RgJAhigYjka6piJZMRJQj2BRhsFBYNqWq93H3EHZBAEBFb8O4IKVoDydVbTU2SBhMPksqyrBERP/sExUV52HHAwCcRp+KinckVfVGsVk0tQBh84TBgivRuy+lqn97XVUt7G4AgJzhFqCkqv6B53hjM4XBAnW/vzylaA8kDePD2MkAAK2meyTy3oSifyOlajOwucJgvrZRnMFDmh8A4H1WQNe7JBXtlYSqHcRmC4P5wg4kFeWF1yORKuxQAIASXA9U/k8yov0oEVGWYQOGwcpQ1CcKdtWf8reIHQkAUHI41cgCIjwWtGk8KDZmGKzIjn9CMqJ9iQt2sQMBAHxBT13vmFTV3yQi2mZs1DCYh04/ohxOKdqrCUVxsdMAAHxLn1js3SlF/0pC1SZi84bBCpLp3ZhU1V+wTgd2FgBAoEipapwLlJr6kbGhw2A52vTaiPbVF7t0eRd2EQBAoOF+5KSq/iClqkuxucNgZxTtOZZQlNpaVb0MOwYAQDp4/kCtonRLqlof3vCw8cPg+JVtXDvTo2PH9tghAAChgDe8pKI9zveccASwENqChKbdxUJb2A0AAKGE7zmTqvrlhKqOh1OASV7U15hU1YGpiP4pzobh6wcAgBOwmhkPL+FZ5XAYMIm0+femVPVZnq+BrxwAAM5Bn1jsg0lF+24ioiyCA4EFeATvCgzlAQCAVsBp0qSqfjKlKD1SEeUonAosGKl+dXxSUb4AtT4AAPCA7pHIhSlFeywVUdbDycB8WM1/JKmq3VORSCd8rQAAUATqunV7J2uhpxRlLBwPzAcyvVuTqvorDlDxdQIAQImojUSiSVV9DkWDsDKc+BclVfVutPEBAEAZQdEgrGSmKEOTmvYZtPEBAICPOFk0mFDVXlAahHnYv3+QZ1okFcXGVwYAAD4nWVnZDkqDsEKn8aVU9ZHeHTp8FF8UAAAEjJNKgylVrYNTg+Xo+OcnVfUOHm2NLwgAACQgoWk1nMpNqdp+ODrY6YV92pBkRL8a9/sAACApYjyxov8wpWpZOL7Q26GUqv6LO0rwZQAAQEgQ44lV9ZqUqg5IqVoDnGHI+vcV7fHehnEBvgQAAAgxKUWJpBTldylV3Q4HKbVlU4ryHfTvAwAAOAV2DElF+2ZCUebAWUp14p/M+vxPVFSch1UOAADgrPD1QEJRLk9FtCQGEQW2mr8xpar9k5FIV6xoAAAAedNDVdvyICJoCgRnME9C1V56XVUtrF4AAAAFw5oCtap6ayqiTYKj9WUb3+6koj2NwTwAAACKBo99TUW0l5vayOB8y+z4N6cU7WFu78TKBAAAUBJebx/9WErRfp6KKGvhjEtc2Kdqq2tV9fu9O3R4H1YiAACAslDXrds7U5p2S1LVJsA5F9kiWj13avCVDFYeAAAA35BQFDelaK8mI8phOGxPLV0b0b7ap6LiHVhlAAAAfAurzCVV9RfoHvDgxK9pt8PxAwAACBScqk6p6tdSEWU2HHo+ffzqSk718/UKVhEAAIDAwuJCKU37eErR3sDsgXMX9yVV9R7c8QMAAJCO2kpTS6nq3zCauJnjV5QVCU27C44fAACA9PTu0OGjSVV9lKfThdj5L+DiPqT6AQAAhI4X27V7f0pV7+P0d4iK+0bXKsr1fDWCFQAAACDU8CmYT8OyFgwmVO0gKyj2UFUHbxsAAAB4G3wqrtW0TyRUtVciohyTwPFnkqr6E77ywNsFAAAAcqBHx47tuU4gpWqrgpXiV/ayIFJKUa5Cmh8AAABoJU9UVJxXqyjdUoryb55859dRvClVHZBS9K9wXQPeGgAAAOAhww3jPSlV/bw4YUeULWVt3+MOhoiWTKrql1+x7Q/h7QAAAAClygzoepeUqj6SVLWRIvVe3Pv8HYmINiSlKA/xv8v/Pt4CAAAAUGZYM7+HrlezjG5C0f6cUtURiYiyrCk9n+cdvqotaFIuVH+dVJTbehqGjvt8AAAAIGCZgtfbRz+WrDRitRH9iqSiXJdU1RuTivKFWk37XK2qXpNU1UsTum70icU+iCcGAAAAAAAAAAAAAAAAAAAAAAAAAAAAAAAAAAAAAAAAAAAAAAAAAAAAAAAAAAAAAAAAAAAAAAAAAAAAAAAAAAAAAAAAAAAAAAAAAAAAAAAAAAAAAAAAAAAAAAAAAAAAAAAAAAAAAAAAAAAAAAAAAAAAAAAAAAAAAAAAAAAAAAAAAAAAAAAAAAAAAAAAAAAAAAAAAAAAAAAAAAAAAAAAAAAAAAAAAAAAAAAAAAAAAAAAAAAAAAAAAAAAAAAAAAAAAAAAAAAQKP4fxljUH1mrU0AAAAAASUVORK5CYII=;" vertex="1" parent="1">
          <mxGeometry x="527" y="649" width="61" height="61" as="geometry" />
        </mxCell>
      </root>
    </mxGraphModel>
  </diagram>
</mxfile>
